M48
; DRILL file {KiCad 5.1.5} date Sun 15 Dec 2019 12:46:28 AM EET
; FORMAT={2:4/ absolute / inch / suppress leading zeros}
; #@! TF.CreationDate,2019-12-15T00:46:28+02:00
; #@! TF.GenerationSoftware,Kicad,Pcbnew,5.1.5
; #@! TF.FileFunction,Plated,1,2,PTH
FMAT,2
INCH,TZ
T1C0.0118
T2C0.0197
T3C0.0315
T4C0.0394
T5C0.0433
T6C0.0591
T7C0.1260
%
G90
G05
T1
X46357Y-35433
X47310Y-37074
X48818Y-26772
X48871Y-36266
X53838Y-35630
X61500Y-35157
X63800Y-34957
X69192Y-35335
X71100Y-37957
X71161Y-29331
X73944Y-37201
X74961Y-27402
X77600Y-38624
X79100Y-38157
T2
X77795Y-22047
X78072Y-21379
X78072Y-22715
X78740Y-21102
X78740Y-22992
X79408Y-21379
X79408Y-22715
X79685Y-22047
X44724Y-22047
X45001Y-21379
X45001Y-22715
X45669Y-21102
X45669Y-22992
X46337Y-21379
X46337Y-22715
X46614Y-22047
X77795Y-44094
X78072Y-43426
X78072Y-44763
X78740Y-43150
X78740Y-45039
X79408Y-43426
X79408Y-44763
X79685Y-44094
X44724Y-44094
X45001Y-43426
X45001Y-44763
X45669Y-43150
X45669Y-45039
X46337Y-43426
X46337Y-44763
X46614Y-44094
T3
X56179Y-36657
X58100Y-36657
X56200Y-22257
X64200Y-22257
T4
X54068Y-41390
X55068Y-41390
X56068Y-41390
X57068Y-41390
X67600Y-24257
X68600Y-24257
X69600Y-24257
X70600Y-24257
X71600Y-24257
X61100Y-26957
X62100Y-26957
X63100Y-26957
X64100Y-26957
X65100Y-26957
X72600Y-31457
X72600Y-32441
X72600Y-33425
X78309Y-31457
X78309Y-33425
X50000Y-24000
X51000Y-24000
X52000Y-24000
T5
X63200Y-44357
X64200Y-44357
X65200Y-44357
X69400Y-44357
X70400Y-44357
X71400Y-44357
T7
X78740Y-22047
X45669Y-22047
X78740Y-44094
X45669Y-44094
T6
G00X75297Y-30236
M15
G01X75809Y-30236
M16
G05
G00X75297Y-34646
M15
G01X75809Y-34646
M16
G05
T0
M30
