G04 #@! TF.GenerationSoftware,KiCad,Pcbnew,5.1.5*
G04 #@! TF.CreationDate,2019-12-15T00:46:23+02:00*
G04 #@! TF.ProjectId,hakko_907,68616b6b-6f5f-4393-9037-2e6b69636164,rev?*
G04 #@! TF.SameCoordinates,Original*
G04 #@! TF.FileFunction,Copper,L2,Bot*
G04 #@! TF.FilePolarity,Positive*
%FSLAX46Y46*%
G04 Gerber Fmt 4.6, Leading zero omitted, Abs format (unit mm)*
G04 Created by KiCad (PCBNEW 5.1.5) date 2019-12-15 00:46:23*
%MOMM*%
%LPD*%
G04 APERTURE LIST*
%ADD10C,0.100000*%
%ADD11C,0.050000*%
%ADD12C,1.500000*%
%ADD13R,2.000000X2.000000*%
%ADD14C,2.000000*%
%ADD15R,3.200000X2.000000*%
%ADD16O,1.600000X1.600000*%
%ADD17C,1.600000*%
%ADD18O,1.905000X2.000000*%
%ADD19R,1.905000X2.000000*%
%ADD20O,1.700000X1.700000*%
%ADD21R,1.700000X1.700000*%
%ADD22C,6.400000*%
%ADD23C,0.800000*%
%ADD24C,0.600000*%
%ADD25C,1.000000*%
%ADD26C,0.750000*%
%ADD27C,0.500000*%
%ADD28C,1.500000*%
%ADD29C,0.254000*%
G04 APERTURE END LIST*
D10*
X111000000Y-118000000D02*
X111000000Y-51054000D01*
X111000000Y-51054000D02*
X205000000Y-51054000D01*
X205000000Y-118000000D02*
X111000000Y-118000000D01*
X205000000Y-51054000D02*
X205000000Y-118000000D01*
D11*
X157734000Y-75237580D02*
X157734000Y-75475676D01*
X157495904Y-75380438D02*
X157734000Y-75475676D01*
X157972095Y-75380438D01*
X157591142Y-75666152D02*
X157734000Y-75475676D01*
X157876857Y-75666152D01*
D12*
X142694000Y-93108000D03*
X147574000Y-93108000D03*
D13*
X184404000Y-79900000D03*
D14*
X184404000Y-82400000D03*
X184404000Y-84900000D03*
D15*
X191904000Y-76800000D03*
X191904000Y-88000000D03*
D14*
X198904000Y-79900000D03*
X198904000Y-84900000D03*
D16*
X142748000Y-56532000D03*
D17*
X163068000Y-56532000D03*
D18*
X176276000Y-112666000D03*
X178816000Y-112666000D03*
D19*
X181356000Y-112666000D03*
D18*
X160528000Y-112666000D03*
X163068000Y-112666000D03*
D19*
X165608000Y-112666000D03*
D20*
X181864000Y-61612000D03*
X179324000Y-61612000D03*
X176784000Y-61612000D03*
X174244000Y-61612000D03*
D21*
X171704000Y-61612000D03*
D20*
X165354000Y-68470000D03*
X162814000Y-68470000D03*
X160274000Y-68470000D03*
X157734000Y-68470000D03*
D21*
X155194000Y-68470000D03*
D22*
X200000000Y-112000000D03*
D23*
X202400000Y-112000000D03*
X201697056Y-113697056D03*
X200000000Y-114400000D03*
X198302944Y-113697056D03*
X197600000Y-112000000D03*
X198302944Y-110302944D03*
X200000000Y-109600000D03*
X201697056Y-110302944D03*
X201697056Y-54302944D03*
X200000000Y-53600000D03*
X198302944Y-54302944D03*
X197600000Y-56000000D03*
X198302944Y-57697056D03*
X200000000Y-58400000D03*
X201697056Y-57697056D03*
X202400000Y-56000000D03*
D22*
X200000000Y-56000000D03*
X116000000Y-112000000D03*
D23*
X118400000Y-112000000D03*
X117697056Y-113697056D03*
X116000000Y-114400000D03*
X114302944Y-113697056D03*
X113600000Y-112000000D03*
X114302944Y-110302944D03*
X116000000Y-109600000D03*
X117697056Y-110302944D03*
X117697056Y-54302944D03*
X116000000Y-53600000D03*
X114302944Y-54302944D03*
X113600000Y-56000000D03*
X114302944Y-57697056D03*
X116000000Y-58400000D03*
X117697056Y-57697056D03*
X118400000Y-56000000D03*
D22*
X116000000Y-56000000D03*
D20*
X144952720Y-105130600D03*
X142412720Y-105130600D03*
X139872720Y-105130600D03*
D21*
X137332720Y-105130600D03*
X132080000Y-60960000D03*
D20*
X129540000Y-60960000D03*
X127000000Y-60960000D03*
D24*
X180594000Y-96410000D03*
X123998000Y-68000000D03*
X175748000Y-89750000D03*
X197104000Y-98106000D03*
X120167000Y-94169000D03*
X136748000Y-90500000D03*
X187819000Y-94491000D03*
X200914000Y-96918000D03*
X124133000Y-92115000D03*
X117748000Y-90000000D03*
X156210000Y-89298000D03*
X180748000Y-74500000D03*
X162052000Y-88790000D03*
X190400000Y-69600000D03*
D25*
X123998000Y-68000000D02*
X125998000Y-68000000D01*
X129540000Y-64458000D02*
X129540000Y-60960000D01*
X125998000Y-68000000D02*
X129540000Y-64458000D01*
D26*
X120167000Y-94169000D02*
X133079000Y-94169000D01*
X133079000Y-94169000D02*
X136748000Y-90500000D01*
D27*
X187819000Y-94491000D02*
X196963000Y-94491000D01*
X196963000Y-94491000D02*
X199390000Y-96918000D01*
X199390000Y-96918000D02*
X200914000Y-96918000D01*
X200914000Y-96918000D02*
X200914000Y-96918000D01*
D28*
X139872720Y-105130600D02*
X139872720Y-88875280D01*
X157734000Y-71014000D02*
X157734000Y-68470000D01*
X139872720Y-88875280D02*
X157734000Y-71014000D01*
D26*
X124133000Y-92115000D02*
X119863000Y-92115000D01*
X119863000Y-92115000D02*
X117748000Y-90000000D01*
D27*
X178562000Y-76344000D02*
X158750000Y-76344000D01*
X158750000Y-76344000D02*
X156210000Y-78884000D01*
X156210000Y-78884000D02*
X156210000Y-89044000D01*
X156210000Y-89044000D02*
X156210000Y-89298000D01*
X156210000Y-89298000D02*
X156210000Y-89298000D01*
X178562000Y-76344000D02*
X178904000Y-76344000D01*
X178904000Y-76344000D02*
X180748000Y-74500000D01*
X180748000Y-74500000D02*
X180748000Y-74500000D01*
X180748000Y-74500000D02*
X180748000Y-74500000D01*
X162052000Y-77868000D02*
X162052000Y-88790000D01*
X179578000Y-77868000D02*
X162052000Y-77868000D01*
X162052000Y-88790000D02*
X162052000Y-88790000D01*
X162052000Y-88790000D02*
X162052000Y-88790000D01*
X179578000Y-77868000D02*
X182132000Y-77868000D01*
X182132000Y-77868000D02*
X190400000Y-69600000D01*
X190400000Y-69600000D02*
X190400000Y-69600000D01*
D29*
G36*
X204315001Y-117315000D02*
G01*
X111685000Y-117315000D01*
X111685000Y-111622285D01*
X112165000Y-111622285D01*
X112165000Y-112377715D01*
X112312377Y-113118628D01*
X112601467Y-113816554D01*
X113021161Y-114444670D01*
X113555330Y-114978839D01*
X114183446Y-115398533D01*
X114881372Y-115687623D01*
X115622285Y-115835000D01*
X116377715Y-115835000D01*
X117118628Y-115687623D01*
X117816554Y-115398533D01*
X118444670Y-114978839D01*
X118978839Y-114444670D01*
X119398533Y-113816554D01*
X119687623Y-113118628D01*
X119703290Y-113039863D01*
X158975622Y-113039863D01*
X159069121Y-113336446D01*
X159218684Y-113609089D01*
X159418563Y-113847315D01*
X159661077Y-114041969D01*
X159936906Y-114185571D01*
X160155020Y-114256563D01*
X160401000Y-114136594D01*
X160401000Y-112793000D01*
X159102430Y-112793000D01*
X158975622Y-113039863D01*
X119703290Y-113039863D01*
X119835000Y-112377715D01*
X119835000Y-112292137D01*
X158975622Y-112292137D01*
X159102430Y-112539000D01*
X160401000Y-112539000D01*
X160401000Y-111195406D01*
X160655000Y-111195406D01*
X160655000Y-112539000D01*
X160675000Y-112539000D01*
X160675000Y-112793000D01*
X160655000Y-112793000D01*
X160655000Y-114136594D01*
X160900980Y-114256563D01*
X161119094Y-114185571D01*
X161394923Y-114041969D01*
X161637437Y-113847315D01*
X161792838Y-113662100D01*
X161940037Y-113841463D01*
X162181765Y-114039845D01*
X162457551Y-114187255D01*
X162756796Y-114278030D01*
X163068000Y-114308681D01*
X163379203Y-114278030D01*
X163678448Y-114187255D01*
X163954234Y-114039845D01*
X164080095Y-113936553D01*
X164124963Y-114020494D01*
X164204315Y-114117185D01*
X164301006Y-114196537D01*
X164411320Y-114255502D01*
X164531018Y-114291812D01*
X164655500Y-114304072D01*
X166560500Y-114304072D01*
X166684982Y-114291812D01*
X166804680Y-114255502D01*
X166914994Y-114196537D01*
X167011685Y-114117185D01*
X167091037Y-114020494D01*
X167150002Y-113910180D01*
X167186312Y-113790482D01*
X167198572Y-113666000D01*
X167198572Y-113039863D01*
X174723622Y-113039863D01*
X174817121Y-113336446D01*
X174966684Y-113609089D01*
X175166563Y-113847315D01*
X175409077Y-114041969D01*
X175684906Y-114185571D01*
X175903020Y-114256563D01*
X176149000Y-114136594D01*
X176149000Y-112793000D01*
X174850430Y-112793000D01*
X174723622Y-113039863D01*
X167198572Y-113039863D01*
X167198572Y-112292137D01*
X174723622Y-112292137D01*
X174850430Y-112539000D01*
X176149000Y-112539000D01*
X176149000Y-111195406D01*
X176403000Y-111195406D01*
X176403000Y-112539000D01*
X176423000Y-112539000D01*
X176423000Y-112793000D01*
X176403000Y-112793000D01*
X176403000Y-114136594D01*
X176648980Y-114256563D01*
X176867094Y-114185571D01*
X177142923Y-114041969D01*
X177385437Y-113847315D01*
X177540838Y-113662100D01*
X177688037Y-113841463D01*
X177929765Y-114039845D01*
X178205551Y-114187255D01*
X178504796Y-114278030D01*
X178816000Y-114308681D01*
X179127203Y-114278030D01*
X179426448Y-114187255D01*
X179702234Y-114039845D01*
X179828095Y-113936553D01*
X179872963Y-114020494D01*
X179952315Y-114117185D01*
X180049006Y-114196537D01*
X180159320Y-114255502D01*
X180279018Y-114291812D01*
X180403500Y-114304072D01*
X182308500Y-114304072D01*
X182432982Y-114291812D01*
X182552680Y-114255502D01*
X182662994Y-114196537D01*
X182759685Y-114117185D01*
X182839037Y-114020494D01*
X182898002Y-113910180D01*
X182934312Y-113790482D01*
X182946572Y-113666000D01*
X182946572Y-111666000D01*
X182942267Y-111622285D01*
X196165000Y-111622285D01*
X196165000Y-112377715D01*
X196312377Y-113118628D01*
X196601467Y-113816554D01*
X197021161Y-114444670D01*
X197555330Y-114978839D01*
X198183446Y-115398533D01*
X198881372Y-115687623D01*
X199622285Y-115835000D01*
X200377715Y-115835000D01*
X201118628Y-115687623D01*
X201816554Y-115398533D01*
X202444670Y-114978839D01*
X202978839Y-114444670D01*
X203398533Y-113816554D01*
X203687623Y-113118628D01*
X203835000Y-112377715D01*
X203835000Y-111622285D01*
X203687623Y-110881372D01*
X203398533Y-110183446D01*
X202978839Y-109555330D01*
X202444670Y-109021161D01*
X201816554Y-108601467D01*
X201118628Y-108312377D01*
X200377715Y-108165000D01*
X199622285Y-108165000D01*
X198881372Y-108312377D01*
X198183446Y-108601467D01*
X197555330Y-109021161D01*
X197021161Y-109555330D01*
X196601467Y-110183446D01*
X196312377Y-110881372D01*
X196165000Y-111622285D01*
X182942267Y-111622285D01*
X182934312Y-111541518D01*
X182898002Y-111421820D01*
X182839037Y-111311506D01*
X182759685Y-111214815D01*
X182662994Y-111135463D01*
X182552680Y-111076498D01*
X182432982Y-111040188D01*
X182308500Y-111027928D01*
X180403500Y-111027928D01*
X180279018Y-111040188D01*
X180159320Y-111076498D01*
X180049006Y-111135463D01*
X179952315Y-111214815D01*
X179872963Y-111311506D01*
X179828095Y-111395446D01*
X179702235Y-111292155D01*
X179426449Y-111144745D01*
X179127204Y-111053970D01*
X178816000Y-111023319D01*
X178504797Y-111053970D01*
X178205552Y-111144745D01*
X177929766Y-111292155D01*
X177688037Y-111490537D01*
X177540837Y-111669899D01*
X177385437Y-111484685D01*
X177142923Y-111290031D01*
X176867094Y-111146429D01*
X176648980Y-111075437D01*
X176403000Y-111195406D01*
X176149000Y-111195406D01*
X175903020Y-111075437D01*
X175684906Y-111146429D01*
X175409077Y-111290031D01*
X175166563Y-111484685D01*
X174966684Y-111722911D01*
X174817121Y-111995554D01*
X174723622Y-112292137D01*
X167198572Y-112292137D01*
X167198572Y-111666000D01*
X167186312Y-111541518D01*
X167150002Y-111421820D01*
X167091037Y-111311506D01*
X167011685Y-111214815D01*
X166914994Y-111135463D01*
X166804680Y-111076498D01*
X166684982Y-111040188D01*
X166560500Y-111027928D01*
X164655500Y-111027928D01*
X164531018Y-111040188D01*
X164411320Y-111076498D01*
X164301006Y-111135463D01*
X164204315Y-111214815D01*
X164124963Y-111311506D01*
X164080095Y-111395446D01*
X163954235Y-111292155D01*
X163678449Y-111144745D01*
X163379204Y-111053970D01*
X163068000Y-111023319D01*
X162756797Y-111053970D01*
X162457552Y-111144745D01*
X162181766Y-111292155D01*
X161940037Y-111490537D01*
X161792837Y-111669899D01*
X161637437Y-111484685D01*
X161394923Y-111290031D01*
X161119094Y-111146429D01*
X160900980Y-111075437D01*
X160655000Y-111195406D01*
X160401000Y-111195406D01*
X160155020Y-111075437D01*
X159936906Y-111146429D01*
X159661077Y-111290031D01*
X159418563Y-111484685D01*
X159218684Y-111722911D01*
X159069121Y-111995554D01*
X158975622Y-112292137D01*
X119835000Y-112292137D01*
X119835000Y-111622285D01*
X119687623Y-110881372D01*
X119398533Y-110183446D01*
X118978839Y-109555330D01*
X118444670Y-109021161D01*
X117816554Y-108601467D01*
X117118628Y-108312377D01*
X116377715Y-108165000D01*
X115622285Y-108165000D01*
X114881372Y-108312377D01*
X114183446Y-108601467D01*
X113555330Y-109021161D01*
X113021161Y-109555330D01*
X112601467Y-110183446D01*
X112312377Y-110881372D01*
X112165000Y-111622285D01*
X111685000Y-111622285D01*
X111685000Y-105980600D01*
X135844648Y-105980600D01*
X135856908Y-106105082D01*
X135893218Y-106224780D01*
X135952183Y-106335094D01*
X136031535Y-106431785D01*
X136128226Y-106511137D01*
X136238540Y-106570102D01*
X136358238Y-106606412D01*
X136482720Y-106618672D01*
X137046970Y-106615600D01*
X137205720Y-106456850D01*
X137205720Y-105257600D01*
X136006470Y-105257600D01*
X135847720Y-105416350D01*
X135844648Y-105980600D01*
X111685000Y-105980600D01*
X111685000Y-104280600D01*
X135844648Y-104280600D01*
X135847720Y-104844850D01*
X136006470Y-105003600D01*
X137205720Y-105003600D01*
X137205720Y-103804350D01*
X137459720Y-103804350D01*
X137459720Y-105003600D01*
X137479720Y-105003600D01*
X137479720Y-105257600D01*
X137459720Y-105257600D01*
X137459720Y-106456850D01*
X137618470Y-106615600D01*
X138182720Y-106618672D01*
X138307202Y-106606412D01*
X138426900Y-106570102D01*
X138537214Y-106511137D01*
X138633905Y-106431785D01*
X138713257Y-106335094D01*
X138772222Y-106224780D01*
X138794233Y-106152220D01*
X138926088Y-106284075D01*
X139169309Y-106446590D01*
X139439562Y-106558532D01*
X139726460Y-106615600D01*
X140018980Y-106615600D01*
X140305878Y-106558532D01*
X140576131Y-106446590D01*
X140819352Y-106284075D01*
X141026195Y-106077232D01*
X141142720Y-105902840D01*
X141259245Y-106077232D01*
X141466088Y-106284075D01*
X141709309Y-106446590D01*
X141979562Y-106558532D01*
X142266460Y-106615600D01*
X142558980Y-106615600D01*
X142845878Y-106558532D01*
X143116131Y-106446590D01*
X143359352Y-106284075D01*
X143566195Y-106077232D01*
X143682720Y-105902840D01*
X143799245Y-106077232D01*
X144006088Y-106284075D01*
X144249309Y-106446590D01*
X144519562Y-106558532D01*
X144806460Y-106615600D01*
X145098980Y-106615600D01*
X145385878Y-106558532D01*
X145656131Y-106446590D01*
X145899352Y-106284075D01*
X146106195Y-106077232D01*
X146268710Y-105834011D01*
X146380652Y-105563758D01*
X146437720Y-105276860D01*
X146437720Y-104984340D01*
X146380652Y-104697442D01*
X146268710Y-104427189D01*
X146106195Y-104183968D01*
X145899352Y-103977125D01*
X145656131Y-103814610D01*
X145385878Y-103702668D01*
X145098980Y-103645600D01*
X144806460Y-103645600D01*
X144519562Y-103702668D01*
X144249309Y-103814610D01*
X144006088Y-103977125D01*
X143799245Y-104183968D01*
X143682720Y-104358360D01*
X143566195Y-104183968D01*
X143359352Y-103977125D01*
X143116131Y-103814610D01*
X142845878Y-103702668D01*
X142558980Y-103645600D01*
X142266460Y-103645600D01*
X141979562Y-103702668D01*
X141709309Y-103814610D01*
X141466088Y-103977125D01*
X141259245Y-104183968D01*
X141257720Y-104186250D01*
X141257720Y-92971589D01*
X141309000Y-92971589D01*
X141309000Y-93244411D01*
X141362225Y-93511989D01*
X141466629Y-93764043D01*
X141618201Y-93990886D01*
X141811114Y-94183799D01*
X142037957Y-94335371D01*
X142290011Y-94439775D01*
X142557589Y-94493000D01*
X142830411Y-94493000D01*
X143097989Y-94439775D01*
X143350043Y-94335371D01*
X143576886Y-94183799D01*
X143769799Y-93990886D01*
X143921371Y-93764043D01*
X144025775Y-93511989D01*
X144079000Y-93244411D01*
X144079000Y-92971589D01*
X146189000Y-92971589D01*
X146189000Y-93244411D01*
X146242225Y-93511989D01*
X146346629Y-93764043D01*
X146498201Y-93990886D01*
X146691114Y-94183799D01*
X146917957Y-94335371D01*
X147170011Y-94439775D01*
X147437589Y-94493000D01*
X147710411Y-94493000D01*
X147977989Y-94439775D01*
X148076643Y-94398911D01*
X186884000Y-94398911D01*
X186884000Y-94583089D01*
X186919932Y-94763729D01*
X186990414Y-94933889D01*
X187092738Y-95087028D01*
X187222972Y-95217262D01*
X187376111Y-95319586D01*
X187546271Y-95390068D01*
X187726911Y-95426000D01*
X187911089Y-95426000D01*
X188091729Y-95390068D01*
X188125692Y-95376000D01*
X196596422Y-95376000D01*
X198733470Y-97513049D01*
X198761183Y-97546817D01*
X198794951Y-97574530D01*
X198794953Y-97574532D01*
X198866452Y-97633210D01*
X198895941Y-97657411D01*
X199049687Y-97739589D01*
X199216510Y-97790195D01*
X199346523Y-97803000D01*
X199346533Y-97803000D01*
X199389999Y-97807281D01*
X199433465Y-97803000D01*
X200607308Y-97803000D01*
X200641271Y-97817068D01*
X200821911Y-97853000D01*
X201006089Y-97853000D01*
X201186729Y-97817068D01*
X201356889Y-97746586D01*
X201510028Y-97644262D01*
X201640262Y-97514028D01*
X201742586Y-97360889D01*
X201813068Y-97190729D01*
X201849000Y-97010089D01*
X201849000Y-96825911D01*
X201813068Y-96645271D01*
X201742586Y-96475111D01*
X201640262Y-96321972D01*
X201510028Y-96191738D01*
X201356889Y-96089414D01*
X201186729Y-96018932D01*
X201006089Y-95983000D01*
X200821911Y-95983000D01*
X200641271Y-96018932D01*
X200607308Y-96033000D01*
X199756579Y-96033000D01*
X197619534Y-93895956D01*
X197591817Y-93862183D01*
X197457059Y-93751589D01*
X197303313Y-93669411D01*
X197136490Y-93618805D01*
X197006477Y-93606000D01*
X197006469Y-93606000D01*
X196963000Y-93601719D01*
X196919531Y-93606000D01*
X188125692Y-93606000D01*
X188091729Y-93591932D01*
X187911089Y-93556000D01*
X187726911Y-93556000D01*
X187546271Y-93591932D01*
X187376111Y-93662414D01*
X187222972Y-93764738D01*
X187092738Y-93894972D01*
X186990414Y-94048111D01*
X186919932Y-94218271D01*
X186884000Y-94398911D01*
X148076643Y-94398911D01*
X148230043Y-94335371D01*
X148456886Y-94183799D01*
X148649799Y-93990886D01*
X148801371Y-93764043D01*
X148905775Y-93511989D01*
X148959000Y-93244411D01*
X148959000Y-92971589D01*
X148905775Y-92704011D01*
X148801371Y-92451957D01*
X148649799Y-92225114D01*
X148456886Y-92032201D01*
X148230043Y-91880629D01*
X147977989Y-91776225D01*
X147710411Y-91723000D01*
X147437589Y-91723000D01*
X147170011Y-91776225D01*
X146917957Y-91880629D01*
X146691114Y-92032201D01*
X146498201Y-92225114D01*
X146346629Y-92451957D01*
X146242225Y-92704011D01*
X146189000Y-92971589D01*
X144079000Y-92971589D01*
X144025775Y-92704011D01*
X143921371Y-92451957D01*
X143769799Y-92225114D01*
X143576886Y-92032201D01*
X143350043Y-91880629D01*
X143097989Y-91776225D01*
X142830411Y-91723000D01*
X142557589Y-91723000D01*
X142290011Y-91776225D01*
X142037957Y-91880629D01*
X141811114Y-92032201D01*
X141618201Y-92225114D01*
X141466629Y-92451957D01*
X141362225Y-92704011D01*
X141309000Y-92971589D01*
X141257720Y-92971589D01*
X141257720Y-89448965D01*
X141500774Y-89205911D01*
X155275000Y-89205911D01*
X155275000Y-89390089D01*
X155310932Y-89570729D01*
X155381414Y-89740889D01*
X155483738Y-89894028D01*
X155613972Y-90024262D01*
X155767111Y-90126586D01*
X155937271Y-90197068D01*
X156117911Y-90233000D01*
X156302089Y-90233000D01*
X156482729Y-90197068D01*
X156652889Y-90126586D01*
X156806028Y-90024262D01*
X156936262Y-89894028D01*
X157038586Y-89740889D01*
X157109068Y-89570729D01*
X157145000Y-89390089D01*
X157145000Y-89205911D01*
X157109068Y-89025271D01*
X157095000Y-88991308D01*
X157095000Y-79250578D01*
X159116579Y-77229000D01*
X161435591Y-77229000D01*
X161423183Y-77239183D01*
X161312589Y-77373941D01*
X161230411Y-77527687D01*
X161179805Y-77694510D01*
X161162718Y-77868000D01*
X161167000Y-77911477D01*
X161167001Y-88483305D01*
X161152932Y-88517271D01*
X161117000Y-88697911D01*
X161117000Y-88882089D01*
X161152932Y-89062729D01*
X161223414Y-89232889D01*
X161325738Y-89386028D01*
X161455972Y-89516262D01*
X161609111Y-89618586D01*
X161779271Y-89689068D01*
X161959911Y-89725000D01*
X162144089Y-89725000D01*
X162324729Y-89689068D01*
X162494889Y-89618586D01*
X162648028Y-89516262D01*
X162778262Y-89386028D01*
X162880586Y-89232889D01*
X162951068Y-89062729D01*
X162987000Y-88882089D01*
X162987000Y-88697911D01*
X162951068Y-88517271D01*
X162937000Y-88483308D01*
X162937000Y-87000000D01*
X189665928Y-87000000D01*
X189665928Y-89000000D01*
X189678188Y-89124482D01*
X189714498Y-89244180D01*
X189773463Y-89354494D01*
X189852815Y-89451185D01*
X189949506Y-89530537D01*
X190059820Y-89589502D01*
X190179518Y-89625812D01*
X190304000Y-89638072D01*
X193504000Y-89638072D01*
X193628482Y-89625812D01*
X193748180Y-89589502D01*
X193858494Y-89530537D01*
X193955185Y-89451185D01*
X194034537Y-89354494D01*
X194093502Y-89244180D01*
X194129812Y-89124482D01*
X194142072Y-89000000D01*
X194142072Y-87000000D01*
X194129812Y-86875518D01*
X194093502Y-86755820D01*
X194034537Y-86645506D01*
X193955185Y-86548815D01*
X193858494Y-86469463D01*
X193748180Y-86410498D01*
X193628482Y-86374188D01*
X193504000Y-86361928D01*
X190304000Y-86361928D01*
X190179518Y-86374188D01*
X190059820Y-86410498D01*
X189949506Y-86469463D01*
X189852815Y-86548815D01*
X189773463Y-86645506D01*
X189714498Y-86755820D01*
X189678188Y-86875518D01*
X189665928Y-87000000D01*
X162937000Y-87000000D01*
X162937000Y-84738967D01*
X182769000Y-84738967D01*
X182769000Y-85061033D01*
X182831832Y-85376912D01*
X182955082Y-85674463D01*
X183134013Y-85942252D01*
X183361748Y-86169987D01*
X183629537Y-86348918D01*
X183927088Y-86472168D01*
X184242967Y-86535000D01*
X184565033Y-86535000D01*
X184880912Y-86472168D01*
X185178463Y-86348918D01*
X185446252Y-86169987D01*
X185673987Y-85942252D01*
X185852918Y-85674463D01*
X185976168Y-85376912D01*
X186039000Y-85061033D01*
X186039000Y-84738967D01*
X197269000Y-84738967D01*
X197269000Y-85061033D01*
X197331832Y-85376912D01*
X197455082Y-85674463D01*
X197634013Y-85942252D01*
X197861748Y-86169987D01*
X198129537Y-86348918D01*
X198427088Y-86472168D01*
X198742967Y-86535000D01*
X199065033Y-86535000D01*
X199380912Y-86472168D01*
X199678463Y-86348918D01*
X199946252Y-86169987D01*
X200173987Y-85942252D01*
X200352918Y-85674463D01*
X200476168Y-85376912D01*
X200539000Y-85061033D01*
X200539000Y-84738967D01*
X200476168Y-84423088D01*
X200352918Y-84125537D01*
X200173987Y-83857748D01*
X199946252Y-83630013D01*
X199678463Y-83451082D01*
X199380912Y-83327832D01*
X199065033Y-83265000D01*
X198742967Y-83265000D01*
X198427088Y-83327832D01*
X198129537Y-83451082D01*
X197861748Y-83630013D01*
X197634013Y-83857748D01*
X197455082Y-84125537D01*
X197331832Y-84423088D01*
X197269000Y-84738967D01*
X186039000Y-84738967D01*
X185976168Y-84423088D01*
X185852918Y-84125537D01*
X185673987Y-83857748D01*
X185446252Y-83630013D01*
X185349065Y-83565075D01*
X185359808Y-83535413D01*
X184404000Y-82579605D01*
X183448192Y-83535413D01*
X183458935Y-83565075D01*
X183361748Y-83630013D01*
X183134013Y-83857748D01*
X182955082Y-84125537D01*
X182831832Y-84423088D01*
X182769000Y-84738967D01*
X162937000Y-84738967D01*
X162937000Y-82462595D01*
X182762282Y-82462595D01*
X182806039Y-82781675D01*
X182911205Y-83086088D01*
X183004186Y-83260044D01*
X183268587Y-83355808D01*
X184224395Y-82400000D01*
X184210253Y-82385858D01*
X184389858Y-82206253D01*
X184404000Y-82220395D01*
X184418143Y-82206253D01*
X184597748Y-82385858D01*
X184583605Y-82400000D01*
X185539413Y-83355808D01*
X185803814Y-83260044D01*
X185944704Y-82970429D01*
X186026384Y-82658892D01*
X186045718Y-82337405D01*
X186001961Y-82018325D01*
X185896795Y-81713912D01*
X185803814Y-81539956D01*
X185654777Y-81485976D01*
X185758494Y-81430537D01*
X185855185Y-81351185D01*
X185934537Y-81254494D01*
X185993502Y-81144180D01*
X186026496Y-81035413D01*
X197948192Y-81035413D01*
X198043956Y-81299814D01*
X198333571Y-81440704D01*
X198645108Y-81522384D01*
X198966595Y-81541718D01*
X199285675Y-81497961D01*
X199590088Y-81392795D01*
X199764044Y-81299814D01*
X199859808Y-81035413D01*
X198904000Y-80079605D01*
X197948192Y-81035413D01*
X186026496Y-81035413D01*
X186029812Y-81024482D01*
X186042072Y-80900000D01*
X186042072Y-79962595D01*
X197262282Y-79962595D01*
X197306039Y-80281675D01*
X197411205Y-80586088D01*
X197504186Y-80760044D01*
X197768587Y-80855808D01*
X198724395Y-79900000D01*
X199083605Y-79900000D01*
X200039413Y-80855808D01*
X200303814Y-80760044D01*
X200444704Y-80470429D01*
X200526384Y-80158892D01*
X200545718Y-79837405D01*
X200501961Y-79518325D01*
X200396795Y-79213912D01*
X200303814Y-79039956D01*
X200039413Y-78944192D01*
X199083605Y-79900000D01*
X198724395Y-79900000D01*
X197768587Y-78944192D01*
X197504186Y-79039956D01*
X197363296Y-79329571D01*
X197281616Y-79641108D01*
X197262282Y-79962595D01*
X186042072Y-79962595D01*
X186042072Y-78900000D01*
X186029812Y-78775518D01*
X186026497Y-78764587D01*
X197948192Y-78764587D01*
X198904000Y-79720395D01*
X199859808Y-78764587D01*
X199764044Y-78500186D01*
X199474429Y-78359296D01*
X199162892Y-78277616D01*
X198841405Y-78258282D01*
X198522325Y-78302039D01*
X198217912Y-78407205D01*
X198043956Y-78500186D01*
X197948192Y-78764587D01*
X186026497Y-78764587D01*
X185993502Y-78655820D01*
X185934537Y-78545506D01*
X185855185Y-78448815D01*
X185758494Y-78369463D01*
X185648180Y-78310498D01*
X185528482Y-78274188D01*
X185404000Y-78261928D01*
X183404000Y-78261928D01*
X183279518Y-78274188D01*
X183159820Y-78310498D01*
X183049506Y-78369463D01*
X182952815Y-78448815D01*
X182873463Y-78545506D01*
X182814498Y-78655820D01*
X182778188Y-78775518D01*
X182765928Y-78900000D01*
X182765928Y-80900000D01*
X182778188Y-81024482D01*
X182814498Y-81144180D01*
X182873463Y-81254494D01*
X182952815Y-81351185D01*
X183049506Y-81430537D01*
X183153223Y-81485976D01*
X183004186Y-81539956D01*
X182863296Y-81829571D01*
X182781616Y-82141108D01*
X182762282Y-82462595D01*
X162937000Y-82462595D01*
X162937000Y-78753000D01*
X182088531Y-78753000D01*
X182132000Y-78757281D01*
X182175469Y-78753000D01*
X182175477Y-78753000D01*
X182305490Y-78740195D01*
X182472313Y-78689589D01*
X182626059Y-78607411D01*
X182760817Y-78496817D01*
X182788534Y-78463044D01*
X185451578Y-75800000D01*
X189665928Y-75800000D01*
X189665928Y-77800000D01*
X189678188Y-77924482D01*
X189714498Y-78044180D01*
X189773463Y-78154494D01*
X189852815Y-78251185D01*
X189949506Y-78330537D01*
X190059820Y-78389502D01*
X190179518Y-78425812D01*
X190304000Y-78438072D01*
X193504000Y-78438072D01*
X193628482Y-78425812D01*
X193748180Y-78389502D01*
X193858494Y-78330537D01*
X193955185Y-78251185D01*
X194034537Y-78154494D01*
X194093502Y-78044180D01*
X194129812Y-77924482D01*
X194142072Y-77800000D01*
X194142072Y-75800000D01*
X194129812Y-75675518D01*
X194093502Y-75555820D01*
X194034537Y-75445506D01*
X193955185Y-75348815D01*
X193858494Y-75269463D01*
X193748180Y-75210498D01*
X193628482Y-75174188D01*
X193504000Y-75161928D01*
X190304000Y-75161928D01*
X190179518Y-75174188D01*
X190059820Y-75210498D01*
X189949506Y-75269463D01*
X189852815Y-75348815D01*
X189773463Y-75445506D01*
X189714498Y-75555820D01*
X189678188Y-75675518D01*
X189665928Y-75800000D01*
X185451578Y-75800000D01*
X190808925Y-70442654D01*
X190842889Y-70428586D01*
X190996028Y-70326262D01*
X191126262Y-70196028D01*
X191228586Y-70042889D01*
X191299068Y-69872729D01*
X191335000Y-69692089D01*
X191335000Y-69507911D01*
X191299068Y-69327271D01*
X191228586Y-69157111D01*
X191126262Y-69003972D01*
X190996028Y-68873738D01*
X190842889Y-68771414D01*
X190672729Y-68700932D01*
X190492089Y-68665000D01*
X190307911Y-68665000D01*
X190127271Y-68700932D01*
X189957111Y-68771414D01*
X189803972Y-68873738D01*
X189673738Y-69003972D01*
X189571414Y-69157111D01*
X189557346Y-69191075D01*
X181765422Y-76983000D01*
X179520409Y-76983000D01*
X179532817Y-76972817D01*
X179560534Y-76939044D01*
X181156924Y-75342654D01*
X181190889Y-75328586D01*
X181344028Y-75226262D01*
X181474262Y-75096028D01*
X181576586Y-74942889D01*
X181647068Y-74772729D01*
X181683000Y-74592089D01*
X181683000Y-74407911D01*
X181647068Y-74227271D01*
X181576586Y-74057111D01*
X181474262Y-73903972D01*
X181344028Y-73773738D01*
X181190889Y-73671414D01*
X181020729Y-73600932D01*
X180840089Y-73565000D01*
X180655911Y-73565000D01*
X180475271Y-73600932D01*
X180305111Y-73671414D01*
X180151972Y-73773738D01*
X180021738Y-73903972D01*
X179919414Y-74057111D01*
X179905346Y-74091076D01*
X178537422Y-75459000D01*
X158793465Y-75459000D01*
X158774953Y-75457177D01*
X158774953Y-74417700D01*
X156693048Y-74417700D01*
X156693048Y-77149374D01*
X155614956Y-78227466D01*
X155581183Y-78255183D01*
X155470589Y-78389942D01*
X155388411Y-78543688D01*
X155337805Y-78710511D01*
X155325000Y-78840524D01*
X155325000Y-78840531D01*
X155320719Y-78884000D01*
X155325000Y-78927469D01*
X155325001Y-88991305D01*
X155310932Y-89025271D01*
X155275000Y-89205911D01*
X141500774Y-89205911D01*
X158665241Y-72041445D01*
X158718080Y-71998081D01*
X158761445Y-71945241D01*
X158761452Y-71945234D01*
X158891156Y-71787189D01*
X158891157Y-71787188D01*
X159019764Y-71546581D01*
X159098960Y-71285507D01*
X159119000Y-71082037D01*
X159119000Y-71082028D01*
X159125700Y-71014001D01*
X159119000Y-70945974D01*
X159119000Y-69395929D01*
X159273731Y-69567588D01*
X159507080Y-69741641D01*
X159769901Y-69866825D01*
X159917110Y-69911476D01*
X160147000Y-69790155D01*
X160147000Y-68597000D01*
X160127000Y-68597000D01*
X160127000Y-68343000D01*
X160147000Y-68343000D01*
X160147000Y-67149845D01*
X160401000Y-67149845D01*
X160401000Y-68343000D01*
X160421000Y-68343000D01*
X160421000Y-68597000D01*
X160401000Y-68597000D01*
X160401000Y-69790155D01*
X160630890Y-69911476D01*
X160778099Y-69866825D01*
X161040920Y-69741641D01*
X161274269Y-69567588D01*
X161469178Y-69351355D01*
X161538805Y-69234466D01*
X161660525Y-69416632D01*
X161867368Y-69623475D01*
X162110589Y-69785990D01*
X162380842Y-69897932D01*
X162667740Y-69955000D01*
X162960260Y-69955000D01*
X163247158Y-69897932D01*
X163517411Y-69785990D01*
X163760632Y-69623475D01*
X163967475Y-69416632D01*
X164084000Y-69242240D01*
X164200525Y-69416632D01*
X164407368Y-69623475D01*
X164650589Y-69785990D01*
X164920842Y-69897932D01*
X165207740Y-69955000D01*
X165500260Y-69955000D01*
X165787158Y-69897932D01*
X166057411Y-69785990D01*
X166300632Y-69623475D01*
X166507475Y-69416632D01*
X166669990Y-69173411D01*
X166781932Y-68903158D01*
X166839000Y-68616260D01*
X166839000Y-68323740D01*
X166781932Y-68036842D01*
X166669990Y-67766589D01*
X166507475Y-67523368D01*
X166300632Y-67316525D01*
X166057411Y-67154010D01*
X165787158Y-67042068D01*
X165500260Y-66985000D01*
X165207740Y-66985000D01*
X164920842Y-67042068D01*
X164650589Y-67154010D01*
X164407368Y-67316525D01*
X164200525Y-67523368D01*
X164084000Y-67697760D01*
X163967475Y-67523368D01*
X163760632Y-67316525D01*
X163517411Y-67154010D01*
X163247158Y-67042068D01*
X162960260Y-66985000D01*
X162667740Y-66985000D01*
X162380842Y-67042068D01*
X162110589Y-67154010D01*
X161867368Y-67316525D01*
X161660525Y-67523368D01*
X161538805Y-67705534D01*
X161469178Y-67588645D01*
X161274269Y-67372412D01*
X161040920Y-67198359D01*
X160778099Y-67073175D01*
X160630890Y-67028524D01*
X160401000Y-67149845D01*
X160147000Y-67149845D01*
X159917110Y-67028524D01*
X159769901Y-67073175D01*
X159507080Y-67198359D01*
X159273731Y-67372412D01*
X159078822Y-67588645D01*
X159009195Y-67705534D01*
X158887475Y-67523368D01*
X158680632Y-67316525D01*
X158437411Y-67154010D01*
X158167158Y-67042068D01*
X157880260Y-66985000D01*
X157587740Y-66985000D01*
X157300842Y-67042068D01*
X157030589Y-67154010D01*
X156787368Y-67316525D01*
X156655513Y-67448380D01*
X156633502Y-67375820D01*
X156574537Y-67265506D01*
X156495185Y-67168815D01*
X156398494Y-67089463D01*
X156288180Y-67030498D01*
X156168482Y-66994188D01*
X156044000Y-66981928D01*
X154344000Y-66981928D01*
X154219518Y-66994188D01*
X154099820Y-67030498D01*
X153989506Y-67089463D01*
X153892815Y-67168815D01*
X153813463Y-67265506D01*
X153754498Y-67375820D01*
X153718188Y-67495518D01*
X153705928Y-67620000D01*
X153705928Y-69320000D01*
X153718188Y-69444482D01*
X153754498Y-69564180D01*
X153813463Y-69674494D01*
X153892815Y-69771185D01*
X153989506Y-69850537D01*
X154099820Y-69909502D01*
X154219518Y-69945812D01*
X154344000Y-69958072D01*
X156044000Y-69958072D01*
X156168482Y-69945812D01*
X156288180Y-69909502D01*
X156349000Y-69876992D01*
X156349000Y-70440314D01*
X138941485Y-87847830D01*
X138888640Y-87891199D01*
X138845271Y-87944044D01*
X138845268Y-87944047D01*
X138715564Y-88102092D01*
X138586956Y-88342700D01*
X138507760Y-88603773D01*
X138481020Y-88875280D01*
X138487721Y-88943319D01*
X138487720Y-103723608D01*
X138426900Y-103691098D01*
X138307202Y-103654788D01*
X138182720Y-103642528D01*
X137618470Y-103645600D01*
X137459720Y-103804350D01*
X137205720Y-103804350D01*
X137046970Y-103645600D01*
X136482720Y-103642528D01*
X136358238Y-103654788D01*
X136238540Y-103691098D01*
X136128226Y-103750063D01*
X136031535Y-103829415D01*
X135952183Y-103926106D01*
X135893218Y-104036420D01*
X135856908Y-104156118D01*
X135844648Y-104280600D01*
X111685000Y-104280600D01*
X111685000Y-94169000D01*
X119152114Y-94169000D01*
X119171615Y-94366994D01*
X119229368Y-94557380D01*
X119323153Y-94732840D01*
X119449367Y-94886633D01*
X119603160Y-95012847D01*
X119778620Y-95106632D01*
X119969006Y-95164385D01*
X120117392Y-95179000D01*
X133029392Y-95179000D01*
X133079000Y-95183886D01*
X133276994Y-95164385D01*
X133467380Y-95106632D01*
X133642840Y-95012847D01*
X133796633Y-94886633D01*
X133828261Y-94848094D01*
X137497256Y-91179100D01*
X137591846Y-91063841D01*
X137685632Y-90888380D01*
X137743385Y-90697995D01*
X137762886Y-90500000D01*
X137743385Y-90302005D01*
X137685632Y-90111620D01*
X137591846Y-89936160D01*
X137465633Y-89782367D01*
X137311840Y-89656154D01*
X137136380Y-89562368D01*
X136945995Y-89504615D01*
X136748000Y-89485114D01*
X136550005Y-89504615D01*
X136359620Y-89562368D01*
X136184159Y-89656154D01*
X136068900Y-89750744D01*
X132660645Y-93159000D01*
X120117392Y-93159000D01*
X119969006Y-93173615D01*
X119778620Y-93231368D01*
X119603160Y-93325153D01*
X119449367Y-93451367D01*
X119323153Y-93605160D01*
X119229368Y-93780620D01*
X119171615Y-93971006D01*
X119152114Y-94169000D01*
X111685000Y-94169000D01*
X111685000Y-90000000D01*
X116733114Y-90000000D01*
X116752615Y-90197994D01*
X116810368Y-90388379D01*
X116904154Y-90563840D01*
X116998744Y-90679099D01*
X119113744Y-92794100D01*
X119145367Y-92832633D01*
X119299160Y-92958847D01*
X119322999Y-92971589D01*
X119474620Y-93052632D01*
X119665005Y-93110385D01*
X119863000Y-93129886D01*
X119912608Y-93125000D01*
X124182608Y-93125000D01*
X124330994Y-93110385D01*
X124521380Y-93052632D01*
X124696840Y-92958847D01*
X124850633Y-92832633D01*
X124976847Y-92678840D01*
X125070632Y-92503380D01*
X125128385Y-92312994D01*
X125147886Y-92115000D01*
X125128385Y-91917006D01*
X125070632Y-91726620D01*
X124976847Y-91551160D01*
X124850633Y-91397367D01*
X124696840Y-91271153D01*
X124521380Y-91177368D01*
X124330994Y-91119615D01*
X124182608Y-91105000D01*
X120281356Y-91105000D01*
X118427099Y-89250744D01*
X118311840Y-89156154D01*
X118136379Y-89062368D01*
X117945994Y-89004615D01*
X117748000Y-88985114D01*
X117550006Y-89004615D01*
X117359621Y-89062368D01*
X117184160Y-89156154D01*
X117030368Y-89282368D01*
X116904154Y-89436160D01*
X116810368Y-89611621D01*
X116752615Y-89802006D01*
X116733114Y-90000000D01*
X111685000Y-90000000D01*
X111685000Y-60813740D01*
X125515000Y-60813740D01*
X125515000Y-61106260D01*
X125572068Y-61393158D01*
X125684010Y-61663411D01*
X125846525Y-61906632D01*
X126053368Y-62113475D01*
X126296589Y-62275990D01*
X126566842Y-62387932D01*
X126853740Y-62445000D01*
X127146260Y-62445000D01*
X127433158Y-62387932D01*
X127703411Y-62275990D01*
X127946632Y-62113475D01*
X128153475Y-61906632D01*
X128275195Y-61724466D01*
X128344822Y-61841355D01*
X128539731Y-62057588D01*
X128773080Y-62231641D01*
X129035901Y-62356825D01*
X129183110Y-62401476D01*
X129413000Y-62280155D01*
X129413000Y-61087000D01*
X129393000Y-61087000D01*
X129393000Y-60833000D01*
X129413000Y-60833000D01*
X129413000Y-59639845D01*
X129667000Y-59639845D01*
X129667000Y-60833000D01*
X129687000Y-60833000D01*
X129687000Y-61087000D01*
X129667000Y-61087000D01*
X129667000Y-62280155D01*
X129896890Y-62401476D01*
X130044099Y-62356825D01*
X130306920Y-62231641D01*
X130540269Y-62057588D01*
X130616034Y-61973534D01*
X130640498Y-62054180D01*
X130699463Y-62164494D01*
X130778815Y-62261185D01*
X130875506Y-62340537D01*
X130985820Y-62399502D01*
X131105518Y-62435812D01*
X131230000Y-62448072D01*
X132930000Y-62448072D01*
X133054482Y-62435812D01*
X133174180Y-62399502D01*
X133284494Y-62340537D01*
X133381185Y-62261185D01*
X133460537Y-62164494D01*
X133519502Y-62054180D01*
X133555812Y-61934482D01*
X133568072Y-61810000D01*
X133568072Y-60762000D01*
X170215928Y-60762000D01*
X170215928Y-62462000D01*
X170228188Y-62586482D01*
X170264498Y-62706180D01*
X170323463Y-62816494D01*
X170402815Y-62913185D01*
X170499506Y-62992537D01*
X170609820Y-63051502D01*
X170729518Y-63087812D01*
X170854000Y-63100072D01*
X172554000Y-63100072D01*
X172678482Y-63087812D01*
X172798180Y-63051502D01*
X172908494Y-62992537D01*
X173005185Y-62913185D01*
X173084537Y-62816494D01*
X173143502Y-62706180D01*
X173165513Y-62633620D01*
X173297368Y-62765475D01*
X173540589Y-62927990D01*
X173810842Y-63039932D01*
X174097740Y-63097000D01*
X174390260Y-63097000D01*
X174677158Y-63039932D01*
X174947411Y-62927990D01*
X175190632Y-62765475D01*
X175397475Y-62558632D01*
X175514000Y-62384240D01*
X175630525Y-62558632D01*
X175837368Y-62765475D01*
X176080589Y-62927990D01*
X176350842Y-63039932D01*
X176637740Y-63097000D01*
X176930260Y-63097000D01*
X177217158Y-63039932D01*
X177487411Y-62927990D01*
X177730632Y-62765475D01*
X177937475Y-62558632D01*
X178054000Y-62384240D01*
X178170525Y-62558632D01*
X178377368Y-62765475D01*
X178620589Y-62927990D01*
X178890842Y-63039932D01*
X179177740Y-63097000D01*
X179470260Y-63097000D01*
X179757158Y-63039932D01*
X180027411Y-62927990D01*
X180270632Y-62765475D01*
X180477475Y-62558632D01*
X180599195Y-62376466D01*
X180668822Y-62493355D01*
X180863731Y-62709588D01*
X181097080Y-62883641D01*
X181359901Y-63008825D01*
X181507110Y-63053476D01*
X181737000Y-62932155D01*
X181737000Y-61739000D01*
X181991000Y-61739000D01*
X181991000Y-62932155D01*
X182220890Y-63053476D01*
X182368099Y-63008825D01*
X182630920Y-62883641D01*
X182864269Y-62709588D01*
X183059178Y-62493355D01*
X183208157Y-62243252D01*
X183305481Y-61968891D01*
X183184814Y-61739000D01*
X181991000Y-61739000D01*
X181737000Y-61739000D01*
X181717000Y-61739000D01*
X181717000Y-61485000D01*
X181737000Y-61485000D01*
X181737000Y-60291845D01*
X181991000Y-60291845D01*
X181991000Y-61485000D01*
X183184814Y-61485000D01*
X183305481Y-61255109D01*
X183208157Y-60980748D01*
X183059178Y-60730645D01*
X182864269Y-60514412D01*
X182630920Y-60340359D01*
X182368099Y-60215175D01*
X182220890Y-60170524D01*
X181991000Y-60291845D01*
X181737000Y-60291845D01*
X181507110Y-60170524D01*
X181359901Y-60215175D01*
X181097080Y-60340359D01*
X180863731Y-60514412D01*
X180668822Y-60730645D01*
X180599195Y-60847534D01*
X180477475Y-60665368D01*
X180270632Y-60458525D01*
X180027411Y-60296010D01*
X179757158Y-60184068D01*
X179470260Y-60127000D01*
X179177740Y-60127000D01*
X178890842Y-60184068D01*
X178620589Y-60296010D01*
X178377368Y-60458525D01*
X178170525Y-60665368D01*
X178054000Y-60839760D01*
X177937475Y-60665368D01*
X177730632Y-60458525D01*
X177487411Y-60296010D01*
X177217158Y-60184068D01*
X176930260Y-60127000D01*
X176637740Y-60127000D01*
X176350842Y-60184068D01*
X176080589Y-60296010D01*
X175837368Y-60458525D01*
X175630525Y-60665368D01*
X175514000Y-60839760D01*
X175397475Y-60665368D01*
X175190632Y-60458525D01*
X174947411Y-60296010D01*
X174677158Y-60184068D01*
X174390260Y-60127000D01*
X174097740Y-60127000D01*
X173810842Y-60184068D01*
X173540589Y-60296010D01*
X173297368Y-60458525D01*
X173165513Y-60590380D01*
X173143502Y-60517820D01*
X173084537Y-60407506D01*
X173005185Y-60310815D01*
X172908494Y-60231463D01*
X172798180Y-60172498D01*
X172678482Y-60136188D01*
X172554000Y-60123928D01*
X170854000Y-60123928D01*
X170729518Y-60136188D01*
X170609820Y-60172498D01*
X170499506Y-60231463D01*
X170402815Y-60310815D01*
X170323463Y-60407506D01*
X170264498Y-60517820D01*
X170228188Y-60637518D01*
X170215928Y-60762000D01*
X133568072Y-60762000D01*
X133568072Y-60110000D01*
X133555812Y-59985518D01*
X133519502Y-59865820D01*
X133460537Y-59755506D01*
X133381185Y-59658815D01*
X133284494Y-59579463D01*
X133174180Y-59520498D01*
X133054482Y-59484188D01*
X132930000Y-59471928D01*
X131230000Y-59471928D01*
X131105518Y-59484188D01*
X130985820Y-59520498D01*
X130875506Y-59579463D01*
X130778815Y-59658815D01*
X130699463Y-59755506D01*
X130640498Y-59865820D01*
X130616034Y-59946466D01*
X130540269Y-59862412D01*
X130306920Y-59688359D01*
X130044099Y-59563175D01*
X129896890Y-59518524D01*
X129667000Y-59639845D01*
X129413000Y-59639845D01*
X129183110Y-59518524D01*
X129035901Y-59563175D01*
X128773080Y-59688359D01*
X128539731Y-59862412D01*
X128344822Y-60078645D01*
X128275195Y-60195534D01*
X128153475Y-60013368D01*
X127946632Y-59806525D01*
X127703411Y-59644010D01*
X127433158Y-59532068D01*
X127146260Y-59475000D01*
X126853740Y-59475000D01*
X126566842Y-59532068D01*
X126296589Y-59644010D01*
X126053368Y-59806525D01*
X125846525Y-60013368D01*
X125684010Y-60256589D01*
X125572068Y-60526842D01*
X125515000Y-60813740D01*
X111685000Y-60813740D01*
X111685000Y-55622285D01*
X112165000Y-55622285D01*
X112165000Y-56377715D01*
X112312377Y-57118628D01*
X112601467Y-57816554D01*
X113021161Y-58444670D01*
X113555330Y-58978839D01*
X114183446Y-59398533D01*
X114881372Y-59687623D01*
X115622285Y-59835000D01*
X116377715Y-59835000D01*
X117118628Y-59687623D01*
X117816554Y-59398533D01*
X118444670Y-58978839D01*
X118978839Y-58444670D01*
X119398533Y-57816554D01*
X119687623Y-57118628D01*
X119832424Y-56390665D01*
X141313000Y-56390665D01*
X141313000Y-56673335D01*
X141368147Y-56950574D01*
X141476320Y-57211727D01*
X141633363Y-57446759D01*
X141833241Y-57646637D01*
X142068273Y-57803680D01*
X142329426Y-57911853D01*
X142606665Y-57967000D01*
X142889335Y-57967000D01*
X143166574Y-57911853D01*
X143427727Y-57803680D01*
X143662759Y-57646637D01*
X143862637Y-57446759D01*
X144019680Y-57211727D01*
X144127853Y-56950574D01*
X144183000Y-56673335D01*
X144183000Y-56390665D01*
X161633000Y-56390665D01*
X161633000Y-56673335D01*
X161688147Y-56950574D01*
X161796320Y-57211727D01*
X161953363Y-57446759D01*
X162153241Y-57646637D01*
X162388273Y-57803680D01*
X162649426Y-57911853D01*
X162926665Y-57967000D01*
X163209335Y-57967000D01*
X163486574Y-57911853D01*
X163747727Y-57803680D01*
X163982759Y-57646637D01*
X164182637Y-57446759D01*
X164339680Y-57211727D01*
X164447853Y-56950574D01*
X164503000Y-56673335D01*
X164503000Y-56390665D01*
X164447853Y-56113426D01*
X164339680Y-55852273D01*
X164186008Y-55622285D01*
X196165000Y-55622285D01*
X196165000Y-56377715D01*
X196312377Y-57118628D01*
X196601467Y-57816554D01*
X197021161Y-58444670D01*
X197555330Y-58978839D01*
X198183446Y-59398533D01*
X198881372Y-59687623D01*
X199622285Y-59835000D01*
X200377715Y-59835000D01*
X201118628Y-59687623D01*
X201816554Y-59398533D01*
X202444670Y-58978839D01*
X202978839Y-58444670D01*
X203398533Y-57816554D01*
X203687623Y-57118628D01*
X203835000Y-56377715D01*
X203835000Y-55622285D01*
X203687623Y-54881372D01*
X203398533Y-54183446D01*
X202978839Y-53555330D01*
X202444670Y-53021161D01*
X201816554Y-52601467D01*
X201118628Y-52312377D01*
X200377715Y-52165000D01*
X199622285Y-52165000D01*
X198881372Y-52312377D01*
X198183446Y-52601467D01*
X197555330Y-53021161D01*
X197021161Y-53555330D01*
X196601467Y-54183446D01*
X196312377Y-54881372D01*
X196165000Y-55622285D01*
X164186008Y-55622285D01*
X164182637Y-55617241D01*
X163982759Y-55417363D01*
X163747727Y-55260320D01*
X163486574Y-55152147D01*
X163209335Y-55097000D01*
X162926665Y-55097000D01*
X162649426Y-55152147D01*
X162388273Y-55260320D01*
X162153241Y-55417363D01*
X161953363Y-55617241D01*
X161796320Y-55852273D01*
X161688147Y-56113426D01*
X161633000Y-56390665D01*
X144183000Y-56390665D01*
X144127853Y-56113426D01*
X144019680Y-55852273D01*
X143862637Y-55617241D01*
X143662759Y-55417363D01*
X143427727Y-55260320D01*
X143166574Y-55152147D01*
X142889335Y-55097000D01*
X142606665Y-55097000D01*
X142329426Y-55152147D01*
X142068273Y-55260320D01*
X141833241Y-55417363D01*
X141633363Y-55617241D01*
X141476320Y-55852273D01*
X141368147Y-56113426D01*
X141313000Y-56390665D01*
X119832424Y-56390665D01*
X119835000Y-56377715D01*
X119835000Y-55622285D01*
X119687623Y-54881372D01*
X119398533Y-54183446D01*
X118978839Y-53555330D01*
X118444670Y-53021161D01*
X117816554Y-52601467D01*
X117118628Y-52312377D01*
X116377715Y-52165000D01*
X115622285Y-52165000D01*
X114881372Y-52312377D01*
X114183446Y-52601467D01*
X113555330Y-53021161D01*
X113021161Y-53555330D01*
X112601467Y-54183446D01*
X112312377Y-54881372D01*
X112165000Y-55622285D01*
X111685000Y-55622285D01*
X111685000Y-51739000D01*
X204315000Y-51739000D01*
X204315001Y-117315000D01*
G37*
X204315001Y-117315000D02*
X111685000Y-117315000D01*
X111685000Y-111622285D01*
X112165000Y-111622285D01*
X112165000Y-112377715D01*
X112312377Y-113118628D01*
X112601467Y-113816554D01*
X113021161Y-114444670D01*
X113555330Y-114978839D01*
X114183446Y-115398533D01*
X114881372Y-115687623D01*
X115622285Y-115835000D01*
X116377715Y-115835000D01*
X117118628Y-115687623D01*
X117816554Y-115398533D01*
X118444670Y-114978839D01*
X118978839Y-114444670D01*
X119398533Y-113816554D01*
X119687623Y-113118628D01*
X119703290Y-113039863D01*
X158975622Y-113039863D01*
X159069121Y-113336446D01*
X159218684Y-113609089D01*
X159418563Y-113847315D01*
X159661077Y-114041969D01*
X159936906Y-114185571D01*
X160155020Y-114256563D01*
X160401000Y-114136594D01*
X160401000Y-112793000D01*
X159102430Y-112793000D01*
X158975622Y-113039863D01*
X119703290Y-113039863D01*
X119835000Y-112377715D01*
X119835000Y-112292137D01*
X158975622Y-112292137D01*
X159102430Y-112539000D01*
X160401000Y-112539000D01*
X160401000Y-111195406D01*
X160655000Y-111195406D01*
X160655000Y-112539000D01*
X160675000Y-112539000D01*
X160675000Y-112793000D01*
X160655000Y-112793000D01*
X160655000Y-114136594D01*
X160900980Y-114256563D01*
X161119094Y-114185571D01*
X161394923Y-114041969D01*
X161637437Y-113847315D01*
X161792838Y-113662100D01*
X161940037Y-113841463D01*
X162181765Y-114039845D01*
X162457551Y-114187255D01*
X162756796Y-114278030D01*
X163068000Y-114308681D01*
X163379203Y-114278030D01*
X163678448Y-114187255D01*
X163954234Y-114039845D01*
X164080095Y-113936553D01*
X164124963Y-114020494D01*
X164204315Y-114117185D01*
X164301006Y-114196537D01*
X164411320Y-114255502D01*
X164531018Y-114291812D01*
X164655500Y-114304072D01*
X166560500Y-114304072D01*
X166684982Y-114291812D01*
X166804680Y-114255502D01*
X166914994Y-114196537D01*
X167011685Y-114117185D01*
X167091037Y-114020494D01*
X167150002Y-113910180D01*
X167186312Y-113790482D01*
X167198572Y-113666000D01*
X167198572Y-113039863D01*
X174723622Y-113039863D01*
X174817121Y-113336446D01*
X174966684Y-113609089D01*
X175166563Y-113847315D01*
X175409077Y-114041969D01*
X175684906Y-114185571D01*
X175903020Y-114256563D01*
X176149000Y-114136594D01*
X176149000Y-112793000D01*
X174850430Y-112793000D01*
X174723622Y-113039863D01*
X167198572Y-113039863D01*
X167198572Y-112292137D01*
X174723622Y-112292137D01*
X174850430Y-112539000D01*
X176149000Y-112539000D01*
X176149000Y-111195406D01*
X176403000Y-111195406D01*
X176403000Y-112539000D01*
X176423000Y-112539000D01*
X176423000Y-112793000D01*
X176403000Y-112793000D01*
X176403000Y-114136594D01*
X176648980Y-114256563D01*
X176867094Y-114185571D01*
X177142923Y-114041969D01*
X177385437Y-113847315D01*
X177540838Y-113662100D01*
X177688037Y-113841463D01*
X177929765Y-114039845D01*
X178205551Y-114187255D01*
X178504796Y-114278030D01*
X178816000Y-114308681D01*
X179127203Y-114278030D01*
X179426448Y-114187255D01*
X179702234Y-114039845D01*
X179828095Y-113936553D01*
X179872963Y-114020494D01*
X179952315Y-114117185D01*
X180049006Y-114196537D01*
X180159320Y-114255502D01*
X180279018Y-114291812D01*
X180403500Y-114304072D01*
X182308500Y-114304072D01*
X182432982Y-114291812D01*
X182552680Y-114255502D01*
X182662994Y-114196537D01*
X182759685Y-114117185D01*
X182839037Y-114020494D01*
X182898002Y-113910180D01*
X182934312Y-113790482D01*
X182946572Y-113666000D01*
X182946572Y-111666000D01*
X182942267Y-111622285D01*
X196165000Y-111622285D01*
X196165000Y-112377715D01*
X196312377Y-113118628D01*
X196601467Y-113816554D01*
X197021161Y-114444670D01*
X197555330Y-114978839D01*
X198183446Y-115398533D01*
X198881372Y-115687623D01*
X199622285Y-115835000D01*
X200377715Y-115835000D01*
X201118628Y-115687623D01*
X201816554Y-115398533D01*
X202444670Y-114978839D01*
X202978839Y-114444670D01*
X203398533Y-113816554D01*
X203687623Y-113118628D01*
X203835000Y-112377715D01*
X203835000Y-111622285D01*
X203687623Y-110881372D01*
X203398533Y-110183446D01*
X202978839Y-109555330D01*
X202444670Y-109021161D01*
X201816554Y-108601467D01*
X201118628Y-108312377D01*
X200377715Y-108165000D01*
X199622285Y-108165000D01*
X198881372Y-108312377D01*
X198183446Y-108601467D01*
X197555330Y-109021161D01*
X197021161Y-109555330D01*
X196601467Y-110183446D01*
X196312377Y-110881372D01*
X196165000Y-111622285D01*
X182942267Y-111622285D01*
X182934312Y-111541518D01*
X182898002Y-111421820D01*
X182839037Y-111311506D01*
X182759685Y-111214815D01*
X182662994Y-111135463D01*
X182552680Y-111076498D01*
X182432982Y-111040188D01*
X182308500Y-111027928D01*
X180403500Y-111027928D01*
X180279018Y-111040188D01*
X180159320Y-111076498D01*
X180049006Y-111135463D01*
X179952315Y-111214815D01*
X179872963Y-111311506D01*
X179828095Y-111395446D01*
X179702235Y-111292155D01*
X179426449Y-111144745D01*
X179127204Y-111053970D01*
X178816000Y-111023319D01*
X178504797Y-111053970D01*
X178205552Y-111144745D01*
X177929766Y-111292155D01*
X177688037Y-111490537D01*
X177540837Y-111669899D01*
X177385437Y-111484685D01*
X177142923Y-111290031D01*
X176867094Y-111146429D01*
X176648980Y-111075437D01*
X176403000Y-111195406D01*
X176149000Y-111195406D01*
X175903020Y-111075437D01*
X175684906Y-111146429D01*
X175409077Y-111290031D01*
X175166563Y-111484685D01*
X174966684Y-111722911D01*
X174817121Y-111995554D01*
X174723622Y-112292137D01*
X167198572Y-112292137D01*
X167198572Y-111666000D01*
X167186312Y-111541518D01*
X167150002Y-111421820D01*
X167091037Y-111311506D01*
X167011685Y-111214815D01*
X166914994Y-111135463D01*
X166804680Y-111076498D01*
X166684982Y-111040188D01*
X166560500Y-111027928D01*
X164655500Y-111027928D01*
X164531018Y-111040188D01*
X164411320Y-111076498D01*
X164301006Y-111135463D01*
X164204315Y-111214815D01*
X164124963Y-111311506D01*
X164080095Y-111395446D01*
X163954235Y-111292155D01*
X163678449Y-111144745D01*
X163379204Y-111053970D01*
X163068000Y-111023319D01*
X162756797Y-111053970D01*
X162457552Y-111144745D01*
X162181766Y-111292155D01*
X161940037Y-111490537D01*
X161792837Y-111669899D01*
X161637437Y-111484685D01*
X161394923Y-111290031D01*
X161119094Y-111146429D01*
X160900980Y-111075437D01*
X160655000Y-111195406D01*
X160401000Y-111195406D01*
X160155020Y-111075437D01*
X159936906Y-111146429D01*
X159661077Y-111290031D01*
X159418563Y-111484685D01*
X159218684Y-111722911D01*
X159069121Y-111995554D01*
X158975622Y-112292137D01*
X119835000Y-112292137D01*
X119835000Y-111622285D01*
X119687623Y-110881372D01*
X119398533Y-110183446D01*
X118978839Y-109555330D01*
X118444670Y-109021161D01*
X117816554Y-108601467D01*
X117118628Y-108312377D01*
X116377715Y-108165000D01*
X115622285Y-108165000D01*
X114881372Y-108312377D01*
X114183446Y-108601467D01*
X113555330Y-109021161D01*
X113021161Y-109555330D01*
X112601467Y-110183446D01*
X112312377Y-110881372D01*
X112165000Y-111622285D01*
X111685000Y-111622285D01*
X111685000Y-105980600D01*
X135844648Y-105980600D01*
X135856908Y-106105082D01*
X135893218Y-106224780D01*
X135952183Y-106335094D01*
X136031535Y-106431785D01*
X136128226Y-106511137D01*
X136238540Y-106570102D01*
X136358238Y-106606412D01*
X136482720Y-106618672D01*
X137046970Y-106615600D01*
X137205720Y-106456850D01*
X137205720Y-105257600D01*
X136006470Y-105257600D01*
X135847720Y-105416350D01*
X135844648Y-105980600D01*
X111685000Y-105980600D01*
X111685000Y-104280600D01*
X135844648Y-104280600D01*
X135847720Y-104844850D01*
X136006470Y-105003600D01*
X137205720Y-105003600D01*
X137205720Y-103804350D01*
X137459720Y-103804350D01*
X137459720Y-105003600D01*
X137479720Y-105003600D01*
X137479720Y-105257600D01*
X137459720Y-105257600D01*
X137459720Y-106456850D01*
X137618470Y-106615600D01*
X138182720Y-106618672D01*
X138307202Y-106606412D01*
X138426900Y-106570102D01*
X138537214Y-106511137D01*
X138633905Y-106431785D01*
X138713257Y-106335094D01*
X138772222Y-106224780D01*
X138794233Y-106152220D01*
X138926088Y-106284075D01*
X139169309Y-106446590D01*
X139439562Y-106558532D01*
X139726460Y-106615600D01*
X140018980Y-106615600D01*
X140305878Y-106558532D01*
X140576131Y-106446590D01*
X140819352Y-106284075D01*
X141026195Y-106077232D01*
X141142720Y-105902840D01*
X141259245Y-106077232D01*
X141466088Y-106284075D01*
X141709309Y-106446590D01*
X141979562Y-106558532D01*
X142266460Y-106615600D01*
X142558980Y-106615600D01*
X142845878Y-106558532D01*
X143116131Y-106446590D01*
X143359352Y-106284075D01*
X143566195Y-106077232D01*
X143682720Y-105902840D01*
X143799245Y-106077232D01*
X144006088Y-106284075D01*
X144249309Y-106446590D01*
X144519562Y-106558532D01*
X144806460Y-106615600D01*
X145098980Y-106615600D01*
X145385878Y-106558532D01*
X145656131Y-106446590D01*
X145899352Y-106284075D01*
X146106195Y-106077232D01*
X146268710Y-105834011D01*
X146380652Y-105563758D01*
X146437720Y-105276860D01*
X146437720Y-104984340D01*
X146380652Y-104697442D01*
X146268710Y-104427189D01*
X146106195Y-104183968D01*
X145899352Y-103977125D01*
X145656131Y-103814610D01*
X145385878Y-103702668D01*
X145098980Y-103645600D01*
X144806460Y-103645600D01*
X144519562Y-103702668D01*
X144249309Y-103814610D01*
X144006088Y-103977125D01*
X143799245Y-104183968D01*
X143682720Y-104358360D01*
X143566195Y-104183968D01*
X143359352Y-103977125D01*
X143116131Y-103814610D01*
X142845878Y-103702668D01*
X142558980Y-103645600D01*
X142266460Y-103645600D01*
X141979562Y-103702668D01*
X141709309Y-103814610D01*
X141466088Y-103977125D01*
X141259245Y-104183968D01*
X141257720Y-104186250D01*
X141257720Y-92971589D01*
X141309000Y-92971589D01*
X141309000Y-93244411D01*
X141362225Y-93511989D01*
X141466629Y-93764043D01*
X141618201Y-93990886D01*
X141811114Y-94183799D01*
X142037957Y-94335371D01*
X142290011Y-94439775D01*
X142557589Y-94493000D01*
X142830411Y-94493000D01*
X143097989Y-94439775D01*
X143350043Y-94335371D01*
X143576886Y-94183799D01*
X143769799Y-93990886D01*
X143921371Y-93764043D01*
X144025775Y-93511989D01*
X144079000Y-93244411D01*
X144079000Y-92971589D01*
X146189000Y-92971589D01*
X146189000Y-93244411D01*
X146242225Y-93511989D01*
X146346629Y-93764043D01*
X146498201Y-93990886D01*
X146691114Y-94183799D01*
X146917957Y-94335371D01*
X147170011Y-94439775D01*
X147437589Y-94493000D01*
X147710411Y-94493000D01*
X147977989Y-94439775D01*
X148076643Y-94398911D01*
X186884000Y-94398911D01*
X186884000Y-94583089D01*
X186919932Y-94763729D01*
X186990414Y-94933889D01*
X187092738Y-95087028D01*
X187222972Y-95217262D01*
X187376111Y-95319586D01*
X187546271Y-95390068D01*
X187726911Y-95426000D01*
X187911089Y-95426000D01*
X188091729Y-95390068D01*
X188125692Y-95376000D01*
X196596422Y-95376000D01*
X198733470Y-97513049D01*
X198761183Y-97546817D01*
X198794951Y-97574530D01*
X198794953Y-97574532D01*
X198866452Y-97633210D01*
X198895941Y-97657411D01*
X199049687Y-97739589D01*
X199216510Y-97790195D01*
X199346523Y-97803000D01*
X199346533Y-97803000D01*
X199389999Y-97807281D01*
X199433465Y-97803000D01*
X200607308Y-97803000D01*
X200641271Y-97817068D01*
X200821911Y-97853000D01*
X201006089Y-97853000D01*
X201186729Y-97817068D01*
X201356889Y-97746586D01*
X201510028Y-97644262D01*
X201640262Y-97514028D01*
X201742586Y-97360889D01*
X201813068Y-97190729D01*
X201849000Y-97010089D01*
X201849000Y-96825911D01*
X201813068Y-96645271D01*
X201742586Y-96475111D01*
X201640262Y-96321972D01*
X201510028Y-96191738D01*
X201356889Y-96089414D01*
X201186729Y-96018932D01*
X201006089Y-95983000D01*
X200821911Y-95983000D01*
X200641271Y-96018932D01*
X200607308Y-96033000D01*
X199756579Y-96033000D01*
X197619534Y-93895956D01*
X197591817Y-93862183D01*
X197457059Y-93751589D01*
X197303313Y-93669411D01*
X197136490Y-93618805D01*
X197006477Y-93606000D01*
X197006469Y-93606000D01*
X196963000Y-93601719D01*
X196919531Y-93606000D01*
X188125692Y-93606000D01*
X188091729Y-93591932D01*
X187911089Y-93556000D01*
X187726911Y-93556000D01*
X187546271Y-93591932D01*
X187376111Y-93662414D01*
X187222972Y-93764738D01*
X187092738Y-93894972D01*
X186990414Y-94048111D01*
X186919932Y-94218271D01*
X186884000Y-94398911D01*
X148076643Y-94398911D01*
X148230043Y-94335371D01*
X148456886Y-94183799D01*
X148649799Y-93990886D01*
X148801371Y-93764043D01*
X148905775Y-93511989D01*
X148959000Y-93244411D01*
X148959000Y-92971589D01*
X148905775Y-92704011D01*
X148801371Y-92451957D01*
X148649799Y-92225114D01*
X148456886Y-92032201D01*
X148230043Y-91880629D01*
X147977989Y-91776225D01*
X147710411Y-91723000D01*
X147437589Y-91723000D01*
X147170011Y-91776225D01*
X146917957Y-91880629D01*
X146691114Y-92032201D01*
X146498201Y-92225114D01*
X146346629Y-92451957D01*
X146242225Y-92704011D01*
X146189000Y-92971589D01*
X144079000Y-92971589D01*
X144025775Y-92704011D01*
X143921371Y-92451957D01*
X143769799Y-92225114D01*
X143576886Y-92032201D01*
X143350043Y-91880629D01*
X143097989Y-91776225D01*
X142830411Y-91723000D01*
X142557589Y-91723000D01*
X142290011Y-91776225D01*
X142037957Y-91880629D01*
X141811114Y-92032201D01*
X141618201Y-92225114D01*
X141466629Y-92451957D01*
X141362225Y-92704011D01*
X141309000Y-92971589D01*
X141257720Y-92971589D01*
X141257720Y-89448965D01*
X141500774Y-89205911D01*
X155275000Y-89205911D01*
X155275000Y-89390089D01*
X155310932Y-89570729D01*
X155381414Y-89740889D01*
X155483738Y-89894028D01*
X155613972Y-90024262D01*
X155767111Y-90126586D01*
X155937271Y-90197068D01*
X156117911Y-90233000D01*
X156302089Y-90233000D01*
X156482729Y-90197068D01*
X156652889Y-90126586D01*
X156806028Y-90024262D01*
X156936262Y-89894028D01*
X157038586Y-89740889D01*
X157109068Y-89570729D01*
X157145000Y-89390089D01*
X157145000Y-89205911D01*
X157109068Y-89025271D01*
X157095000Y-88991308D01*
X157095000Y-79250578D01*
X159116579Y-77229000D01*
X161435591Y-77229000D01*
X161423183Y-77239183D01*
X161312589Y-77373941D01*
X161230411Y-77527687D01*
X161179805Y-77694510D01*
X161162718Y-77868000D01*
X161167000Y-77911477D01*
X161167001Y-88483305D01*
X161152932Y-88517271D01*
X161117000Y-88697911D01*
X161117000Y-88882089D01*
X161152932Y-89062729D01*
X161223414Y-89232889D01*
X161325738Y-89386028D01*
X161455972Y-89516262D01*
X161609111Y-89618586D01*
X161779271Y-89689068D01*
X161959911Y-89725000D01*
X162144089Y-89725000D01*
X162324729Y-89689068D01*
X162494889Y-89618586D01*
X162648028Y-89516262D01*
X162778262Y-89386028D01*
X162880586Y-89232889D01*
X162951068Y-89062729D01*
X162987000Y-88882089D01*
X162987000Y-88697911D01*
X162951068Y-88517271D01*
X162937000Y-88483308D01*
X162937000Y-87000000D01*
X189665928Y-87000000D01*
X189665928Y-89000000D01*
X189678188Y-89124482D01*
X189714498Y-89244180D01*
X189773463Y-89354494D01*
X189852815Y-89451185D01*
X189949506Y-89530537D01*
X190059820Y-89589502D01*
X190179518Y-89625812D01*
X190304000Y-89638072D01*
X193504000Y-89638072D01*
X193628482Y-89625812D01*
X193748180Y-89589502D01*
X193858494Y-89530537D01*
X193955185Y-89451185D01*
X194034537Y-89354494D01*
X194093502Y-89244180D01*
X194129812Y-89124482D01*
X194142072Y-89000000D01*
X194142072Y-87000000D01*
X194129812Y-86875518D01*
X194093502Y-86755820D01*
X194034537Y-86645506D01*
X193955185Y-86548815D01*
X193858494Y-86469463D01*
X193748180Y-86410498D01*
X193628482Y-86374188D01*
X193504000Y-86361928D01*
X190304000Y-86361928D01*
X190179518Y-86374188D01*
X190059820Y-86410498D01*
X189949506Y-86469463D01*
X189852815Y-86548815D01*
X189773463Y-86645506D01*
X189714498Y-86755820D01*
X189678188Y-86875518D01*
X189665928Y-87000000D01*
X162937000Y-87000000D01*
X162937000Y-84738967D01*
X182769000Y-84738967D01*
X182769000Y-85061033D01*
X182831832Y-85376912D01*
X182955082Y-85674463D01*
X183134013Y-85942252D01*
X183361748Y-86169987D01*
X183629537Y-86348918D01*
X183927088Y-86472168D01*
X184242967Y-86535000D01*
X184565033Y-86535000D01*
X184880912Y-86472168D01*
X185178463Y-86348918D01*
X185446252Y-86169987D01*
X185673987Y-85942252D01*
X185852918Y-85674463D01*
X185976168Y-85376912D01*
X186039000Y-85061033D01*
X186039000Y-84738967D01*
X197269000Y-84738967D01*
X197269000Y-85061033D01*
X197331832Y-85376912D01*
X197455082Y-85674463D01*
X197634013Y-85942252D01*
X197861748Y-86169987D01*
X198129537Y-86348918D01*
X198427088Y-86472168D01*
X198742967Y-86535000D01*
X199065033Y-86535000D01*
X199380912Y-86472168D01*
X199678463Y-86348918D01*
X199946252Y-86169987D01*
X200173987Y-85942252D01*
X200352918Y-85674463D01*
X200476168Y-85376912D01*
X200539000Y-85061033D01*
X200539000Y-84738967D01*
X200476168Y-84423088D01*
X200352918Y-84125537D01*
X200173987Y-83857748D01*
X199946252Y-83630013D01*
X199678463Y-83451082D01*
X199380912Y-83327832D01*
X199065033Y-83265000D01*
X198742967Y-83265000D01*
X198427088Y-83327832D01*
X198129537Y-83451082D01*
X197861748Y-83630013D01*
X197634013Y-83857748D01*
X197455082Y-84125537D01*
X197331832Y-84423088D01*
X197269000Y-84738967D01*
X186039000Y-84738967D01*
X185976168Y-84423088D01*
X185852918Y-84125537D01*
X185673987Y-83857748D01*
X185446252Y-83630013D01*
X185349065Y-83565075D01*
X185359808Y-83535413D01*
X184404000Y-82579605D01*
X183448192Y-83535413D01*
X183458935Y-83565075D01*
X183361748Y-83630013D01*
X183134013Y-83857748D01*
X182955082Y-84125537D01*
X182831832Y-84423088D01*
X182769000Y-84738967D01*
X162937000Y-84738967D01*
X162937000Y-82462595D01*
X182762282Y-82462595D01*
X182806039Y-82781675D01*
X182911205Y-83086088D01*
X183004186Y-83260044D01*
X183268587Y-83355808D01*
X184224395Y-82400000D01*
X184210253Y-82385858D01*
X184389858Y-82206253D01*
X184404000Y-82220395D01*
X184418143Y-82206253D01*
X184597748Y-82385858D01*
X184583605Y-82400000D01*
X185539413Y-83355808D01*
X185803814Y-83260044D01*
X185944704Y-82970429D01*
X186026384Y-82658892D01*
X186045718Y-82337405D01*
X186001961Y-82018325D01*
X185896795Y-81713912D01*
X185803814Y-81539956D01*
X185654777Y-81485976D01*
X185758494Y-81430537D01*
X185855185Y-81351185D01*
X185934537Y-81254494D01*
X185993502Y-81144180D01*
X186026496Y-81035413D01*
X197948192Y-81035413D01*
X198043956Y-81299814D01*
X198333571Y-81440704D01*
X198645108Y-81522384D01*
X198966595Y-81541718D01*
X199285675Y-81497961D01*
X199590088Y-81392795D01*
X199764044Y-81299814D01*
X199859808Y-81035413D01*
X198904000Y-80079605D01*
X197948192Y-81035413D01*
X186026496Y-81035413D01*
X186029812Y-81024482D01*
X186042072Y-80900000D01*
X186042072Y-79962595D01*
X197262282Y-79962595D01*
X197306039Y-80281675D01*
X197411205Y-80586088D01*
X197504186Y-80760044D01*
X197768587Y-80855808D01*
X198724395Y-79900000D01*
X199083605Y-79900000D01*
X200039413Y-80855808D01*
X200303814Y-80760044D01*
X200444704Y-80470429D01*
X200526384Y-80158892D01*
X200545718Y-79837405D01*
X200501961Y-79518325D01*
X200396795Y-79213912D01*
X200303814Y-79039956D01*
X200039413Y-78944192D01*
X199083605Y-79900000D01*
X198724395Y-79900000D01*
X197768587Y-78944192D01*
X197504186Y-79039956D01*
X197363296Y-79329571D01*
X197281616Y-79641108D01*
X197262282Y-79962595D01*
X186042072Y-79962595D01*
X186042072Y-78900000D01*
X186029812Y-78775518D01*
X186026497Y-78764587D01*
X197948192Y-78764587D01*
X198904000Y-79720395D01*
X199859808Y-78764587D01*
X199764044Y-78500186D01*
X199474429Y-78359296D01*
X199162892Y-78277616D01*
X198841405Y-78258282D01*
X198522325Y-78302039D01*
X198217912Y-78407205D01*
X198043956Y-78500186D01*
X197948192Y-78764587D01*
X186026497Y-78764587D01*
X185993502Y-78655820D01*
X185934537Y-78545506D01*
X185855185Y-78448815D01*
X185758494Y-78369463D01*
X185648180Y-78310498D01*
X185528482Y-78274188D01*
X185404000Y-78261928D01*
X183404000Y-78261928D01*
X183279518Y-78274188D01*
X183159820Y-78310498D01*
X183049506Y-78369463D01*
X182952815Y-78448815D01*
X182873463Y-78545506D01*
X182814498Y-78655820D01*
X182778188Y-78775518D01*
X182765928Y-78900000D01*
X182765928Y-80900000D01*
X182778188Y-81024482D01*
X182814498Y-81144180D01*
X182873463Y-81254494D01*
X182952815Y-81351185D01*
X183049506Y-81430537D01*
X183153223Y-81485976D01*
X183004186Y-81539956D01*
X182863296Y-81829571D01*
X182781616Y-82141108D01*
X182762282Y-82462595D01*
X162937000Y-82462595D01*
X162937000Y-78753000D01*
X182088531Y-78753000D01*
X182132000Y-78757281D01*
X182175469Y-78753000D01*
X182175477Y-78753000D01*
X182305490Y-78740195D01*
X182472313Y-78689589D01*
X182626059Y-78607411D01*
X182760817Y-78496817D01*
X182788534Y-78463044D01*
X185451578Y-75800000D01*
X189665928Y-75800000D01*
X189665928Y-77800000D01*
X189678188Y-77924482D01*
X189714498Y-78044180D01*
X189773463Y-78154494D01*
X189852815Y-78251185D01*
X189949506Y-78330537D01*
X190059820Y-78389502D01*
X190179518Y-78425812D01*
X190304000Y-78438072D01*
X193504000Y-78438072D01*
X193628482Y-78425812D01*
X193748180Y-78389502D01*
X193858494Y-78330537D01*
X193955185Y-78251185D01*
X194034537Y-78154494D01*
X194093502Y-78044180D01*
X194129812Y-77924482D01*
X194142072Y-77800000D01*
X194142072Y-75800000D01*
X194129812Y-75675518D01*
X194093502Y-75555820D01*
X194034537Y-75445506D01*
X193955185Y-75348815D01*
X193858494Y-75269463D01*
X193748180Y-75210498D01*
X193628482Y-75174188D01*
X193504000Y-75161928D01*
X190304000Y-75161928D01*
X190179518Y-75174188D01*
X190059820Y-75210498D01*
X189949506Y-75269463D01*
X189852815Y-75348815D01*
X189773463Y-75445506D01*
X189714498Y-75555820D01*
X189678188Y-75675518D01*
X189665928Y-75800000D01*
X185451578Y-75800000D01*
X190808925Y-70442654D01*
X190842889Y-70428586D01*
X190996028Y-70326262D01*
X191126262Y-70196028D01*
X191228586Y-70042889D01*
X191299068Y-69872729D01*
X191335000Y-69692089D01*
X191335000Y-69507911D01*
X191299068Y-69327271D01*
X191228586Y-69157111D01*
X191126262Y-69003972D01*
X190996028Y-68873738D01*
X190842889Y-68771414D01*
X190672729Y-68700932D01*
X190492089Y-68665000D01*
X190307911Y-68665000D01*
X190127271Y-68700932D01*
X189957111Y-68771414D01*
X189803972Y-68873738D01*
X189673738Y-69003972D01*
X189571414Y-69157111D01*
X189557346Y-69191075D01*
X181765422Y-76983000D01*
X179520409Y-76983000D01*
X179532817Y-76972817D01*
X179560534Y-76939044D01*
X181156924Y-75342654D01*
X181190889Y-75328586D01*
X181344028Y-75226262D01*
X181474262Y-75096028D01*
X181576586Y-74942889D01*
X181647068Y-74772729D01*
X181683000Y-74592089D01*
X181683000Y-74407911D01*
X181647068Y-74227271D01*
X181576586Y-74057111D01*
X181474262Y-73903972D01*
X181344028Y-73773738D01*
X181190889Y-73671414D01*
X181020729Y-73600932D01*
X180840089Y-73565000D01*
X180655911Y-73565000D01*
X180475271Y-73600932D01*
X180305111Y-73671414D01*
X180151972Y-73773738D01*
X180021738Y-73903972D01*
X179919414Y-74057111D01*
X179905346Y-74091076D01*
X178537422Y-75459000D01*
X158793465Y-75459000D01*
X158774953Y-75457177D01*
X158774953Y-74417700D01*
X156693048Y-74417700D01*
X156693048Y-77149374D01*
X155614956Y-78227466D01*
X155581183Y-78255183D01*
X155470589Y-78389942D01*
X155388411Y-78543688D01*
X155337805Y-78710511D01*
X155325000Y-78840524D01*
X155325000Y-78840531D01*
X155320719Y-78884000D01*
X155325000Y-78927469D01*
X155325001Y-88991305D01*
X155310932Y-89025271D01*
X155275000Y-89205911D01*
X141500774Y-89205911D01*
X158665241Y-72041445D01*
X158718080Y-71998081D01*
X158761445Y-71945241D01*
X158761452Y-71945234D01*
X158891156Y-71787189D01*
X158891157Y-71787188D01*
X159019764Y-71546581D01*
X159098960Y-71285507D01*
X159119000Y-71082037D01*
X159119000Y-71082028D01*
X159125700Y-71014001D01*
X159119000Y-70945974D01*
X159119000Y-69395929D01*
X159273731Y-69567588D01*
X159507080Y-69741641D01*
X159769901Y-69866825D01*
X159917110Y-69911476D01*
X160147000Y-69790155D01*
X160147000Y-68597000D01*
X160127000Y-68597000D01*
X160127000Y-68343000D01*
X160147000Y-68343000D01*
X160147000Y-67149845D01*
X160401000Y-67149845D01*
X160401000Y-68343000D01*
X160421000Y-68343000D01*
X160421000Y-68597000D01*
X160401000Y-68597000D01*
X160401000Y-69790155D01*
X160630890Y-69911476D01*
X160778099Y-69866825D01*
X161040920Y-69741641D01*
X161274269Y-69567588D01*
X161469178Y-69351355D01*
X161538805Y-69234466D01*
X161660525Y-69416632D01*
X161867368Y-69623475D01*
X162110589Y-69785990D01*
X162380842Y-69897932D01*
X162667740Y-69955000D01*
X162960260Y-69955000D01*
X163247158Y-69897932D01*
X163517411Y-69785990D01*
X163760632Y-69623475D01*
X163967475Y-69416632D01*
X164084000Y-69242240D01*
X164200525Y-69416632D01*
X164407368Y-69623475D01*
X164650589Y-69785990D01*
X164920842Y-69897932D01*
X165207740Y-69955000D01*
X165500260Y-69955000D01*
X165787158Y-69897932D01*
X166057411Y-69785990D01*
X166300632Y-69623475D01*
X166507475Y-69416632D01*
X166669990Y-69173411D01*
X166781932Y-68903158D01*
X166839000Y-68616260D01*
X166839000Y-68323740D01*
X166781932Y-68036842D01*
X166669990Y-67766589D01*
X166507475Y-67523368D01*
X166300632Y-67316525D01*
X166057411Y-67154010D01*
X165787158Y-67042068D01*
X165500260Y-66985000D01*
X165207740Y-66985000D01*
X164920842Y-67042068D01*
X164650589Y-67154010D01*
X164407368Y-67316525D01*
X164200525Y-67523368D01*
X164084000Y-67697760D01*
X163967475Y-67523368D01*
X163760632Y-67316525D01*
X163517411Y-67154010D01*
X163247158Y-67042068D01*
X162960260Y-66985000D01*
X162667740Y-66985000D01*
X162380842Y-67042068D01*
X162110589Y-67154010D01*
X161867368Y-67316525D01*
X161660525Y-67523368D01*
X161538805Y-67705534D01*
X161469178Y-67588645D01*
X161274269Y-67372412D01*
X161040920Y-67198359D01*
X160778099Y-67073175D01*
X160630890Y-67028524D01*
X160401000Y-67149845D01*
X160147000Y-67149845D01*
X159917110Y-67028524D01*
X159769901Y-67073175D01*
X159507080Y-67198359D01*
X159273731Y-67372412D01*
X159078822Y-67588645D01*
X159009195Y-67705534D01*
X158887475Y-67523368D01*
X158680632Y-67316525D01*
X158437411Y-67154010D01*
X158167158Y-67042068D01*
X157880260Y-66985000D01*
X157587740Y-66985000D01*
X157300842Y-67042068D01*
X157030589Y-67154010D01*
X156787368Y-67316525D01*
X156655513Y-67448380D01*
X156633502Y-67375820D01*
X156574537Y-67265506D01*
X156495185Y-67168815D01*
X156398494Y-67089463D01*
X156288180Y-67030498D01*
X156168482Y-66994188D01*
X156044000Y-66981928D01*
X154344000Y-66981928D01*
X154219518Y-66994188D01*
X154099820Y-67030498D01*
X153989506Y-67089463D01*
X153892815Y-67168815D01*
X153813463Y-67265506D01*
X153754498Y-67375820D01*
X153718188Y-67495518D01*
X153705928Y-67620000D01*
X153705928Y-69320000D01*
X153718188Y-69444482D01*
X153754498Y-69564180D01*
X153813463Y-69674494D01*
X153892815Y-69771185D01*
X153989506Y-69850537D01*
X154099820Y-69909502D01*
X154219518Y-69945812D01*
X154344000Y-69958072D01*
X156044000Y-69958072D01*
X156168482Y-69945812D01*
X156288180Y-69909502D01*
X156349000Y-69876992D01*
X156349000Y-70440314D01*
X138941485Y-87847830D01*
X138888640Y-87891199D01*
X138845271Y-87944044D01*
X138845268Y-87944047D01*
X138715564Y-88102092D01*
X138586956Y-88342700D01*
X138507760Y-88603773D01*
X138481020Y-88875280D01*
X138487721Y-88943319D01*
X138487720Y-103723608D01*
X138426900Y-103691098D01*
X138307202Y-103654788D01*
X138182720Y-103642528D01*
X137618470Y-103645600D01*
X137459720Y-103804350D01*
X137205720Y-103804350D01*
X137046970Y-103645600D01*
X136482720Y-103642528D01*
X136358238Y-103654788D01*
X136238540Y-103691098D01*
X136128226Y-103750063D01*
X136031535Y-103829415D01*
X135952183Y-103926106D01*
X135893218Y-104036420D01*
X135856908Y-104156118D01*
X135844648Y-104280600D01*
X111685000Y-104280600D01*
X111685000Y-94169000D01*
X119152114Y-94169000D01*
X119171615Y-94366994D01*
X119229368Y-94557380D01*
X119323153Y-94732840D01*
X119449367Y-94886633D01*
X119603160Y-95012847D01*
X119778620Y-95106632D01*
X119969006Y-95164385D01*
X120117392Y-95179000D01*
X133029392Y-95179000D01*
X133079000Y-95183886D01*
X133276994Y-95164385D01*
X133467380Y-95106632D01*
X133642840Y-95012847D01*
X133796633Y-94886633D01*
X133828261Y-94848094D01*
X137497256Y-91179100D01*
X137591846Y-91063841D01*
X137685632Y-90888380D01*
X137743385Y-90697995D01*
X137762886Y-90500000D01*
X137743385Y-90302005D01*
X137685632Y-90111620D01*
X137591846Y-89936160D01*
X137465633Y-89782367D01*
X137311840Y-89656154D01*
X137136380Y-89562368D01*
X136945995Y-89504615D01*
X136748000Y-89485114D01*
X136550005Y-89504615D01*
X136359620Y-89562368D01*
X136184159Y-89656154D01*
X136068900Y-89750744D01*
X132660645Y-93159000D01*
X120117392Y-93159000D01*
X119969006Y-93173615D01*
X119778620Y-93231368D01*
X119603160Y-93325153D01*
X119449367Y-93451367D01*
X119323153Y-93605160D01*
X119229368Y-93780620D01*
X119171615Y-93971006D01*
X119152114Y-94169000D01*
X111685000Y-94169000D01*
X111685000Y-90000000D01*
X116733114Y-90000000D01*
X116752615Y-90197994D01*
X116810368Y-90388379D01*
X116904154Y-90563840D01*
X116998744Y-90679099D01*
X119113744Y-92794100D01*
X119145367Y-92832633D01*
X119299160Y-92958847D01*
X119322999Y-92971589D01*
X119474620Y-93052632D01*
X119665005Y-93110385D01*
X119863000Y-93129886D01*
X119912608Y-93125000D01*
X124182608Y-93125000D01*
X124330994Y-93110385D01*
X124521380Y-93052632D01*
X124696840Y-92958847D01*
X124850633Y-92832633D01*
X124976847Y-92678840D01*
X125070632Y-92503380D01*
X125128385Y-92312994D01*
X125147886Y-92115000D01*
X125128385Y-91917006D01*
X125070632Y-91726620D01*
X124976847Y-91551160D01*
X124850633Y-91397367D01*
X124696840Y-91271153D01*
X124521380Y-91177368D01*
X124330994Y-91119615D01*
X124182608Y-91105000D01*
X120281356Y-91105000D01*
X118427099Y-89250744D01*
X118311840Y-89156154D01*
X118136379Y-89062368D01*
X117945994Y-89004615D01*
X117748000Y-88985114D01*
X117550006Y-89004615D01*
X117359621Y-89062368D01*
X117184160Y-89156154D01*
X117030368Y-89282368D01*
X116904154Y-89436160D01*
X116810368Y-89611621D01*
X116752615Y-89802006D01*
X116733114Y-90000000D01*
X111685000Y-90000000D01*
X111685000Y-60813740D01*
X125515000Y-60813740D01*
X125515000Y-61106260D01*
X125572068Y-61393158D01*
X125684010Y-61663411D01*
X125846525Y-61906632D01*
X126053368Y-62113475D01*
X126296589Y-62275990D01*
X126566842Y-62387932D01*
X126853740Y-62445000D01*
X127146260Y-62445000D01*
X127433158Y-62387932D01*
X127703411Y-62275990D01*
X127946632Y-62113475D01*
X128153475Y-61906632D01*
X128275195Y-61724466D01*
X128344822Y-61841355D01*
X128539731Y-62057588D01*
X128773080Y-62231641D01*
X129035901Y-62356825D01*
X129183110Y-62401476D01*
X129413000Y-62280155D01*
X129413000Y-61087000D01*
X129393000Y-61087000D01*
X129393000Y-60833000D01*
X129413000Y-60833000D01*
X129413000Y-59639845D01*
X129667000Y-59639845D01*
X129667000Y-60833000D01*
X129687000Y-60833000D01*
X129687000Y-61087000D01*
X129667000Y-61087000D01*
X129667000Y-62280155D01*
X129896890Y-62401476D01*
X130044099Y-62356825D01*
X130306920Y-62231641D01*
X130540269Y-62057588D01*
X130616034Y-61973534D01*
X130640498Y-62054180D01*
X130699463Y-62164494D01*
X130778815Y-62261185D01*
X130875506Y-62340537D01*
X130985820Y-62399502D01*
X131105518Y-62435812D01*
X131230000Y-62448072D01*
X132930000Y-62448072D01*
X133054482Y-62435812D01*
X133174180Y-62399502D01*
X133284494Y-62340537D01*
X133381185Y-62261185D01*
X133460537Y-62164494D01*
X133519502Y-62054180D01*
X133555812Y-61934482D01*
X133568072Y-61810000D01*
X133568072Y-60762000D01*
X170215928Y-60762000D01*
X170215928Y-62462000D01*
X170228188Y-62586482D01*
X170264498Y-62706180D01*
X170323463Y-62816494D01*
X170402815Y-62913185D01*
X170499506Y-62992537D01*
X170609820Y-63051502D01*
X170729518Y-63087812D01*
X170854000Y-63100072D01*
X172554000Y-63100072D01*
X172678482Y-63087812D01*
X172798180Y-63051502D01*
X172908494Y-62992537D01*
X173005185Y-62913185D01*
X173084537Y-62816494D01*
X173143502Y-62706180D01*
X173165513Y-62633620D01*
X173297368Y-62765475D01*
X173540589Y-62927990D01*
X173810842Y-63039932D01*
X174097740Y-63097000D01*
X174390260Y-63097000D01*
X174677158Y-63039932D01*
X174947411Y-62927990D01*
X175190632Y-62765475D01*
X175397475Y-62558632D01*
X175514000Y-62384240D01*
X175630525Y-62558632D01*
X175837368Y-62765475D01*
X176080589Y-62927990D01*
X176350842Y-63039932D01*
X176637740Y-63097000D01*
X176930260Y-63097000D01*
X177217158Y-63039932D01*
X177487411Y-62927990D01*
X177730632Y-62765475D01*
X177937475Y-62558632D01*
X178054000Y-62384240D01*
X178170525Y-62558632D01*
X178377368Y-62765475D01*
X178620589Y-62927990D01*
X178890842Y-63039932D01*
X179177740Y-63097000D01*
X179470260Y-63097000D01*
X179757158Y-63039932D01*
X180027411Y-62927990D01*
X180270632Y-62765475D01*
X180477475Y-62558632D01*
X180599195Y-62376466D01*
X180668822Y-62493355D01*
X180863731Y-62709588D01*
X181097080Y-62883641D01*
X181359901Y-63008825D01*
X181507110Y-63053476D01*
X181737000Y-62932155D01*
X181737000Y-61739000D01*
X181991000Y-61739000D01*
X181991000Y-62932155D01*
X182220890Y-63053476D01*
X182368099Y-63008825D01*
X182630920Y-62883641D01*
X182864269Y-62709588D01*
X183059178Y-62493355D01*
X183208157Y-62243252D01*
X183305481Y-61968891D01*
X183184814Y-61739000D01*
X181991000Y-61739000D01*
X181737000Y-61739000D01*
X181717000Y-61739000D01*
X181717000Y-61485000D01*
X181737000Y-61485000D01*
X181737000Y-60291845D01*
X181991000Y-60291845D01*
X181991000Y-61485000D01*
X183184814Y-61485000D01*
X183305481Y-61255109D01*
X183208157Y-60980748D01*
X183059178Y-60730645D01*
X182864269Y-60514412D01*
X182630920Y-60340359D01*
X182368099Y-60215175D01*
X182220890Y-60170524D01*
X181991000Y-60291845D01*
X181737000Y-60291845D01*
X181507110Y-60170524D01*
X181359901Y-60215175D01*
X181097080Y-60340359D01*
X180863731Y-60514412D01*
X180668822Y-60730645D01*
X180599195Y-60847534D01*
X180477475Y-60665368D01*
X180270632Y-60458525D01*
X180027411Y-60296010D01*
X179757158Y-60184068D01*
X179470260Y-60127000D01*
X179177740Y-60127000D01*
X178890842Y-60184068D01*
X178620589Y-60296010D01*
X178377368Y-60458525D01*
X178170525Y-60665368D01*
X178054000Y-60839760D01*
X177937475Y-60665368D01*
X177730632Y-60458525D01*
X177487411Y-60296010D01*
X177217158Y-60184068D01*
X176930260Y-60127000D01*
X176637740Y-60127000D01*
X176350842Y-60184068D01*
X176080589Y-60296010D01*
X175837368Y-60458525D01*
X175630525Y-60665368D01*
X175514000Y-60839760D01*
X175397475Y-60665368D01*
X175190632Y-60458525D01*
X174947411Y-60296010D01*
X174677158Y-60184068D01*
X174390260Y-60127000D01*
X174097740Y-60127000D01*
X173810842Y-60184068D01*
X173540589Y-60296010D01*
X173297368Y-60458525D01*
X173165513Y-60590380D01*
X173143502Y-60517820D01*
X173084537Y-60407506D01*
X173005185Y-60310815D01*
X172908494Y-60231463D01*
X172798180Y-60172498D01*
X172678482Y-60136188D01*
X172554000Y-60123928D01*
X170854000Y-60123928D01*
X170729518Y-60136188D01*
X170609820Y-60172498D01*
X170499506Y-60231463D01*
X170402815Y-60310815D01*
X170323463Y-60407506D01*
X170264498Y-60517820D01*
X170228188Y-60637518D01*
X170215928Y-60762000D01*
X133568072Y-60762000D01*
X133568072Y-60110000D01*
X133555812Y-59985518D01*
X133519502Y-59865820D01*
X133460537Y-59755506D01*
X133381185Y-59658815D01*
X133284494Y-59579463D01*
X133174180Y-59520498D01*
X133054482Y-59484188D01*
X132930000Y-59471928D01*
X131230000Y-59471928D01*
X131105518Y-59484188D01*
X130985820Y-59520498D01*
X130875506Y-59579463D01*
X130778815Y-59658815D01*
X130699463Y-59755506D01*
X130640498Y-59865820D01*
X130616034Y-59946466D01*
X130540269Y-59862412D01*
X130306920Y-59688359D01*
X130044099Y-59563175D01*
X129896890Y-59518524D01*
X129667000Y-59639845D01*
X129413000Y-59639845D01*
X129183110Y-59518524D01*
X129035901Y-59563175D01*
X128773080Y-59688359D01*
X128539731Y-59862412D01*
X128344822Y-60078645D01*
X128275195Y-60195534D01*
X128153475Y-60013368D01*
X127946632Y-59806525D01*
X127703411Y-59644010D01*
X127433158Y-59532068D01*
X127146260Y-59475000D01*
X126853740Y-59475000D01*
X126566842Y-59532068D01*
X126296589Y-59644010D01*
X126053368Y-59806525D01*
X125846525Y-60013368D01*
X125684010Y-60256589D01*
X125572068Y-60526842D01*
X125515000Y-60813740D01*
X111685000Y-60813740D01*
X111685000Y-55622285D01*
X112165000Y-55622285D01*
X112165000Y-56377715D01*
X112312377Y-57118628D01*
X112601467Y-57816554D01*
X113021161Y-58444670D01*
X113555330Y-58978839D01*
X114183446Y-59398533D01*
X114881372Y-59687623D01*
X115622285Y-59835000D01*
X116377715Y-59835000D01*
X117118628Y-59687623D01*
X117816554Y-59398533D01*
X118444670Y-58978839D01*
X118978839Y-58444670D01*
X119398533Y-57816554D01*
X119687623Y-57118628D01*
X119832424Y-56390665D01*
X141313000Y-56390665D01*
X141313000Y-56673335D01*
X141368147Y-56950574D01*
X141476320Y-57211727D01*
X141633363Y-57446759D01*
X141833241Y-57646637D01*
X142068273Y-57803680D01*
X142329426Y-57911853D01*
X142606665Y-57967000D01*
X142889335Y-57967000D01*
X143166574Y-57911853D01*
X143427727Y-57803680D01*
X143662759Y-57646637D01*
X143862637Y-57446759D01*
X144019680Y-57211727D01*
X144127853Y-56950574D01*
X144183000Y-56673335D01*
X144183000Y-56390665D01*
X161633000Y-56390665D01*
X161633000Y-56673335D01*
X161688147Y-56950574D01*
X161796320Y-57211727D01*
X161953363Y-57446759D01*
X162153241Y-57646637D01*
X162388273Y-57803680D01*
X162649426Y-57911853D01*
X162926665Y-57967000D01*
X163209335Y-57967000D01*
X163486574Y-57911853D01*
X163747727Y-57803680D01*
X163982759Y-57646637D01*
X164182637Y-57446759D01*
X164339680Y-57211727D01*
X164447853Y-56950574D01*
X164503000Y-56673335D01*
X164503000Y-56390665D01*
X164447853Y-56113426D01*
X164339680Y-55852273D01*
X164186008Y-55622285D01*
X196165000Y-55622285D01*
X196165000Y-56377715D01*
X196312377Y-57118628D01*
X196601467Y-57816554D01*
X197021161Y-58444670D01*
X197555330Y-58978839D01*
X198183446Y-59398533D01*
X198881372Y-59687623D01*
X199622285Y-59835000D01*
X200377715Y-59835000D01*
X201118628Y-59687623D01*
X201816554Y-59398533D01*
X202444670Y-58978839D01*
X202978839Y-58444670D01*
X203398533Y-57816554D01*
X203687623Y-57118628D01*
X203835000Y-56377715D01*
X203835000Y-55622285D01*
X203687623Y-54881372D01*
X203398533Y-54183446D01*
X202978839Y-53555330D01*
X202444670Y-53021161D01*
X201816554Y-52601467D01*
X201118628Y-52312377D01*
X200377715Y-52165000D01*
X199622285Y-52165000D01*
X198881372Y-52312377D01*
X198183446Y-52601467D01*
X197555330Y-53021161D01*
X197021161Y-53555330D01*
X196601467Y-54183446D01*
X196312377Y-54881372D01*
X196165000Y-55622285D01*
X164186008Y-55622285D01*
X164182637Y-55617241D01*
X163982759Y-55417363D01*
X163747727Y-55260320D01*
X163486574Y-55152147D01*
X163209335Y-55097000D01*
X162926665Y-55097000D01*
X162649426Y-55152147D01*
X162388273Y-55260320D01*
X162153241Y-55417363D01*
X161953363Y-55617241D01*
X161796320Y-55852273D01*
X161688147Y-56113426D01*
X161633000Y-56390665D01*
X144183000Y-56390665D01*
X144127853Y-56113426D01*
X144019680Y-55852273D01*
X143862637Y-55617241D01*
X143662759Y-55417363D01*
X143427727Y-55260320D01*
X143166574Y-55152147D01*
X142889335Y-55097000D01*
X142606665Y-55097000D01*
X142329426Y-55152147D01*
X142068273Y-55260320D01*
X141833241Y-55417363D01*
X141633363Y-55617241D01*
X141476320Y-55852273D01*
X141368147Y-56113426D01*
X141313000Y-56390665D01*
X119832424Y-56390665D01*
X119835000Y-56377715D01*
X119835000Y-55622285D01*
X119687623Y-54881372D01*
X119398533Y-54183446D01*
X118978839Y-53555330D01*
X118444670Y-53021161D01*
X117816554Y-52601467D01*
X117118628Y-52312377D01*
X116377715Y-52165000D01*
X115622285Y-52165000D01*
X114881372Y-52312377D01*
X114183446Y-52601467D01*
X113555330Y-53021161D01*
X113021161Y-53555330D01*
X112601467Y-54183446D01*
X112312377Y-54881372D01*
X112165000Y-55622285D01*
X111685000Y-55622285D01*
X111685000Y-51739000D01*
X204315000Y-51739000D01*
X204315001Y-117315000D01*
M02*
