G04 #@! TF.GenerationSoftware,KiCad,Pcbnew,5.1.5*
G04 #@! TF.CreationDate,2019-12-15T00:46:23+02:00*
G04 #@! TF.ProjectId,hakko_907,68616b6b-6f5f-4393-9037-2e6b69636164,rev?*
G04 #@! TF.SameCoordinates,Original*
G04 #@! TF.FileFunction,Legend,Top*
G04 #@! TF.FilePolarity,Positive*
%FSLAX46Y46*%
G04 Gerber Fmt 4.6, Leading zero omitted, Abs format (unit mm)*
G04 Created by KiCad (PCBNEW 5.1.5) date 2019-12-15 00:46:23*
%MOMM*%
%LPD*%
G04 APERTURE LIST*
%ADD10C,0.100000*%
%ADD11C,0.300000*%
%ADD12C,0.200000*%
%ADD13C,0.175000*%
%ADD14C,0.120000*%
%ADD15C,0.152400*%
%ADD16C,0.127000*%
%ADD17C,0.150000*%
%ADD18C,0.050000*%
G04 APERTURE END LIST*
D10*
X111000000Y-118000000D02*
X111000000Y-51054000D01*
D11*
X153555714Y-65592571D02*
X153555714Y-64092571D01*
X154127142Y-64092571D01*
X154270000Y-64164000D01*
X154341428Y-64235428D01*
X154412857Y-64378285D01*
X154412857Y-64592571D01*
X154341428Y-64735428D01*
X154270000Y-64806857D01*
X154127142Y-64878285D01*
X153555714Y-64878285D01*
X155055714Y-65592571D02*
X155055714Y-64592571D01*
X155055714Y-64878285D02*
X155127142Y-64735428D01*
X155198571Y-64664000D01*
X155341428Y-64592571D01*
X155484285Y-64592571D01*
X156198571Y-65592571D02*
X156055714Y-65521142D01*
X155984285Y-65449714D01*
X155912857Y-65306857D01*
X155912857Y-64878285D01*
X155984285Y-64735428D01*
X156055714Y-64664000D01*
X156198571Y-64592571D01*
X156412857Y-64592571D01*
X156555714Y-64664000D01*
X156627142Y-64735428D01*
X156698571Y-64878285D01*
X156698571Y-65306857D01*
X156627142Y-65449714D01*
X156555714Y-65521142D01*
X156412857Y-65592571D01*
X156198571Y-65592571D01*
X157984285Y-64592571D02*
X157984285Y-65806857D01*
X157912857Y-65949714D01*
X157841428Y-66021142D01*
X157698571Y-66092571D01*
X157484285Y-66092571D01*
X157341428Y-66021142D01*
X157984285Y-65521142D02*
X157841428Y-65592571D01*
X157555714Y-65592571D01*
X157412857Y-65521142D01*
X157341428Y-65449714D01*
X157270000Y-65306857D01*
X157270000Y-64878285D01*
X157341428Y-64735428D01*
X157412857Y-64664000D01*
X157555714Y-64592571D01*
X157841428Y-64592571D01*
X157984285Y-64664000D01*
X158698571Y-65592571D02*
X158698571Y-64592571D01*
X158698571Y-64878285D02*
X158770000Y-64735428D01*
X158841428Y-64664000D01*
X158984285Y-64592571D01*
X159127142Y-64592571D01*
X160270000Y-65592571D02*
X160270000Y-64806857D01*
X160198571Y-64664000D01*
X160055714Y-64592571D01*
X159770000Y-64592571D01*
X159627142Y-64664000D01*
X160270000Y-65521142D02*
X160127142Y-65592571D01*
X159770000Y-65592571D01*
X159627142Y-65521142D01*
X159555714Y-65378285D01*
X159555714Y-65235428D01*
X159627142Y-65092571D01*
X159770000Y-65021142D01*
X160127142Y-65021142D01*
X160270000Y-64949714D01*
X160984285Y-65592571D02*
X160984285Y-64592571D01*
X160984285Y-64735428D02*
X161055714Y-64664000D01*
X161198571Y-64592571D01*
X161412857Y-64592571D01*
X161555714Y-64664000D01*
X161627142Y-64806857D01*
X161627142Y-65592571D01*
X161627142Y-64806857D02*
X161698571Y-64664000D01*
X161841428Y-64592571D01*
X162055714Y-64592571D01*
X162198571Y-64664000D01*
X162270000Y-64806857D01*
X162270000Y-65592571D01*
X162984285Y-65592571D02*
X162984285Y-64592571D01*
X162984285Y-64735428D02*
X163055714Y-64664000D01*
X163198571Y-64592571D01*
X163412857Y-64592571D01*
X163555714Y-64664000D01*
X163627142Y-64806857D01*
X163627142Y-65592571D01*
X163627142Y-64806857D02*
X163698571Y-64664000D01*
X163841428Y-64592571D01*
X164055714Y-64592571D01*
X164198571Y-64664000D01*
X164270000Y-64806857D01*
X164270000Y-65592571D01*
X165555714Y-65521142D02*
X165412857Y-65592571D01*
X165127142Y-65592571D01*
X164984285Y-65521142D01*
X164912857Y-65378285D01*
X164912857Y-64806857D01*
X164984285Y-64664000D01*
X165127142Y-64592571D01*
X165412857Y-64592571D01*
X165555714Y-64664000D01*
X165627142Y-64806857D01*
X165627142Y-64949714D01*
X164912857Y-65092571D01*
X166270000Y-65592571D02*
X166270000Y-64592571D01*
X166270000Y-64878285D02*
X166341428Y-64735428D01*
X166412857Y-64664000D01*
X166555714Y-64592571D01*
X166698571Y-64592571D01*
D10*
X111000000Y-51054000D02*
X205000000Y-51054000D01*
X205000000Y-118000000D02*
X111000000Y-118000000D01*
X205000000Y-51054000D02*
X205000000Y-118000000D01*
D12*
X178776380Y-56682476D02*
X178776380Y-56111047D01*
X179776380Y-56396761D02*
X178776380Y-56396761D01*
X179252571Y-55777714D02*
X179252571Y-55444380D01*
X179776380Y-55301523D02*
X179776380Y-55777714D01*
X178776380Y-55777714D01*
X178776380Y-55301523D01*
X179776380Y-54872952D02*
X178776380Y-54872952D01*
X179490666Y-54539619D01*
X178776380Y-54206285D01*
X179776380Y-54206285D01*
X179776380Y-53730095D02*
X178776380Y-53730095D01*
X178776380Y-53349142D01*
X178824000Y-53253904D01*
X178871619Y-53206285D01*
X178966857Y-53158666D01*
X179109714Y-53158666D01*
X179204952Y-53206285D01*
X179252571Y-53253904D01*
X179300190Y-53349142D01*
X179300190Y-53730095D01*
X179871619Y-52968190D02*
X179871619Y-52206285D01*
X179252571Y-51634857D02*
X179300190Y-51492000D01*
X179347809Y-51444380D01*
X179443047Y-51396761D01*
X179585904Y-51396761D01*
X179681142Y-51444380D01*
X179728761Y-51492000D01*
X179776380Y-51587238D01*
X179776380Y-51968190D01*
X178776380Y-51968190D01*
X178776380Y-51634857D01*
X178824000Y-51539619D01*
X178871619Y-51492000D01*
X178966857Y-51444380D01*
X179062095Y-51444380D01*
X179157333Y-51492000D01*
X179204952Y-51539619D01*
X179252571Y-51634857D01*
X179252571Y-51968190D01*
X181316380Y-56611047D02*
X181316380Y-56039619D01*
X182316380Y-56325333D02*
X181316380Y-56325333D01*
X181792571Y-55706285D02*
X181792571Y-55372952D01*
X182316380Y-55230095D02*
X182316380Y-55706285D01*
X181316380Y-55706285D01*
X181316380Y-55230095D01*
X182316380Y-54801523D02*
X181316380Y-54801523D01*
X182030666Y-54468190D01*
X181316380Y-54134857D01*
X182316380Y-54134857D01*
X182316380Y-53658666D02*
X181316380Y-53658666D01*
X181316380Y-53277714D01*
X181364000Y-53182476D01*
X181411619Y-53134857D01*
X181506857Y-53087238D01*
X181649714Y-53087238D01*
X181744952Y-53134857D01*
X181792571Y-53182476D01*
X181840190Y-53277714D01*
X181840190Y-53658666D01*
X182411619Y-52896761D02*
X182411619Y-52134857D01*
X182030666Y-51944380D02*
X182030666Y-51468190D01*
X182316380Y-52039619D02*
X181316380Y-51706285D01*
X182316380Y-51372952D01*
X176284000Y-56023904D02*
X176236380Y-56119142D01*
X176236380Y-56262000D01*
X176284000Y-56404857D01*
X176379238Y-56500095D01*
X176474476Y-56547714D01*
X176664952Y-56595333D01*
X176807809Y-56595333D01*
X176998285Y-56547714D01*
X177093523Y-56500095D01*
X177188761Y-56404857D01*
X177236380Y-56262000D01*
X177236380Y-56166761D01*
X177188761Y-56023904D01*
X177141142Y-55976285D01*
X176807809Y-55976285D01*
X176807809Y-56166761D01*
X177236380Y-55547714D02*
X176236380Y-55547714D01*
X177236380Y-54976285D01*
X176236380Y-54976285D01*
X177236380Y-54500095D02*
X176236380Y-54500095D01*
X176236380Y-54262000D01*
X176284000Y-54119142D01*
X176379238Y-54023904D01*
X176474476Y-53976285D01*
X176664952Y-53928666D01*
X176807809Y-53928666D01*
X176998285Y-53976285D01*
X177093523Y-54023904D01*
X177188761Y-54119142D01*
X177236380Y-54262000D01*
X177236380Y-54500095D01*
X174315428Y-56769904D02*
X174315428Y-56008000D01*
X174696380Y-56388952D02*
X173934476Y-56388952D01*
X173791619Y-55579428D02*
X173744000Y-55531809D01*
X173696380Y-55436571D01*
X173696380Y-55198476D01*
X173744000Y-55103238D01*
X173791619Y-55055619D01*
X173886857Y-55008000D01*
X173982095Y-55008000D01*
X174124952Y-55055619D01*
X174696380Y-55627047D01*
X174696380Y-55008000D01*
X174029714Y-54150857D02*
X174696380Y-54150857D01*
X173648761Y-54388952D02*
X174363047Y-54627047D01*
X174363047Y-54008000D01*
X173696380Y-53769904D02*
X174696380Y-53436571D01*
X173696380Y-53103238D01*
X171632571Y-56492285D02*
X171632571Y-56158952D01*
X172156380Y-56016095D02*
X172156380Y-56492285D01*
X171156380Y-56492285D01*
X171156380Y-56016095D01*
D11*
X122868740Y-56020162D02*
X124011597Y-56020162D01*
X123440168Y-56591591D02*
X123440168Y-55448734D01*
X124654454Y-55234448D02*
X124725882Y-55163020D01*
X124868740Y-55091591D01*
X125225882Y-55091591D01*
X125368740Y-55163020D01*
X125440168Y-55234448D01*
X125511597Y-55377305D01*
X125511597Y-55520162D01*
X125440168Y-55734448D01*
X124583025Y-56591591D01*
X125511597Y-56591591D01*
X126797311Y-55591591D02*
X126797311Y-56591591D01*
X126440168Y-55020162D02*
X126083025Y-56091591D01*
X127011597Y-56091591D01*
X127368740Y-55091591D02*
X127868740Y-56591591D01*
X128368740Y-55091591D01*
X130797311Y-55163020D02*
X130654454Y-55091591D01*
X130440168Y-55091591D01*
X130225882Y-55163020D01*
X130083025Y-55305877D01*
X130011597Y-55448734D01*
X129940168Y-55734448D01*
X129940168Y-55948734D01*
X130011597Y-56234448D01*
X130083025Y-56377305D01*
X130225882Y-56520162D01*
X130440168Y-56591591D01*
X130583025Y-56591591D01*
X130797311Y-56520162D01*
X130868740Y-56448734D01*
X130868740Y-55948734D01*
X130583025Y-55948734D01*
X131511597Y-56591591D02*
X131511597Y-55091591D01*
X132368740Y-56591591D01*
X132368740Y-55091591D01*
X133083025Y-56591591D02*
X133083025Y-55091591D01*
X133440168Y-55091591D01*
X133654454Y-55163020D01*
X133797311Y-55305877D01*
X133868740Y-55448734D01*
X133940168Y-55734448D01*
X133940168Y-55948734D01*
X133868740Y-56234448D01*
X133797311Y-56377305D01*
X133654454Y-56520162D01*
X133440168Y-56591591D01*
X133083025Y-56591591D01*
X135725882Y-55805877D02*
X136225882Y-55805877D01*
X136440168Y-56591591D02*
X135725882Y-56591591D01*
X135725882Y-55091591D01*
X136440168Y-55091591D01*
D13*
X135955142Y-110690280D02*
X135869428Y-110652184D01*
X135740857Y-110652184D01*
X135612285Y-110690280D01*
X135526571Y-110766470D01*
X135483714Y-110842660D01*
X135440857Y-110995041D01*
X135440857Y-111109327D01*
X135483714Y-111261708D01*
X135526571Y-111337899D01*
X135612285Y-111414089D01*
X135740857Y-111452184D01*
X135826571Y-111452184D01*
X135955142Y-111414089D01*
X135998000Y-111375994D01*
X135998000Y-111109327D01*
X135826571Y-111109327D01*
X136383714Y-111452184D02*
X136383714Y-110652184D01*
X136898000Y-111452184D01*
X136898000Y-110652184D01*
X137326571Y-111452184D02*
X137326571Y-110652184D01*
X137540857Y-110652184D01*
X137669428Y-110690280D01*
X137755142Y-110766470D01*
X137798000Y-110842660D01*
X137840857Y-110995041D01*
X137840857Y-111109327D01*
X137798000Y-111261708D01*
X137755142Y-111337899D01*
X137669428Y-111414089D01*
X137540857Y-111452184D01*
X137326571Y-111452184D01*
X138783714Y-110652184D02*
X139083714Y-111452184D01*
X139383714Y-110652184D01*
X139683714Y-111452184D02*
X139683714Y-110652184D01*
X140112285Y-111452184D02*
X140112285Y-110652184D01*
X140626571Y-111452184D01*
X140626571Y-110652184D01*
X141698000Y-111414089D02*
X141826571Y-111452184D01*
X142040857Y-111452184D01*
X142126571Y-111414089D01*
X142169428Y-111375994D01*
X142212285Y-111299803D01*
X142212285Y-111223613D01*
X142169428Y-111147422D01*
X142126571Y-111109327D01*
X142040857Y-111071232D01*
X141869428Y-111033137D01*
X141783714Y-110995041D01*
X141740857Y-110956946D01*
X141698000Y-110880756D01*
X141698000Y-110804565D01*
X141740857Y-110728375D01*
X141783714Y-110690280D01*
X141869428Y-110652184D01*
X142083714Y-110652184D01*
X142212285Y-110690280D01*
X143112285Y-111375994D02*
X143069428Y-111414089D01*
X142940857Y-111452184D01*
X142855142Y-111452184D01*
X142726571Y-111414089D01*
X142640857Y-111337899D01*
X142598000Y-111261708D01*
X142555142Y-111109327D01*
X142555142Y-110995041D01*
X142598000Y-110842660D01*
X142640857Y-110766470D01*
X142726571Y-110690280D01*
X142855142Y-110652184D01*
X142940857Y-110652184D01*
X143069428Y-110690280D01*
X143112285Y-110728375D01*
X143926571Y-111452184D02*
X143498000Y-111452184D01*
X143498000Y-110652184D01*
X144869428Y-111414089D02*
X144998000Y-111452184D01*
X145212285Y-111452184D01*
X145298000Y-111414089D01*
X145340857Y-111375994D01*
X145383714Y-111299803D01*
X145383714Y-111223613D01*
X145340857Y-111147422D01*
X145298000Y-111109327D01*
X145212285Y-111071232D01*
X145040857Y-111033137D01*
X144955142Y-110995041D01*
X144912285Y-110956946D01*
X144869428Y-110880756D01*
X144869428Y-110804565D01*
X144912285Y-110728375D01*
X144955142Y-110690280D01*
X145040857Y-110652184D01*
X145255142Y-110652184D01*
X145383714Y-110690280D01*
X145769428Y-111452184D02*
X145769428Y-110652184D01*
X145983714Y-110652184D01*
X146112285Y-110690280D01*
X146198000Y-110766470D01*
X146240857Y-110842660D01*
X146283714Y-110995041D01*
X146283714Y-111109327D01*
X146240857Y-111261708D01*
X146198000Y-111337899D01*
X146112285Y-111414089D01*
X145983714Y-111452184D01*
X145769428Y-111452184D01*
X146626571Y-111223613D02*
X147055142Y-111223613D01*
X146540857Y-111452184D02*
X146840857Y-110652184D01*
X147140857Y-111452184D01*
X135698000Y-112027184D02*
X135869428Y-112027184D01*
X135955142Y-112065280D01*
X136040857Y-112141470D01*
X136083714Y-112293851D01*
X136083714Y-112560518D01*
X136040857Y-112712899D01*
X135955142Y-112789089D01*
X135869428Y-112827184D01*
X135698000Y-112827184D01*
X135612285Y-112789089D01*
X135526571Y-112712899D01*
X135483714Y-112560518D01*
X135483714Y-112293851D01*
X135526571Y-112141470D01*
X135612285Y-112065280D01*
X135698000Y-112027184D01*
X136898000Y-112827184D02*
X136469428Y-112827184D01*
X136469428Y-112027184D01*
X137198000Y-112408137D02*
X137498000Y-112408137D01*
X137626571Y-112827184D02*
X137198000Y-112827184D01*
X137198000Y-112027184D01*
X137626571Y-112027184D01*
X138012285Y-112827184D02*
X138012285Y-112027184D01*
X138226571Y-112027184D01*
X138355142Y-112065280D01*
X138440857Y-112141470D01*
X138483714Y-112217660D01*
X138526571Y-112370041D01*
X138526571Y-112484327D01*
X138483714Y-112636708D01*
X138440857Y-112712899D01*
X138355142Y-112789089D01*
X138226571Y-112827184D01*
X138012285Y-112827184D01*
X139598000Y-112827184D02*
X139598000Y-112027184D01*
X140026571Y-112827184D02*
X140026571Y-112027184D01*
X140969428Y-112750994D02*
X140926571Y-112789089D01*
X140798000Y-112827184D01*
X140712285Y-112827184D01*
X140583714Y-112789089D01*
X140498000Y-112712899D01*
X140455142Y-112636708D01*
X140412285Y-112484327D01*
X140412285Y-112370041D01*
X140455142Y-112217660D01*
X140498000Y-112141470D01*
X140583714Y-112065280D01*
X140712285Y-112027184D01*
X140798000Y-112027184D01*
X140926571Y-112065280D01*
X140969428Y-112103375D01*
X142040857Y-112827184D02*
X142040857Y-112027184D01*
X142255142Y-112027184D01*
X142383714Y-112065280D01*
X142469428Y-112141470D01*
X142512285Y-112217660D01*
X142555142Y-112370041D01*
X142555142Y-112484327D01*
X142512285Y-112636708D01*
X142469428Y-112712899D01*
X142383714Y-112789089D01*
X142255142Y-112827184D01*
X142040857Y-112827184D01*
X142940857Y-112827184D02*
X142940857Y-112027184D01*
X143326571Y-112789089D02*
X143455142Y-112827184D01*
X143669428Y-112827184D01*
X143755142Y-112789089D01*
X143798000Y-112750994D01*
X143840857Y-112674803D01*
X143840857Y-112598613D01*
X143798000Y-112522422D01*
X143755142Y-112484327D01*
X143669428Y-112446232D01*
X143498000Y-112408137D01*
X143412285Y-112370041D01*
X143369428Y-112331946D01*
X143326571Y-112255756D01*
X143326571Y-112179565D01*
X143369428Y-112103375D01*
X143412285Y-112065280D01*
X143498000Y-112027184D01*
X143712285Y-112027184D01*
X143840857Y-112065280D01*
X144226571Y-112827184D02*
X144226571Y-112027184D01*
X144569428Y-112027184D01*
X144655142Y-112065280D01*
X144698000Y-112103375D01*
X144740857Y-112179565D01*
X144740857Y-112293851D01*
X144698000Y-112370041D01*
X144655142Y-112408137D01*
X144569428Y-112446232D01*
X144226571Y-112446232D01*
X145555142Y-112827184D02*
X145126571Y-112827184D01*
X145126571Y-112027184D01*
X145812285Y-112598613D02*
X146240857Y-112598613D01*
X145726571Y-112827184D02*
X146026571Y-112027184D01*
X146326571Y-112827184D01*
X146798000Y-112446232D02*
X146798000Y-112827184D01*
X146498000Y-112027184D02*
X146798000Y-112446232D01*
X147098000Y-112027184D01*
D11*
X190278000Y-100380571D02*
X190278000Y-98880571D01*
X190420857Y-99809142D02*
X190849428Y-100380571D01*
X190849428Y-99380571D02*
X190278000Y-99952000D01*
X192063714Y-100309142D02*
X191920857Y-100380571D01*
X191635142Y-100380571D01*
X191492285Y-100309142D01*
X191420857Y-100166285D01*
X191420857Y-99594857D01*
X191492285Y-99452000D01*
X191635142Y-99380571D01*
X191920857Y-99380571D01*
X192063714Y-99452000D01*
X192135142Y-99594857D01*
X192135142Y-99737714D01*
X191420857Y-99880571D01*
X192563714Y-99380571D02*
X193135142Y-99380571D01*
X192778000Y-98880571D02*
X192778000Y-100166285D01*
X192849428Y-100309142D01*
X192992285Y-100380571D01*
X193135142Y-100380571D01*
X193849428Y-100380571D02*
X193706571Y-100309142D01*
X193635142Y-100237714D01*
X193563714Y-100094857D01*
X193563714Y-99666285D01*
X193635142Y-99523428D01*
X193706571Y-99452000D01*
X193849428Y-99380571D01*
X194063714Y-99380571D01*
X194206571Y-99452000D01*
X194278000Y-99523428D01*
X194349428Y-99666285D01*
X194349428Y-100094857D01*
X194278000Y-100237714D01*
X194206571Y-100309142D01*
X194063714Y-100380571D01*
X193849428Y-100380571D01*
X186563714Y-102930571D02*
X186563714Y-101430571D01*
X186563714Y-102144857D02*
X187420857Y-102144857D01*
X187420857Y-102930571D02*
X187420857Y-101430571D01*
X188778000Y-102930571D02*
X188778000Y-102144857D01*
X188706571Y-102002000D01*
X188563714Y-101930571D01*
X188278000Y-101930571D01*
X188135142Y-102002000D01*
X188778000Y-102859142D02*
X188635142Y-102930571D01*
X188278000Y-102930571D01*
X188135142Y-102859142D01*
X188063714Y-102716285D01*
X188063714Y-102573428D01*
X188135142Y-102430571D01*
X188278000Y-102359142D01*
X188635142Y-102359142D01*
X188778000Y-102287714D01*
X189492285Y-102930571D02*
X189492285Y-101430571D01*
X189635142Y-102359142D02*
X190063714Y-102930571D01*
X190063714Y-101930571D02*
X189492285Y-102502000D01*
X190706571Y-102930571D02*
X190706571Y-101430571D01*
X190849428Y-102359142D02*
X191278000Y-102930571D01*
X191278000Y-101930571D02*
X190706571Y-102502000D01*
X192135142Y-102930571D02*
X191992285Y-102859142D01*
X191920857Y-102787714D01*
X191849428Y-102644857D01*
X191849428Y-102216285D01*
X191920857Y-102073428D01*
X191992285Y-102002000D01*
X192135142Y-101930571D01*
X192349428Y-101930571D01*
X192492285Y-102002000D01*
X192563714Y-102073428D01*
X192635142Y-102216285D01*
X192635142Y-102644857D01*
X192563714Y-102787714D01*
X192492285Y-102859142D01*
X192349428Y-102930571D01*
X192135142Y-102930571D01*
X194492285Y-102930571D02*
X194778000Y-102930571D01*
X194920857Y-102859142D01*
X194992285Y-102787714D01*
X195135142Y-102573428D01*
X195206571Y-102287714D01*
X195206571Y-101716285D01*
X195135142Y-101573428D01*
X195063714Y-101502000D01*
X194920857Y-101430571D01*
X194635142Y-101430571D01*
X194492285Y-101502000D01*
X194420857Y-101573428D01*
X194349428Y-101716285D01*
X194349428Y-102073428D01*
X194420857Y-102216285D01*
X194492285Y-102287714D01*
X194635142Y-102359142D01*
X194920857Y-102359142D01*
X195063714Y-102287714D01*
X195135142Y-102216285D01*
X195206571Y-102073428D01*
X196135142Y-101430571D02*
X196278000Y-101430571D01*
X196420857Y-101502000D01*
X196492285Y-101573428D01*
X196563714Y-101716285D01*
X196635142Y-102002000D01*
X196635142Y-102359142D01*
X196563714Y-102644857D01*
X196492285Y-102787714D01*
X196420857Y-102859142D01*
X196278000Y-102930571D01*
X196135142Y-102930571D01*
X195992285Y-102859142D01*
X195920857Y-102787714D01*
X195849428Y-102644857D01*
X195778000Y-102359142D01*
X195778000Y-102002000D01*
X195849428Y-101716285D01*
X195920857Y-101573428D01*
X195992285Y-101502000D01*
X196135142Y-101430571D01*
X197135142Y-101430571D02*
X198135142Y-101430571D01*
X197492285Y-102930571D01*
X182742285Y-105409142D02*
X182956571Y-105480571D01*
X183313714Y-105480571D01*
X183456571Y-105409142D01*
X183528000Y-105337714D01*
X183599428Y-105194857D01*
X183599428Y-105052000D01*
X183528000Y-104909142D01*
X183456571Y-104837714D01*
X183313714Y-104766285D01*
X183028000Y-104694857D01*
X182885142Y-104623428D01*
X182813714Y-104552000D01*
X182742285Y-104409142D01*
X182742285Y-104266285D01*
X182813714Y-104123428D01*
X182885142Y-104052000D01*
X183028000Y-103980571D01*
X183385142Y-103980571D01*
X183599428Y-104052000D01*
X184456571Y-105480571D02*
X184313714Y-105409142D01*
X184242285Y-105337714D01*
X184170857Y-105194857D01*
X184170857Y-104766285D01*
X184242285Y-104623428D01*
X184313714Y-104552000D01*
X184456571Y-104480571D01*
X184670857Y-104480571D01*
X184813714Y-104552000D01*
X184885142Y-104623428D01*
X184956571Y-104766285D01*
X184956571Y-105194857D01*
X184885142Y-105337714D01*
X184813714Y-105409142D01*
X184670857Y-105480571D01*
X184456571Y-105480571D01*
X185813714Y-105480571D02*
X185670857Y-105409142D01*
X185599428Y-105266285D01*
X185599428Y-103980571D01*
X187028000Y-105480571D02*
X187028000Y-103980571D01*
X187028000Y-105409142D02*
X186885142Y-105480571D01*
X186599428Y-105480571D01*
X186456571Y-105409142D01*
X186385142Y-105337714D01*
X186313714Y-105194857D01*
X186313714Y-104766285D01*
X186385142Y-104623428D01*
X186456571Y-104552000D01*
X186599428Y-104480571D01*
X186885142Y-104480571D01*
X187028000Y-104552000D01*
X188313714Y-105409142D02*
X188170857Y-105480571D01*
X187885142Y-105480571D01*
X187742285Y-105409142D01*
X187670857Y-105266285D01*
X187670857Y-104694857D01*
X187742285Y-104552000D01*
X187885142Y-104480571D01*
X188170857Y-104480571D01*
X188313714Y-104552000D01*
X188385142Y-104694857D01*
X188385142Y-104837714D01*
X187670857Y-104980571D01*
X189028000Y-105480571D02*
X189028000Y-104480571D01*
X189028000Y-104766285D02*
X189099428Y-104623428D01*
X189170857Y-104552000D01*
X189313714Y-104480571D01*
X189456571Y-104480571D01*
X189956571Y-105480571D02*
X189956571Y-104480571D01*
X189956571Y-103980571D02*
X189885142Y-104052000D01*
X189956571Y-104123428D01*
X190028000Y-104052000D01*
X189956571Y-103980571D01*
X189956571Y-104123428D01*
X190670857Y-104480571D02*
X190670857Y-105480571D01*
X190670857Y-104623428D02*
X190742285Y-104552000D01*
X190885142Y-104480571D01*
X191099428Y-104480571D01*
X191242285Y-104552000D01*
X191313714Y-104694857D01*
X191313714Y-105480571D01*
X192670857Y-104480571D02*
X192670857Y-105694857D01*
X192599428Y-105837714D01*
X192528000Y-105909142D01*
X192385142Y-105980571D01*
X192170857Y-105980571D01*
X192028000Y-105909142D01*
X192670857Y-105409142D02*
X192528000Y-105480571D01*
X192242285Y-105480571D01*
X192099428Y-105409142D01*
X192028000Y-105337714D01*
X191956571Y-105194857D01*
X191956571Y-104766285D01*
X192028000Y-104623428D01*
X192099428Y-104552000D01*
X192242285Y-104480571D01*
X192528000Y-104480571D01*
X192670857Y-104552000D01*
X194456571Y-105409142D02*
X194670857Y-105480571D01*
X195028000Y-105480571D01*
X195170857Y-105409142D01*
X195242285Y-105337714D01*
X195313714Y-105194857D01*
X195313714Y-105052000D01*
X195242285Y-104909142D01*
X195170857Y-104837714D01*
X195028000Y-104766285D01*
X194742285Y-104694857D01*
X194599428Y-104623428D01*
X194528000Y-104552000D01*
X194456571Y-104409142D01*
X194456571Y-104266285D01*
X194528000Y-104123428D01*
X194599428Y-104052000D01*
X194742285Y-103980571D01*
X195099428Y-103980571D01*
X195313714Y-104052000D01*
X195742285Y-104480571D02*
X196313714Y-104480571D01*
X195956571Y-103980571D02*
X195956571Y-105266285D01*
X196028000Y-105409142D01*
X196170857Y-105480571D01*
X196313714Y-105480571D01*
X197456571Y-105480571D02*
X197456571Y-104694857D01*
X197385142Y-104552000D01*
X197242285Y-104480571D01*
X196956571Y-104480571D01*
X196813714Y-104552000D01*
X197456571Y-105409142D02*
X197313714Y-105480571D01*
X196956571Y-105480571D01*
X196813714Y-105409142D01*
X196742285Y-105266285D01*
X196742285Y-105123428D01*
X196813714Y-104980571D01*
X196956571Y-104909142D01*
X197313714Y-104909142D01*
X197456571Y-104837714D01*
X197956571Y-104480571D02*
X198528000Y-104480571D01*
X198170857Y-103980571D02*
X198170857Y-105266285D01*
X198242285Y-105409142D01*
X198385142Y-105480571D01*
X198528000Y-105480571D01*
X199028000Y-105480571D02*
X199028000Y-104480571D01*
X199028000Y-103980571D02*
X198956571Y-104052000D01*
X199028000Y-104123428D01*
X199099428Y-104052000D01*
X199028000Y-103980571D01*
X199028000Y-104123428D01*
X199956571Y-105480571D02*
X199813714Y-105409142D01*
X199742285Y-105337714D01*
X199670857Y-105194857D01*
X199670857Y-104766285D01*
X199742285Y-104623428D01*
X199813714Y-104552000D01*
X199956571Y-104480571D01*
X200170857Y-104480571D01*
X200313714Y-104552000D01*
X200385142Y-104623428D01*
X200456571Y-104766285D01*
X200456571Y-105194857D01*
X200385142Y-105337714D01*
X200313714Y-105409142D01*
X200170857Y-105480571D01*
X199956571Y-105480571D01*
X201099428Y-104480571D02*
X201099428Y-105480571D01*
X201099428Y-104623428D02*
X201170857Y-104552000D01*
X201313714Y-104480571D01*
X201528000Y-104480571D01*
X201670857Y-104552000D01*
X201742285Y-104694857D01*
X201742285Y-105480571D01*
D14*
X190998000Y-62190000D02*
X187548000Y-62190000D01*
X190998000Y-62190000D02*
X192948000Y-62190000D01*
X190998000Y-67310000D02*
X189048000Y-67310000D01*
X190998000Y-67310000D02*
X192948000Y-67310000D01*
X175433436Y-71710000D02*
X179537564Y-71710000D01*
X175433436Y-68290000D02*
X179537564Y-68290000D01*
X113006750Y-78793750D02*
X113794250Y-78793750D01*
X113400500Y-79187500D02*
X113400500Y-78400000D01*
X117593563Y-78160000D02*
X118658000Y-77095563D01*
X112902437Y-78160000D02*
X111838000Y-77095563D01*
X112902437Y-78160000D02*
X114188000Y-78160000D01*
X117593563Y-78160000D02*
X116308000Y-78160000D01*
X118658000Y-77095563D02*
X118658000Y-71340000D01*
X111838000Y-77095563D02*
X111838000Y-71340000D01*
X111838000Y-71340000D02*
X114188000Y-71340000D01*
X118658000Y-71340000D02*
X116308000Y-71340000D01*
X120870733Y-93006000D02*
X121213267Y-93006000D01*
X120870733Y-91986000D02*
X121213267Y-91986000D01*
X141934000Y-90583000D02*
G75*
G03X141934000Y-95633000I0J-2525000D01*
G01*
X148334000Y-90583000D02*
G75*
G02X148334000Y-95633000I0J-2525000D01*
G01*
X148334000Y-90583000D02*
X141934000Y-90583000D01*
X148334000Y-95633000D02*
X141934000Y-95633000D01*
D15*
X168833800Y-86554800D02*
X168833800Y-86199200D01*
X169087800Y-86554800D02*
X168833800Y-86554800D01*
X169087800Y-86199200D02*
X169087800Y-86554800D01*
X157302200Y-87824800D02*
X157302200Y-87469200D01*
X157048200Y-87824800D02*
X157302200Y-87824800D01*
X157048200Y-87469200D02*
X157048200Y-87824800D01*
D10*
X163372800Y-75531200D02*
G75*
G02X162763200Y-75531200I-304800J0D01*
G01*
D15*
X162763200Y-75531200D02*
X159308800Y-75531200D01*
X163372800Y-75531200D02*
X162763200Y-75531200D01*
X166827200Y-75531200D02*
X163372800Y-75531200D01*
X159308800Y-93412800D02*
X166827200Y-93412800D01*
D16*
X127170000Y-93980000D02*
X131170000Y-93980000D01*
X131170000Y-88980000D02*
X127170000Y-88980000D01*
D12*
X125230000Y-89500000D02*
G75*
G03X125230000Y-89500000I-100000J0D01*
G01*
D14*
X194904000Y-82400000D02*
G75*
G03X194904000Y-82400000I-3000000J0D01*
G01*
X193904000Y-76500000D02*
X198004000Y-76500000D01*
X198004000Y-88300000D02*
X193904000Y-88300000D01*
X189904000Y-88300000D02*
X185804000Y-88300000D01*
X189904000Y-76500000D02*
X185804000Y-76500000D01*
X185804000Y-76500000D02*
X185804000Y-88300000D01*
X184404000Y-78600000D02*
X184104000Y-78300000D01*
X184104000Y-78300000D02*
X184704000Y-78300000D01*
X184704000Y-78300000D02*
X184404000Y-78600000D01*
X198004000Y-76500000D02*
X198004000Y-78900000D01*
X198004000Y-81100000D02*
X198004000Y-83700000D01*
X198004000Y-85900000D02*
X198004000Y-88300000D01*
X191904000Y-81900000D02*
X191904000Y-82900000D01*
X191404000Y-82400000D02*
X192404000Y-82400000D01*
X115794267Y-84240000D02*
X115451733Y-84240000D01*
X115794267Y-85260000D02*
X115451733Y-85260000D01*
X135988000Y-93203733D02*
X135988000Y-93546267D01*
X137008000Y-93203733D02*
X137008000Y-93546267D01*
X115326733Y-92510000D02*
X115669267Y-92510000D01*
X115326733Y-91490000D02*
X115669267Y-91490000D01*
X117988000Y-96328733D02*
X117988000Y-96671267D01*
X119008000Y-96328733D02*
X119008000Y-96671267D01*
X120983733Y-88688000D02*
X121326267Y-88688000D01*
X120983733Y-87668000D02*
X121326267Y-87668000D01*
X150539267Y-82438000D02*
X150196733Y-82438000D01*
X150539267Y-83458000D02*
X150196733Y-83458000D01*
X154171267Y-102758000D02*
X153828733Y-102758000D01*
X154171267Y-103778000D02*
X153828733Y-103778000D01*
X153828733Y-107842000D02*
X154171267Y-107842000D01*
X153828733Y-106822000D02*
X154171267Y-106822000D01*
X171706000Y-113599267D02*
X171706000Y-113256733D01*
X170686000Y-113599267D02*
X170686000Y-113256733D01*
X177544000Y-101572733D02*
X177544000Y-101915267D01*
X178564000Y-101572733D02*
X178564000Y-101915267D01*
X154176000Y-113256733D02*
X154176000Y-113599267D01*
X155196000Y-113256733D02*
X155196000Y-113599267D01*
X172210000Y-101572733D02*
X172210000Y-101915267D01*
X173230000Y-101572733D02*
X173230000Y-101915267D01*
X148842000Y-70076733D02*
X148842000Y-70419267D01*
X149862000Y-70076733D02*
X149862000Y-70419267D01*
X153244733Y-74568000D02*
X153587267Y-74568000D01*
X153244733Y-73548000D02*
X153587267Y-73548000D01*
X143788000Y-56532000D02*
X148288000Y-56532000D01*
X162028000Y-56532000D02*
X157528000Y-56532000D01*
X148288000Y-58252000D02*
X157528000Y-58252000D01*
X148288000Y-54812000D02*
X148288000Y-58252000D01*
X157528000Y-54812000D02*
X148288000Y-54812000D01*
X157528000Y-58252000D02*
X157528000Y-54812000D01*
X150539267Y-77866000D02*
X150196733Y-77866000D01*
X150539267Y-78886000D02*
X150196733Y-78886000D01*
X178560000Y-76934733D02*
X178560000Y-77277267D01*
X179580000Y-76934733D02*
X179580000Y-77277267D01*
X184402000Y-93444733D02*
X184402000Y-93787267D01*
X185422000Y-93444733D02*
X185422000Y-93787267D01*
X200154000Y-94455267D02*
X200154000Y-94112733D01*
X199134000Y-94455267D02*
X199134000Y-94112733D01*
X176965000Y-115936000D02*
X176965000Y-114426000D01*
X180666000Y-115936000D02*
X180666000Y-114426000D01*
X183936000Y-114426000D02*
X173696000Y-114426000D01*
X173696000Y-115936000D02*
X173696000Y-111295000D01*
X183936000Y-115936000D02*
X183936000Y-111295000D01*
X183936000Y-111295000D02*
X173696000Y-111295000D01*
X183936000Y-115936000D02*
X173696000Y-115936000D01*
X161217000Y-115936000D02*
X161217000Y-114426000D01*
X164918000Y-115936000D02*
X164918000Y-114426000D01*
X168188000Y-114426000D02*
X157948000Y-114426000D01*
X157948000Y-115936000D02*
X157948000Y-111295000D01*
X168188000Y-115936000D02*
X168188000Y-111295000D01*
X168188000Y-111295000D02*
X157948000Y-111295000D01*
X168188000Y-115936000D02*
X157948000Y-115936000D01*
D15*
X119938000Y-72190000D02*
X119938000Y-73917200D01*
X127558000Y-72190000D02*
X119938000Y-72190000D01*
X127558000Y-79810000D02*
X127558000Y-78082800D01*
X119938000Y-79810000D02*
X127558000Y-79810000D01*
X119938000Y-78082800D02*
X119938000Y-79810000D01*
X127558000Y-73917200D02*
X127558000Y-72190000D01*
D14*
X170374000Y-62942000D02*
X170374000Y-61612000D01*
X171704000Y-62942000D02*
X170374000Y-62942000D01*
X172974000Y-62942000D02*
X172974000Y-60282000D01*
X172974000Y-60282000D02*
X183194000Y-60282000D01*
X172974000Y-62942000D02*
X183194000Y-62942000D01*
X183194000Y-62942000D02*
X183194000Y-60282000D01*
X153864000Y-69800000D02*
X153864000Y-68470000D01*
X155194000Y-69800000D02*
X153864000Y-69800000D01*
X156464000Y-69800000D02*
X156464000Y-67140000D01*
X156464000Y-67140000D02*
X166684000Y-67140000D01*
X156464000Y-69800000D02*
X166684000Y-69800000D01*
X166684000Y-69800000D02*
X166684000Y-67140000D01*
D12*
X131598000Y-82500000D02*
G75*
G03X131598000Y-82500000I-100000J0D01*
G01*
D16*
X130648000Y-80925000D02*
X130648000Y-78075000D01*
X132348000Y-78075000D02*
X132348000Y-80925000D01*
D14*
X142612000Y-83683000D02*
X145072000Y-83683000D01*
X142612000Y-82213000D02*
X142612000Y-83683000D01*
X145072000Y-82213000D02*
X142612000Y-82213000D01*
X142612000Y-79111000D02*
X145072000Y-79111000D01*
X142612000Y-77641000D02*
X142612000Y-79111000D01*
X145072000Y-77641000D02*
X142612000Y-77641000D01*
X126804267Y-110378000D02*
X126461733Y-110378000D01*
X126804267Y-111398000D02*
X126461733Y-111398000D01*
X130222000Y-105008000D02*
X130222000Y-104008000D01*
X130722000Y-104508000D02*
X129722000Y-104508000D01*
X129482000Y-98802437D02*
X128417563Y-97738000D01*
X129482000Y-105193563D02*
X128417563Y-106258000D01*
X129482000Y-105193563D02*
X129482000Y-103508000D01*
X129482000Y-98802437D02*
X129482000Y-100488000D01*
X128417563Y-97738000D02*
X120962000Y-97738000D01*
X128417563Y-106258000D02*
X120962000Y-106258000D01*
X120962000Y-106258000D02*
X120962000Y-103508000D01*
X120962000Y-97738000D02*
X120962000Y-100488000D01*
X118826733Y-81010000D02*
X119169267Y-81010000D01*
X118826733Y-79990000D02*
X119169267Y-79990000D01*
X194227267Y-71008000D02*
X193884733Y-71008000D01*
X194227267Y-72028000D02*
X193884733Y-72028000D01*
X145624733Y-75838000D02*
X145967267Y-75838000D01*
X145624733Y-74818000D02*
X145967267Y-74818000D01*
X115794267Y-87240000D02*
X115451733Y-87240000D01*
X115794267Y-88260000D02*
X115451733Y-88260000D01*
X130794267Y-85490000D02*
X130451733Y-85490000D01*
X130794267Y-86510000D02*
X130451733Y-86510000D01*
X175770000Y-87183267D02*
X175770000Y-86840733D01*
X174750000Y-87183267D02*
X174750000Y-86840733D01*
X141222000Y-98524733D02*
X141222000Y-98867267D01*
X142242000Y-98524733D02*
X142242000Y-98867267D01*
X136480733Y-78378000D02*
X136823267Y-78378000D01*
X136480733Y-77358000D02*
X136823267Y-77358000D01*
X148080000Y-98524733D02*
X148080000Y-98867267D01*
X149100000Y-98524733D02*
X149100000Y-98867267D01*
X130890000Y-66984000D02*
X130890000Y-67984000D01*
X130390000Y-67484000D02*
X131390000Y-67484000D01*
X131630000Y-73189563D02*
X132694437Y-74254000D01*
X131630000Y-66798437D02*
X132694437Y-65734000D01*
X131630000Y-66798437D02*
X131630000Y-68484000D01*
X131630000Y-73189563D02*
X131630000Y-71504000D01*
X132694437Y-74254000D02*
X140150000Y-74254000D01*
X132694437Y-65734000D02*
X140150000Y-65734000D01*
X140150000Y-65734000D02*
X140150000Y-68484000D01*
X140150000Y-74254000D02*
X140150000Y-71504000D01*
X175262000Y-77277267D02*
X175262000Y-76934733D01*
X174242000Y-77277267D02*
X174242000Y-76934733D01*
X181104000Y-93787267D02*
X181104000Y-93444733D01*
X180084000Y-93787267D02*
X180084000Y-93444733D01*
X196594000Y-94112733D02*
X196594000Y-94455267D01*
X197614000Y-94112733D02*
X197614000Y-94455267D01*
X136002720Y-106460600D02*
X136002720Y-105130600D01*
X137332720Y-106460600D02*
X136002720Y-106460600D01*
X138602720Y-106460600D02*
X138602720Y-103800600D01*
X138602720Y-103800600D02*
X146282720Y-103800600D01*
X138602720Y-106460600D02*
X146282720Y-106460600D01*
X146282720Y-106460600D02*
X146282720Y-103800600D01*
X125670000Y-59630000D02*
X125670000Y-62290000D01*
X130810000Y-59630000D02*
X125670000Y-59630000D01*
X130810000Y-62290000D02*
X125670000Y-62290000D01*
X130810000Y-59630000D02*
X130810000Y-62290000D01*
X132080000Y-59630000D02*
X133410000Y-59630000D01*
X133410000Y-59630000D02*
X133410000Y-60960000D01*
D17*
X190236095Y-60802380D02*
X190236095Y-61611904D01*
X190283714Y-61707142D01*
X190331333Y-61754761D01*
X190426571Y-61802380D01*
X190617047Y-61802380D01*
X190712285Y-61754761D01*
X190759904Y-61707142D01*
X190807523Y-61611904D01*
X190807523Y-60802380D01*
X191188476Y-60802380D02*
X191807523Y-60802380D01*
X191474190Y-61183333D01*
X191617047Y-61183333D01*
X191712285Y-61230952D01*
X191759904Y-61278571D01*
X191807523Y-61373809D01*
X191807523Y-61611904D01*
X191759904Y-61707142D01*
X191712285Y-61754761D01*
X191617047Y-61802380D01*
X191331333Y-61802380D01*
X191236095Y-61754761D01*
X191188476Y-61707142D01*
X176842642Y-67832380D02*
X176509309Y-67356190D01*
X176271214Y-67832380D02*
X176271214Y-66832380D01*
X176652166Y-66832380D01*
X176747404Y-66880000D01*
X176795023Y-66927619D01*
X176842642Y-67022857D01*
X176842642Y-67165714D01*
X176795023Y-67260952D01*
X176747404Y-67308571D01*
X176652166Y-67356190D01*
X176271214Y-67356190D01*
X177795023Y-67832380D02*
X177223595Y-67832380D01*
X177509309Y-67832380D02*
X177509309Y-66832380D01*
X177414071Y-66975238D01*
X177318833Y-67070476D01*
X177223595Y-67118095D01*
X178175976Y-66927619D02*
X178223595Y-66880000D01*
X178318833Y-66832380D01*
X178556928Y-66832380D01*
X178652166Y-66880000D01*
X178699785Y-66927619D01*
X178747404Y-67022857D01*
X178747404Y-67118095D01*
X178699785Y-67260952D01*
X178128357Y-67832380D01*
X178747404Y-67832380D01*
X117855142Y-70607142D02*
X117807523Y-70654761D01*
X117664666Y-70702380D01*
X117569428Y-70702380D01*
X117426571Y-70654761D01*
X117331333Y-70559523D01*
X117283714Y-70464285D01*
X117236095Y-70273809D01*
X117236095Y-70130952D01*
X117283714Y-69940476D01*
X117331333Y-69845238D01*
X117426571Y-69750000D01*
X117569428Y-69702380D01*
X117664666Y-69702380D01*
X117807523Y-69750000D01*
X117855142Y-69797619D01*
X118807523Y-70702380D02*
X118236095Y-70702380D01*
X118521809Y-70702380D02*
X118521809Y-69702380D01*
X118426571Y-69845238D01*
X118331333Y-69940476D01*
X118236095Y-69988095D01*
X119140857Y-69702380D02*
X119807523Y-69702380D01*
X119378952Y-70702380D01*
X120399142Y-91518380D02*
X120065809Y-91042190D01*
X119827714Y-91518380D02*
X119827714Y-90518380D01*
X120208666Y-90518380D01*
X120303904Y-90566000D01*
X120351523Y-90613619D01*
X120399142Y-90708857D01*
X120399142Y-90851714D01*
X120351523Y-90946952D01*
X120303904Y-90994571D01*
X120208666Y-91042190D01*
X119827714Y-91042190D01*
X121351523Y-91518380D02*
X120780095Y-91518380D01*
X121065809Y-91518380D02*
X121065809Y-90518380D01*
X120970571Y-90661238D01*
X120875333Y-90756476D01*
X120780095Y-90804095D01*
X121684857Y-90518380D02*
X122351523Y-90518380D01*
X121922952Y-91518380D01*
X144657809Y-96609190D02*
X144657809Y-97085380D01*
X144324476Y-96085380D02*
X144657809Y-96609190D01*
X144991142Y-96085380D01*
X145848285Y-97085380D02*
X145276857Y-97085380D01*
X145562571Y-97085380D02*
X145562571Y-96085380D01*
X145467333Y-96228238D01*
X145372095Y-96323476D01*
X145276857Y-96371095D01*
D18*
X161386676Y-72829704D02*
X161386676Y-74157323D01*
X161464771Y-74313514D01*
X161542866Y-74391609D01*
X161699057Y-74469704D01*
X162011438Y-74469704D01*
X162167628Y-74391609D01*
X162245723Y-74313514D01*
X162323819Y-74157323D01*
X162323819Y-72829704D01*
X163026676Y-72985895D02*
X163104771Y-72907800D01*
X163260961Y-72829704D01*
X163651438Y-72829704D01*
X163807628Y-72907800D01*
X163885723Y-72985895D01*
X163963819Y-73142085D01*
X163963819Y-73298276D01*
X163885723Y-73532561D01*
X162948580Y-74469704D01*
X163963819Y-74469704D01*
X153600657Y-95704104D02*
X153600657Y-94064104D01*
X154225419Y-94064104D01*
X154381609Y-94142200D01*
X154459704Y-94220295D01*
X154537800Y-94376485D01*
X154537800Y-94610771D01*
X154459704Y-94766961D01*
X154381609Y-94845057D01*
X154225419Y-94923152D01*
X153600657Y-94923152D01*
X155240657Y-95704104D02*
X155240657Y-94064104D01*
X156958752Y-95547914D02*
X156880657Y-95626009D01*
X156646371Y-95704104D01*
X156490180Y-95704104D01*
X156255895Y-95626009D01*
X156099704Y-95469819D01*
X156021609Y-95313628D01*
X155943514Y-95001247D01*
X155943514Y-94766961D01*
X156021609Y-94454580D01*
X156099704Y-94298390D01*
X156255895Y-94142200D01*
X156490180Y-94064104D01*
X156646371Y-94064104D01*
X156880657Y-94142200D01*
X156958752Y-94220295D01*
X158520657Y-95704104D02*
X157583514Y-95704104D01*
X158052085Y-95704104D02*
X158052085Y-94064104D01*
X157895895Y-94298390D01*
X157739704Y-94454580D01*
X157583514Y-94532676D01*
X159926371Y-94064104D02*
X159613990Y-94064104D01*
X159457800Y-94142200D01*
X159379704Y-94220295D01*
X159223514Y-94454580D01*
X159145419Y-94766961D01*
X159145419Y-95391723D01*
X159223514Y-95547914D01*
X159301609Y-95626009D01*
X159457800Y-95704104D01*
X159770180Y-95704104D01*
X159926371Y-95626009D01*
X160004466Y-95547914D01*
X160082561Y-95391723D01*
X160082561Y-95001247D01*
X160004466Y-94845057D01*
X159926371Y-94766961D01*
X159770180Y-94688866D01*
X159457800Y-94688866D01*
X159301609Y-94766961D01*
X159223514Y-94845057D01*
X159145419Y-95001247D01*
X161332085Y-94845057D02*
X160785419Y-94845057D01*
X160785419Y-95704104D02*
X160785419Y-94064104D01*
X161566371Y-94064104D01*
X162034942Y-94064104D02*
X163128276Y-94064104D01*
X162425419Y-95704104D01*
X163674942Y-94220295D02*
X163753038Y-94142200D01*
X163909228Y-94064104D01*
X164299704Y-94064104D01*
X164455895Y-94142200D01*
X164533990Y-94220295D01*
X164612085Y-94376485D01*
X164612085Y-94532676D01*
X164533990Y-94766961D01*
X163596847Y-95704104D01*
X164612085Y-95704104D01*
X165314942Y-95079342D02*
X166564466Y-95079342D01*
X167345419Y-95704104D02*
X167345419Y-94064104D01*
X167735895Y-95860295D02*
X168985419Y-95860295D01*
X169297800Y-95626009D02*
X169532085Y-95704104D01*
X169922561Y-95704104D01*
X170078752Y-95626009D01*
X170156847Y-95547914D01*
X170234942Y-95391723D01*
X170234942Y-95235533D01*
X170156847Y-95079342D01*
X170078752Y-95001247D01*
X169922561Y-94923152D01*
X169610180Y-94845057D01*
X169453990Y-94766961D01*
X169375895Y-94688866D01*
X169297800Y-94532676D01*
X169297800Y-94376485D01*
X169375895Y-94220295D01*
X169453990Y-94142200D01*
X169610180Y-94064104D01*
X170000657Y-94064104D01*
X170234942Y-94142200D01*
X171250180Y-94064104D02*
X171562561Y-94064104D01*
X171718752Y-94142200D01*
X171874942Y-94298390D01*
X171953038Y-94610771D01*
X171953038Y-95157438D01*
X171874942Y-95469819D01*
X171718752Y-95626009D01*
X171562561Y-95704104D01*
X171250180Y-95704104D01*
X171093990Y-95626009D01*
X170937800Y-95469819D01*
X170859704Y-95157438D01*
X170859704Y-94610771D01*
X170937800Y-94298390D01*
X171093990Y-94142200D01*
X171250180Y-94064104D01*
X157734000Y-75237580D02*
X157734000Y-75475676D01*
X157495904Y-75380438D02*
X157734000Y-75475676D01*
X157972095Y-75380438D01*
X157591142Y-75666152D02*
X157734000Y-75475676D01*
X157876857Y-75666152D01*
X157734000Y-75237580D02*
X157734000Y-75475676D01*
X157495904Y-75380438D02*
X157734000Y-75475676D01*
X157972095Y-75380438D01*
X157591142Y-75666152D02*
X157734000Y-75475676D01*
X157876857Y-75666152D01*
X127544826Y-86917524D02*
X127544826Y-87728683D01*
X127592541Y-87824114D01*
X127640256Y-87871829D01*
X127735687Y-87919544D01*
X127926548Y-87919544D01*
X128021978Y-87871829D01*
X128069693Y-87824114D01*
X128117409Y-87728683D01*
X128117409Y-86917524D01*
X129119429Y-87919544D02*
X128546846Y-87919544D01*
X128833137Y-87919544D02*
X128833137Y-86917524D01*
X128737707Y-87060670D01*
X128642276Y-87156100D01*
X128546846Y-87203816D01*
X122593625Y-95681230D02*
X122593625Y-94678290D01*
X122927938Y-95394676D01*
X123262251Y-94678290D01*
X123262251Y-95681230D01*
X123739842Y-95681230D02*
X123739842Y-94678290D01*
X124121914Y-94678290D01*
X124217432Y-94726050D01*
X124265191Y-94773809D01*
X124312950Y-94869327D01*
X124312950Y-95012604D01*
X124265191Y-95108122D01*
X124217432Y-95155881D01*
X124121914Y-95203640D01*
X123739842Y-95203640D01*
X125268131Y-95681230D02*
X124695023Y-95681230D01*
X124981577Y-95681230D02*
X124981577Y-94678290D01*
X124886059Y-94821568D01*
X124790541Y-94917086D01*
X124695023Y-94964845D01*
X126175553Y-94678290D02*
X125697963Y-94678290D01*
X125650204Y-95155881D01*
X125697963Y-95108122D01*
X125793481Y-95060363D01*
X126032276Y-95060363D01*
X126127794Y-95108122D01*
X126175553Y-95155881D01*
X126223312Y-95251399D01*
X126223312Y-95490194D01*
X126175553Y-95585712D01*
X126127794Y-95633471D01*
X126032276Y-95681230D01*
X125793481Y-95681230D01*
X125697963Y-95633471D01*
X125650204Y-95585712D01*
X126796421Y-95108122D02*
X126700903Y-95060363D01*
X126653144Y-95012604D01*
X126605385Y-94917086D01*
X126605385Y-94869327D01*
X126653144Y-94773809D01*
X126700903Y-94726050D01*
X126796421Y-94678290D01*
X126987457Y-94678290D01*
X127082975Y-94726050D01*
X127130734Y-94773809D01*
X127178493Y-94869327D01*
X127178493Y-94917086D01*
X127130734Y-95012604D01*
X127082975Y-95060363D01*
X126987457Y-95108122D01*
X126796421Y-95108122D01*
X126700903Y-95155881D01*
X126653144Y-95203640D01*
X126605385Y-95299158D01*
X126605385Y-95490194D01*
X126653144Y-95585712D01*
X126700903Y-95633471D01*
X126796421Y-95681230D01*
X126987457Y-95681230D01*
X127082975Y-95633471D01*
X127130734Y-95585712D01*
X127178493Y-95490194D01*
X127178493Y-95299158D01*
X127130734Y-95203640D01*
X127082975Y-95155881D01*
X126987457Y-95108122D01*
X128038156Y-95012604D02*
X128038156Y-95681230D01*
X127799361Y-94630531D02*
X127560566Y-95346917D01*
X128181433Y-95346917D01*
X128563506Y-95155881D02*
X128897819Y-95155881D01*
X129041096Y-95681230D02*
X128563506Y-95681230D01*
X128563506Y-94678290D01*
X129041096Y-94678290D01*
X129470928Y-95681230D02*
X129470928Y-94678290D01*
X130044036Y-95681230D01*
X130044036Y-94678290D01*
X130521627Y-95299158D02*
X131285771Y-95299158D01*
X132240952Y-95681230D02*
X131763362Y-95681230D01*
X131763362Y-94678290D01*
X132909579Y-95155881D02*
X132575266Y-95155881D01*
X132575266Y-95681230D02*
X132575266Y-94678290D01*
X133052856Y-94678290D01*
X133434929Y-95299158D02*
X134199073Y-95299158D01*
X134581146Y-94678290D02*
X135249772Y-94678290D01*
X134581146Y-95681230D01*
X135249772Y-95681230D01*
D17*
X185870666Y-75604761D02*
X186013523Y-75652380D01*
X186251619Y-75652380D01*
X186346857Y-75604761D01*
X186394476Y-75557142D01*
X186442095Y-75461904D01*
X186442095Y-75366666D01*
X186394476Y-75271428D01*
X186346857Y-75223809D01*
X186251619Y-75176190D01*
X186061142Y-75128571D01*
X185965904Y-75080952D01*
X185918285Y-75033333D01*
X185870666Y-74938095D01*
X185870666Y-74842857D01*
X185918285Y-74747619D01*
X185965904Y-74700000D01*
X186061142Y-74652380D01*
X186299238Y-74652380D01*
X186442095Y-74700000D01*
X186775428Y-74652380D02*
X187013523Y-75652380D01*
X187204000Y-74938095D01*
X187394476Y-75652380D01*
X187632571Y-74652380D01*
X188537333Y-75652380D02*
X187965904Y-75652380D01*
X188251619Y-75652380D02*
X188251619Y-74652380D01*
X188156380Y-74795238D01*
X188061142Y-74890476D01*
X187965904Y-74938095D01*
X118105142Y-85202380D02*
X117771809Y-84726190D01*
X117533714Y-85202380D02*
X117533714Y-84202380D01*
X117914666Y-84202380D01*
X118009904Y-84250000D01*
X118057523Y-84297619D01*
X118105142Y-84392857D01*
X118105142Y-84535714D01*
X118057523Y-84630952D01*
X118009904Y-84678571D01*
X117914666Y-84726190D01*
X117533714Y-84726190D01*
X118486095Y-84297619D02*
X118533714Y-84250000D01*
X118628952Y-84202380D01*
X118867047Y-84202380D01*
X118962285Y-84250000D01*
X119009904Y-84297619D01*
X119057523Y-84392857D01*
X119057523Y-84488095D01*
X119009904Y-84630952D01*
X118438476Y-85202380D01*
X119057523Y-85202380D01*
X120009904Y-85202380D02*
X119438476Y-85202380D01*
X119724190Y-85202380D02*
X119724190Y-84202380D01*
X119628952Y-84345238D01*
X119533714Y-84440476D01*
X119438476Y-84488095D01*
X138380380Y-94017857D02*
X137904190Y-94351190D01*
X138380380Y-94589285D02*
X137380380Y-94589285D01*
X137380380Y-94208333D01*
X137428000Y-94113095D01*
X137475619Y-94065476D01*
X137570857Y-94017857D01*
X137713714Y-94017857D01*
X137808952Y-94065476D01*
X137856571Y-94113095D01*
X137904190Y-94208333D01*
X137904190Y-94589285D01*
X137475619Y-93636904D02*
X137428000Y-93589285D01*
X137380380Y-93494047D01*
X137380380Y-93255952D01*
X137428000Y-93160714D01*
X137475619Y-93113095D01*
X137570857Y-93065476D01*
X137666095Y-93065476D01*
X137808952Y-93113095D01*
X138380380Y-93684523D01*
X138380380Y-93065476D01*
X137380380Y-92446428D02*
X137380380Y-92351190D01*
X137428000Y-92255952D01*
X137475619Y-92208333D01*
X137570857Y-92160714D01*
X137761333Y-92113095D01*
X137999428Y-92113095D01*
X138189904Y-92160714D01*
X138285142Y-92208333D01*
X138332761Y-92255952D01*
X138380380Y-92351190D01*
X138380380Y-92446428D01*
X138332761Y-92541666D01*
X138285142Y-92589285D01*
X138189904Y-92636904D01*
X137999428Y-92684523D01*
X137761333Y-92684523D01*
X137570857Y-92636904D01*
X137475619Y-92589285D01*
X137428000Y-92541666D01*
X137380380Y-92446428D01*
X114855142Y-91022380D02*
X114521809Y-90546190D01*
X114283714Y-91022380D02*
X114283714Y-90022380D01*
X114664666Y-90022380D01*
X114759904Y-90070000D01*
X114807523Y-90117619D01*
X114855142Y-90212857D01*
X114855142Y-90355714D01*
X114807523Y-90450952D01*
X114759904Y-90498571D01*
X114664666Y-90546190D01*
X114283714Y-90546190D01*
X115807523Y-91022380D02*
X115236095Y-91022380D01*
X115521809Y-91022380D02*
X115521809Y-90022380D01*
X115426571Y-90165238D01*
X115331333Y-90260476D01*
X115236095Y-90308095D01*
X116283714Y-91022380D02*
X116474190Y-91022380D01*
X116569428Y-90974761D01*
X116617047Y-90927142D01*
X116712285Y-90784285D01*
X116759904Y-90593809D01*
X116759904Y-90212857D01*
X116712285Y-90117619D01*
X116664666Y-90070000D01*
X116569428Y-90022380D01*
X116378952Y-90022380D01*
X116283714Y-90070000D01*
X116236095Y-90117619D01*
X116188476Y-90212857D01*
X116188476Y-90450952D01*
X116236095Y-90546190D01*
X116283714Y-90593809D01*
X116378952Y-90641428D01*
X116569428Y-90641428D01*
X116664666Y-90593809D01*
X116712285Y-90546190D01*
X116759904Y-90450952D01*
X120380380Y-97142857D02*
X119904190Y-97476190D01*
X120380380Y-97714285D02*
X119380380Y-97714285D01*
X119380380Y-97333333D01*
X119428000Y-97238095D01*
X119475619Y-97190476D01*
X119570857Y-97142857D01*
X119713714Y-97142857D01*
X119808952Y-97190476D01*
X119856571Y-97238095D01*
X119904190Y-97333333D01*
X119904190Y-97714285D01*
X120380380Y-96190476D02*
X120380380Y-96761904D01*
X120380380Y-96476190D02*
X119380380Y-96476190D01*
X119523238Y-96571428D01*
X119618476Y-96666666D01*
X119666095Y-96761904D01*
X119808952Y-95619047D02*
X119761333Y-95714285D01*
X119713714Y-95761904D01*
X119618476Y-95809523D01*
X119570857Y-95809523D01*
X119475619Y-95761904D01*
X119428000Y-95714285D01*
X119380380Y-95619047D01*
X119380380Y-95428571D01*
X119428000Y-95333333D01*
X119475619Y-95285714D01*
X119570857Y-95238095D01*
X119618476Y-95238095D01*
X119713714Y-95285714D01*
X119761333Y-95333333D01*
X119808952Y-95428571D01*
X119808952Y-95619047D01*
X119856571Y-95714285D01*
X119904190Y-95761904D01*
X119999428Y-95809523D01*
X120189904Y-95809523D01*
X120285142Y-95761904D01*
X120332761Y-95714285D01*
X120380380Y-95619047D01*
X120380380Y-95428571D01*
X120332761Y-95333333D01*
X120285142Y-95285714D01*
X120189904Y-95238095D01*
X119999428Y-95238095D01*
X119904190Y-95285714D01*
X119856571Y-95333333D01*
X119808952Y-95428571D01*
X120512142Y-87200380D02*
X120178809Y-86724190D01*
X119940714Y-87200380D02*
X119940714Y-86200380D01*
X120321666Y-86200380D01*
X120416904Y-86248000D01*
X120464523Y-86295619D01*
X120512142Y-86390857D01*
X120512142Y-86533714D01*
X120464523Y-86628952D01*
X120416904Y-86676571D01*
X120321666Y-86724190D01*
X119940714Y-86724190D01*
X121464523Y-87200380D02*
X120893095Y-87200380D01*
X121178809Y-87200380D02*
X121178809Y-86200380D01*
X121083571Y-86343238D01*
X120988333Y-86438476D01*
X120893095Y-86486095D01*
X122321666Y-86200380D02*
X122131190Y-86200380D01*
X122035952Y-86248000D01*
X121988333Y-86295619D01*
X121893095Y-86438476D01*
X121845476Y-86628952D01*
X121845476Y-87009904D01*
X121893095Y-87105142D01*
X121940714Y-87152761D01*
X122035952Y-87200380D01*
X122226428Y-87200380D01*
X122321666Y-87152761D01*
X122369285Y-87105142D01*
X122416904Y-87009904D01*
X122416904Y-86771809D01*
X122369285Y-86676571D01*
X122321666Y-86628952D01*
X122226428Y-86581333D01*
X122035952Y-86581333D01*
X121940714Y-86628952D01*
X121893095Y-86676571D01*
X121845476Y-86771809D01*
X149725142Y-84830380D02*
X149391809Y-84354190D01*
X149153714Y-84830380D02*
X149153714Y-83830380D01*
X149534666Y-83830380D01*
X149629904Y-83878000D01*
X149677523Y-83925619D01*
X149725142Y-84020857D01*
X149725142Y-84163714D01*
X149677523Y-84258952D01*
X149629904Y-84306571D01*
X149534666Y-84354190D01*
X149153714Y-84354190D01*
X150677523Y-84830380D02*
X150106095Y-84830380D01*
X150391809Y-84830380D02*
X150391809Y-83830380D01*
X150296571Y-83973238D01*
X150201333Y-84068476D01*
X150106095Y-84116095D01*
X151582285Y-83830380D02*
X151106095Y-83830380D01*
X151058476Y-84306571D01*
X151106095Y-84258952D01*
X151201333Y-84211333D01*
X151439428Y-84211333D01*
X151534666Y-84258952D01*
X151582285Y-84306571D01*
X151629904Y-84401809D01*
X151629904Y-84639904D01*
X151582285Y-84735142D01*
X151534666Y-84782761D01*
X151439428Y-84830380D01*
X151201333Y-84830380D01*
X151106095Y-84782761D01*
X151058476Y-84735142D01*
X153357142Y-105150380D02*
X153023809Y-104674190D01*
X152785714Y-105150380D02*
X152785714Y-104150380D01*
X153166666Y-104150380D01*
X153261904Y-104198000D01*
X153309523Y-104245619D01*
X153357142Y-104340857D01*
X153357142Y-104483714D01*
X153309523Y-104578952D01*
X153261904Y-104626571D01*
X153166666Y-104674190D01*
X152785714Y-104674190D01*
X154309523Y-105150380D02*
X153738095Y-105150380D01*
X154023809Y-105150380D02*
X154023809Y-104150380D01*
X153928571Y-104293238D01*
X153833333Y-104388476D01*
X153738095Y-104436095D01*
X155166666Y-104483714D02*
X155166666Y-105150380D01*
X154928571Y-104102761D02*
X154690476Y-104817047D01*
X155309523Y-104817047D01*
X153357142Y-106354380D02*
X153023809Y-105878190D01*
X152785714Y-106354380D02*
X152785714Y-105354380D01*
X153166666Y-105354380D01*
X153261904Y-105402000D01*
X153309523Y-105449619D01*
X153357142Y-105544857D01*
X153357142Y-105687714D01*
X153309523Y-105782952D01*
X153261904Y-105830571D01*
X153166666Y-105878190D01*
X152785714Y-105878190D01*
X154309523Y-106354380D02*
X153738095Y-106354380D01*
X154023809Y-106354380D02*
X154023809Y-105354380D01*
X153928571Y-105497238D01*
X153833333Y-105592476D01*
X153738095Y-105640095D01*
X154642857Y-105354380D02*
X155261904Y-105354380D01*
X154928571Y-105735333D01*
X155071428Y-105735333D01*
X155166666Y-105782952D01*
X155214285Y-105830571D01*
X155261904Y-105925809D01*
X155261904Y-106163904D01*
X155214285Y-106259142D01*
X155166666Y-106306761D01*
X155071428Y-106354380D01*
X154785714Y-106354380D01*
X154690476Y-106306761D01*
X154642857Y-106259142D01*
X170218380Y-114070857D02*
X169742190Y-114404190D01*
X170218380Y-114642285D02*
X169218380Y-114642285D01*
X169218380Y-114261333D01*
X169266000Y-114166095D01*
X169313619Y-114118476D01*
X169408857Y-114070857D01*
X169551714Y-114070857D01*
X169646952Y-114118476D01*
X169694571Y-114166095D01*
X169742190Y-114261333D01*
X169742190Y-114642285D01*
X170218380Y-113118476D02*
X170218380Y-113689904D01*
X170218380Y-113404190D02*
X169218380Y-113404190D01*
X169361238Y-113499428D01*
X169456476Y-113594666D01*
X169504095Y-113689904D01*
X170218380Y-112166095D02*
X170218380Y-112737523D01*
X170218380Y-112451809D02*
X169218380Y-112451809D01*
X169361238Y-112547047D01*
X169456476Y-112642285D01*
X169504095Y-112737523D01*
X179936380Y-102386857D02*
X179460190Y-102720190D01*
X179936380Y-102958285D02*
X178936380Y-102958285D01*
X178936380Y-102577333D01*
X178984000Y-102482095D01*
X179031619Y-102434476D01*
X179126857Y-102386857D01*
X179269714Y-102386857D01*
X179364952Y-102434476D01*
X179412571Y-102482095D01*
X179460190Y-102577333D01*
X179460190Y-102958285D01*
X179936380Y-101434476D02*
X179936380Y-102005904D01*
X179936380Y-101720190D02*
X178936380Y-101720190D01*
X179079238Y-101815428D01*
X179174476Y-101910666D01*
X179222095Y-102005904D01*
X178936380Y-100815428D02*
X178936380Y-100720190D01*
X178984000Y-100624952D01*
X179031619Y-100577333D01*
X179126857Y-100529714D01*
X179317333Y-100482095D01*
X179555428Y-100482095D01*
X179745904Y-100529714D01*
X179841142Y-100577333D01*
X179888761Y-100624952D01*
X179936380Y-100720190D01*
X179936380Y-100815428D01*
X179888761Y-100910666D01*
X179841142Y-100958285D01*
X179745904Y-101005904D01*
X179555428Y-101053523D01*
X179317333Y-101053523D01*
X179126857Y-101005904D01*
X179031619Y-100958285D01*
X178984000Y-100910666D01*
X178936380Y-100815428D01*
X156568380Y-113594666D02*
X156092190Y-113928000D01*
X156568380Y-114166095D02*
X155568380Y-114166095D01*
X155568380Y-113785142D01*
X155616000Y-113689904D01*
X155663619Y-113642285D01*
X155758857Y-113594666D01*
X155901714Y-113594666D01*
X155996952Y-113642285D01*
X156044571Y-113689904D01*
X156092190Y-113785142D01*
X156092190Y-114166095D01*
X156568380Y-113118476D02*
X156568380Y-112928000D01*
X156520761Y-112832761D01*
X156473142Y-112785142D01*
X156330285Y-112689904D01*
X156139809Y-112642285D01*
X155758857Y-112642285D01*
X155663619Y-112689904D01*
X155616000Y-112737523D01*
X155568380Y-112832761D01*
X155568380Y-113023238D01*
X155616000Y-113118476D01*
X155663619Y-113166095D01*
X155758857Y-113213714D01*
X155996952Y-113213714D01*
X156092190Y-113166095D01*
X156139809Y-113118476D01*
X156187428Y-113023238D01*
X156187428Y-112832761D01*
X156139809Y-112737523D01*
X156092190Y-112689904D01*
X155996952Y-112642285D01*
X174602380Y-101910666D02*
X174126190Y-102244000D01*
X174602380Y-102482095D02*
X173602380Y-102482095D01*
X173602380Y-102101142D01*
X173650000Y-102005904D01*
X173697619Y-101958285D01*
X173792857Y-101910666D01*
X173935714Y-101910666D01*
X174030952Y-101958285D01*
X174078571Y-102005904D01*
X174126190Y-102101142D01*
X174126190Y-102482095D01*
X174030952Y-101339238D02*
X173983333Y-101434476D01*
X173935714Y-101482095D01*
X173840476Y-101529714D01*
X173792857Y-101529714D01*
X173697619Y-101482095D01*
X173650000Y-101434476D01*
X173602380Y-101339238D01*
X173602380Y-101148761D01*
X173650000Y-101053523D01*
X173697619Y-101005904D01*
X173792857Y-100958285D01*
X173840476Y-100958285D01*
X173935714Y-101005904D01*
X173983333Y-101053523D01*
X174030952Y-101148761D01*
X174030952Y-101339238D01*
X174078571Y-101434476D01*
X174126190Y-101482095D01*
X174221428Y-101529714D01*
X174411904Y-101529714D01*
X174507142Y-101482095D01*
X174554761Y-101434476D01*
X174602380Y-101339238D01*
X174602380Y-101148761D01*
X174554761Y-101053523D01*
X174507142Y-101005904D01*
X174411904Y-100958285D01*
X174221428Y-100958285D01*
X174126190Y-101005904D01*
X174078571Y-101053523D01*
X174030952Y-101148761D01*
X151234380Y-70414666D02*
X150758190Y-70748000D01*
X151234380Y-70986095D02*
X150234380Y-70986095D01*
X150234380Y-70605142D01*
X150282000Y-70509904D01*
X150329619Y-70462285D01*
X150424857Y-70414666D01*
X150567714Y-70414666D01*
X150662952Y-70462285D01*
X150710571Y-70509904D01*
X150758190Y-70605142D01*
X150758190Y-70986095D01*
X150234380Y-70081333D02*
X150234380Y-69414666D01*
X151234380Y-69843238D01*
X153249333Y-73080380D02*
X152916000Y-72604190D01*
X152677904Y-73080380D02*
X152677904Y-72080380D01*
X153058857Y-72080380D01*
X153154095Y-72128000D01*
X153201714Y-72175619D01*
X153249333Y-72270857D01*
X153249333Y-72413714D01*
X153201714Y-72508952D01*
X153154095Y-72556571D01*
X153058857Y-72604190D01*
X152677904Y-72604190D01*
X154106476Y-72080380D02*
X153916000Y-72080380D01*
X153820761Y-72128000D01*
X153773142Y-72175619D01*
X153677904Y-72318476D01*
X153630285Y-72508952D01*
X153630285Y-72889904D01*
X153677904Y-72985142D01*
X153725523Y-73032761D01*
X153820761Y-73080380D01*
X154011238Y-73080380D01*
X154106476Y-73032761D01*
X154154095Y-72985142D01*
X154201714Y-72889904D01*
X154201714Y-72651809D01*
X154154095Y-72556571D01*
X154106476Y-72508952D01*
X154011238Y-72461333D01*
X153820761Y-72461333D01*
X153725523Y-72508952D01*
X153677904Y-72556571D01*
X153630285Y-72651809D01*
X152741333Y-59704380D02*
X152408000Y-59228190D01*
X152169904Y-59704380D02*
X152169904Y-58704380D01*
X152550857Y-58704380D01*
X152646095Y-58752000D01*
X152693714Y-58799619D01*
X152741333Y-58894857D01*
X152741333Y-59037714D01*
X152693714Y-59132952D01*
X152646095Y-59180571D01*
X152550857Y-59228190D01*
X152169904Y-59228190D01*
X153646095Y-58704380D02*
X153169904Y-58704380D01*
X153122285Y-59180571D01*
X153169904Y-59132952D01*
X153265142Y-59085333D01*
X153503238Y-59085333D01*
X153598476Y-59132952D01*
X153646095Y-59180571D01*
X153693714Y-59275809D01*
X153693714Y-59513904D01*
X153646095Y-59609142D01*
X153598476Y-59656761D01*
X153503238Y-59704380D01*
X153265142Y-59704380D01*
X153169904Y-59656761D01*
X153122285Y-59609142D01*
X150201333Y-80258380D02*
X149868000Y-79782190D01*
X149629904Y-80258380D02*
X149629904Y-79258380D01*
X150010857Y-79258380D01*
X150106095Y-79306000D01*
X150153714Y-79353619D01*
X150201333Y-79448857D01*
X150201333Y-79591714D01*
X150153714Y-79686952D01*
X150106095Y-79734571D01*
X150010857Y-79782190D01*
X149629904Y-79782190D01*
X151058476Y-79591714D02*
X151058476Y-80258380D01*
X150820380Y-79210761D02*
X150582285Y-79925047D01*
X151201333Y-79925047D01*
X180952380Y-77272666D02*
X180476190Y-77606000D01*
X180952380Y-77844095D02*
X179952380Y-77844095D01*
X179952380Y-77463142D01*
X180000000Y-77367904D01*
X180047619Y-77320285D01*
X180142857Y-77272666D01*
X180285714Y-77272666D01*
X180380952Y-77320285D01*
X180428571Y-77367904D01*
X180476190Y-77463142D01*
X180476190Y-77844095D01*
X179952380Y-76939333D02*
X179952380Y-76320285D01*
X180333333Y-76653619D01*
X180333333Y-76510761D01*
X180380952Y-76415523D01*
X180428571Y-76367904D01*
X180523809Y-76320285D01*
X180761904Y-76320285D01*
X180857142Y-76367904D01*
X180904761Y-76415523D01*
X180952380Y-76510761D01*
X180952380Y-76796476D01*
X180904761Y-76891714D01*
X180857142Y-76939333D01*
X186794380Y-93782666D02*
X186318190Y-94116000D01*
X186794380Y-94354095D02*
X185794380Y-94354095D01*
X185794380Y-93973142D01*
X185842000Y-93877904D01*
X185889619Y-93830285D01*
X185984857Y-93782666D01*
X186127714Y-93782666D01*
X186222952Y-93830285D01*
X186270571Y-93877904D01*
X186318190Y-93973142D01*
X186318190Y-94354095D01*
X185889619Y-93401714D02*
X185842000Y-93354095D01*
X185794380Y-93258857D01*
X185794380Y-93020761D01*
X185842000Y-92925523D01*
X185889619Y-92877904D01*
X185984857Y-92830285D01*
X186080095Y-92830285D01*
X186222952Y-92877904D01*
X186794380Y-93449333D01*
X186794380Y-92830285D01*
X200096380Y-97338666D02*
X199620190Y-97672000D01*
X200096380Y-97910095D02*
X199096380Y-97910095D01*
X199096380Y-97529142D01*
X199144000Y-97433904D01*
X199191619Y-97386285D01*
X199286857Y-97338666D01*
X199429714Y-97338666D01*
X199524952Y-97386285D01*
X199572571Y-97433904D01*
X199620190Y-97529142D01*
X199620190Y-97910095D01*
X200096380Y-96386285D02*
X200096380Y-96957714D01*
X200096380Y-96672000D02*
X199096380Y-96672000D01*
X199239238Y-96767238D01*
X199334476Y-96862476D01*
X199382095Y-96957714D01*
X178720761Y-117483619D02*
X178625523Y-117436000D01*
X178530285Y-117340761D01*
X178387428Y-117197904D01*
X178292190Y-117150285D01*
X178196952Y-117150285D01*
X178244571Y-117388380D02*
X178149333Y-117340761D01*
X178054095Y-117245523D01*
X178006476Y-117055047D01*
X178006476Y-116721714D01*
X178054095Y-116531238D01*
X178149333Y-116436000D01*
X178244571Y-116388380D01*
X178435047Y-116388380D01*
X178530285Y-116436000D01*
X178625523Y-116531238D01*
X178673142Y-116721714D01*
X178673142Y-117055047D01*
X178625523Y-117245523D01*
X178530285Y-117340761D01*
X178435047Y-117388380D01*
X178244571Y-117388380D01*
X179054095Y-116483619D02*
X179101714Y-116436000D01*
X179196952Y-116388380D01*
X179435047Y-116388380D01*
X179530285Y-116436000D01*
X179577904Y-116483619D01*
X179625523Y-116578857D01*
X179625523Y-116674095D01*
X179577904Y-116816952D01*
X179006476Y-117388380D01*
X179625523Y-117388380D01*
X162972761Y-117483619D02*
X162877523Y-117436000D01*
X162782285Y-117340761D01*
X162639428Y-117197904D01*
X162544190Y-117150285D01*
X162448952Y-117150285D01*
X162496571Y-117388380D02*
X162401333Y-117340761D01*
X162306095Y-117245523D01*
X162258476Y-117055047D01*
X162258476Y-116721714D01*
X162306095Y-116531238D01*
X162401333Y-116436000D01*
X162496571Y-116388380D01*
X162687047Y-116388380D01*
X162782285Y-116436000D01*
X162877523Y-116531238D01*
X162925142Y-116721714D01*
X162925142Y-117055047D01*
X162877523Y-117245523D01*
X162782285Y-117340761D01*
X162687047Y-117388380D01*
X162496571Y-117388380D01*
X163877523Y-117388380D02*
X163306095Y-117388380D01*
X163591809Y-117388380D02*
X163591809Y-116388380D01*
X163496571Y-116531238D01*
X163401333Y-116626476D01*
X163306095Y-116674095D01*
D18*
X122787225Y-71349115D02*
X122004925Y-71349115D01*
X122004925Y-69706285D01*
X123647755Y-69706285D02*
X123804215Y-69706285D01*
X123960675Y-69784515D01*
X124038905Y-69862745D01*
X124117135Y-70019205D01*
X124195365Y-70332125D01*
X124195365Y-70723275D01*
X124117135Y-71036195D01*
X124038905Y-71192655D01*
X123960675Y-71270885D01*
X123804215Y-71349115D01*
X123647755Y-71349115D01*
X123491295Y-71270885D01*
X123413065Y-71192655D01*
X123334835Y-71036195D01*
X123256605Y-70723275D01*
X123256605Y-70332125D01*
X123334835Y-70019205D01*
X123413065Y-69862745D01*
X123491295Y-69784515D01*
X123647755Y-69706285D01*
X121580448Y-82609991D02*
X120643208Y-82609991D01*
X121111828Y-82609991D02*
X121111828Y-80969821D01*
X120955621Y-81204131D01*
X120799415Y-81360338D01*
X120643208Y-81438441D01*
X122595791Y-80969821D02*
X122751998Y-80969821D01*
X122908205Y-81047925D01*
X122986308Y-81126028D01*
X123064411Y-81282235D01*
X123142515Y-81594648D01*
X123142515Y-81985165D01*
X123064411Y-82297578D01*
X122986308Y-82453785D01*
X122908205Y-82531888D01*
X122751998Y-82609991D01*
X122595791Y-82609991D01*
X122439585Y-82531888D01*
X122361481Y-82453785D01*
X122283378Y-82297578D01*
X122205275Y-81985165D01*
X122205275Y-81594648D01*
X122283378Y-81282235D01*
X122361481Y-81126028D01*
X122439585Y-81047925D01*
X122595791Y-80969821D01*
X124548375Y-81516545D02*
X124548375Y-82609991D01*
X123845445Y-81516545D02*
X123845445Y-82375681D01*
X123923548Y-82531888D01*
X124079755Y-82609991D01*
X124314065Y-82609991D01*
X124470271Y-82531888D01*
X124548375Y-82453785D01*
X125329408Y-82609991D02*
X125329408Y-80969821D01*
X125329408Y-81750855D02*
X126266648Y-81750855D01*
X126266648Y-82609991D02*
X126266648Y-80969821D01*
D17*
X168826380Y-61945333D02*
X169540666Y-61945333D01*
X169683523Y-61992952D01*
X169778761Y-62088190D01*
X169826380Y-62231047D01*
X169826380Y-62326285D01*
X168826380Y-61564380D02*
X168826380Y-60945333D01*
X169207333Y-61278666D01*
X169207333Y-61135809D01*
X169254952Y-61040571D01*
X169302571Y-60992952D01*
X169397809Y-60945333D01*
X169635904Y-60945333D01*
X169731142Y-60992952D01*
X169778761Y-61040571D01*
X169826380Y-61135809D01*
X169826380Y-61421523D01*
X169778761Y-61516761D01*
X169731142Y-61564380D01*
X152316380Y-68803333D02*
X153030666Y-68803333D01*
X153173523Y-68850952D01*
X153268761Y-68946190D01*
X153316380Y-69089047D01*
X153316380Y-69184285D01*
X153316380Y-67803333D02*
X153316380Y-68374761D01*
X153316380Y-68089047D02*
X152316380Y-68089047D01*
X152459238Y-68184285D01*
X152554476Y-68279523D01*
X152602095Y-68374761D01*
D18*
X130158104Y-81137816D02*
X129677304Y-81137816D01*
X129677304Y-81023340D01*
X129700200Y-80954654D01*
X129745990Y-80908863D01*
X129791780Y-80885968D01*
X129883361Y-80863073D01*
X129952047Y-80863073D01*
X130043628Y-80885968D01*
X130089419Y-80908863D01*
X130135209Y-80954654D01*
X130158104Y-81023340D01*
X130158104Y-81137816D01*
X129677304Y-80702806D02*
X129677304Y-80405168D01*
X129860466Y-80565435D01*
X129860466Y-80496749D01*
X129883361Y-80450959D01*
X129906257Y-80428063D01*
X129952047Y-80405168D01*
X130066523Y-80405168D01*
X130112314Y-80428063D01*
X130135209Y-80450959D01*
X130158104Y-80496749D01*
X130158104Y-80634120D01*
X130135209Y-80679911D01*
X130112314Y-80702806D01*
X133161216Y-83060720D02*
X133161216Y-83335149D01*
X133161216Y-83197935D02*
X132680965Y-83197935D01*
X132749572Y-83243673D01*
X132795310Y-83289411D01*
X132818179Y-83335149D01*
X133161216Y-82854898D02*
X132680965Y-82854898D01*
X133161216Y-82580469D01*
X132680965Y-82580469D01*
X132680965Y-82123087D02*
X132680965Y-82351778D01*
X132909656Y-82374647D01*
X132886787Y-82351778D01*
X132863918Y-82306040D01*
X132863918Y-82191695D01*
X132886787Y-82145956D01*
X132909656Y-82123087D01*
X132955394Y-82100218D01*
X133069740Y-82100218D01*
X133115478Y-82123087D01*
X133138347Y-82145956D01*
X133161216Y-82191695D01*
X133161216Y-82306040D01*
X133138347Y-82351778D01*
X133115478Y-82374647D01*
X132886787Y-81825789D02*
X132863918Y-81871527D01*
X132841049Y-81894396D01*
X132795310Y-81917266D01*
X132772441Y-81917266D01*
X132726703Y-81894396D01*
X132703834Y-81871527D01*
X132680965Y-81825789D01*
X132680965Y-81734313D01*
X132703834Y-81688575D01*
X132726703Y-81665705D01*
X132772441Y-81642836D01*
X132795310Y-81642836D01*
X132841049Y-81665705D01*
X132863918Y-81688575D01*
X132886787Y-81734313D01*
X132886787Y-81825789D01*
X132909656Y-81871527D01*
X132932525Y-81894396D01*
X132978263Y-81917266D01*
X133069740Y-81917266D01*
X133115478Y-81894396D01*
X133138347Y-81871527D01*
X133161216Y-81825789D01*
X133161216Y-81734313D01*
X133138347Y-81688575D01*
X133115478Y-81665705D01*
X133069740Y-81642836D01*
X132978263Y-81642836D01*
X132932525Y-81665705D01*
X132909656Y-81688575D01*
X132886787Y-81734313D01*
X133161216Y-81185454D02*
X133161216Y-81459884D01*
X133161216Y-81322669D02*
X132680965Y-81322669D01*
X132749572Y-81368407D01*
X132795310Y-81414145D01*
X132818179Y-81459884D01*
X133161216Y-80956764D02*
X133161216Y-80865287D01*
X133138347Y-80819549D01*
X133115478Y-80796680D01*
X133046870Y-80750942D01*
X132955394Y-80728073D01*
X132772441Y-80728073D01*
X132726703Y-80750942D01*
X132703834Y-80773811D01*
X132680965Y-80819549D01*
X132680965Y-80911025D01*
X132703834Y-80956764D01*
X132726703Y-80979633D01*
X132772441Y-81002502D01*
X132886787Y-81002502D01*
X132932525Y-80979633D01*
X132955394Y-80956764D01*
X132978263Y-80911025D01*
X132978263Y-80819549D01*
X132955394Y-80773811D01*
X132932525Y-80750942D01*
X132886787Y-80728073D01*
X133161216Y-80522251D02*
X132680965Y-80522251D01*
X132909656Y-80522251D02*
X132909656Y-80247822D01*
X133161216Y-80247822D02*
X132680965Y-80247822D01*
X132680965Y-80064869D02*
X133161216Y-79950523D01*
X132818179Y-79859047D01*
X133161216Y-79767571D01*
X132680965Y-79653225D01*
X132978263Y-79470272D02*
X132978263Y-79104367D01*
X132680965Y-78921414D02*
X132680965Y-78601247D01*
X133161216Y-78807069D01*
X132978263Y-78418294D02*
X132978263Y-78052388D01*
X132909656Y-77663614D02*
X132909656Y-77823697D01*
X133161216Y-77823697D02*
X132680965Y-77823697D01*
X132680965Y-77595007D01*
D17*
X143533904Y-81970380D02*
X143533904Y-80970380D01*
X143772000Y-80970380D01*
X143914857Y-81018000D01*
X144010095Y-81113238D01*
X144057714Y-81208476D01*
X144105333Y-81398952D01*
X144105333Y-81541809D01*
X144057714Y-81732285D01*
X144010095Y-81827523D01*
X143914857Y-81922761D01*
X143772000Y-81970380D01*
X143533904Y-81970380D01*
X144486285Y-81065619D02*
X144533904Y-81018000D01*
X144629142Y-80970380D01*
X144867238Y-80970380D01*
X144962476Y-81018000D01*
X145010095Y-81065619D01*
X145057714Y-81160857D01*
X145057714Y-81256095D01*
X145010095Y-81398952D01*
X144438666Y-81970380D01*
X145057714Y-81970380D01*
X143533904Y-77398380D02*
X143533904Y-76398380D01*
X143772000Y-76398380D01*
X143914857Y-76446000D01*
X144010095Y-76541238D01*
X144057714Y-76636476D01*
X144105333Y-76826952D01*
X144105333Y-76969809D01*
X144057714Y-77160285D01*
X144010095Y-77255523D01*
X143914857Y-77350761D01*
X143772000Y-77398380D01*
X143533904Y-77398380D01*
X145057714Y-77398380D02*
X144486285Y-77398380D01*
X144772000Y-77398380D02*
X144772000Y-76398380D01*
X144676761Y-76541238D01*
X144581523Y-76636476D01*
X144486285Y-76684095D01*
X125990142Y-112675142D02*
X125942523Y-112722761D01*
X125799666Y-112770380D01*
X125704428Y-112770380D01*
X125561571Y-112722761D01*
X125466333Y-112627523D01*
X125418714Y-112532285D01*
X125371095Y-112341809D01*
X125371095Y-112198952D01*
X125418714Y-112008476D01*
X125466333Y-111913238D01*
X125561571Y-111818000D01*
X125704428Y-111770380D01*
X125799666Y-111770380D01*
X125942523Y-111818000D01*
X125990142Y-111865619D01*
X126942523Y-112770380D02*
X126371095Y-112770380D01*
X126656809Y-112770380D02*
X126656809Y-111770380D01*
X126561571Y-111913238D01*
X126466333Y-112008476D01*
X126371095Y-112056095D01*
X127799666Y-111770380D02*
X127609190Y-111770380D01*
X127513952Y-111818000D01*
X127466333Y-111865619D01*
X127371095Y-112008476D01*
X127323476Y-112198952D01*
X127323476Y-112579904D01*
X127371095Y-112675142D01*
X127418714Y-112722761D01*
X127513952Y-112770380D01*
X127704428Y-112770380D01*
X127799666Y-112722761D01*
X127847285Y-112675142D01*
X127894904Y-112579904D01*
X127894904Y-112341809D01*
X127847285Y-112246571D01*
X127799666Y-112198952D01*
X127704428Y-112151333D01*
X127513952Y-112151333D01*
X127418714Y-112198952D01*
X127371095Y-112246571D01*
X127323476Y-112341809D01*
X124579142Y-107555142D02*
X124531523Y-107602761D01*
X124388666Y-107650380D01*
X124293428Y-107650380D01*
X124150571Y-107602761D01*
X124055333Y-107507523D01*
X124007714Y-107412285D01*
X123960095Y-107221809D01*
X123960095Y-107078952D01*
X124007714Y-106888476D01*
X124055333Y-106793238D01*
X124150571Y-106698000D01*
X124293428Y-106650380D01*
X124388666Y-106650380D01*
X124531523Y-106698000D01*
X124579142Y-106745619D01*
X125531523Y-107650380D02*
X124960095Y-107650380D01*
X125245809Y-107650380D02*
X125245809Y-106650380D01*
X125150571Y-106793238D01*
X125055333Y-106888476D01*
X124960095Y-106936095D01*
X126436285Y-106650380D02*
X125960095Y-106650380D01*
X125912476Y-107126571D01*
X125960095Y-107078952D01*
X126055333Y-107031333D01*
X126293428Y-107031333D01*
X126388666Y-107078952D01*
X126436285Y-107126571D01*
X126483904Y-107221809D01*
X126483904Y-107459904D01*
X126436285Y-107555142D01*
X126388666Y-107602761D01*
X126293428Y-107650380D01*
X126055333Y-107650380D01*
X125960095Y-107602761D01*
X125912476Y-107555142D01*
X118355142Y-79427142D02*
X118307523Y-79474761D01*
X118164666Y-79522380D01*
X118069428Y-79522380D01*
X117926571Y-79474761D01*
X117831333Y-79379523D01*
X117783714Y-79284285D01*
X117736095Y-79093809D01*
X117736095Y-78950952D01*
X117783714Y-78760476D01*
X117831333Y-78665238D01*
X117926571Y-78570000D01*
X118069428Y-78522380D01*
X118164666Y-78522380D01*
X118307523Y-78570000D01*
X118355142Y-78617619D01*
X119307523Y-79522380D02*
X118736095Y-79522380D01*
X119021809Y-79522380D02*
X119021809Y-78522380D01*
X118926571Y-78665238D01*
X118831333Y-78760476D01*
X118736095Y-78808095D01*
X120164666Y-78855714D02*
X120164666Y-79522380D01*
X119926571Y-78474761D02*
X119688476Y-79189047D01*
X120307523Y-79189047D01*
X193413142Y-73305142D02*
X193365523Y-73352761D01*
X193222666Y-73400380D01*
X193127428Y-73400380D01*
X192984571Y-73352761D01*
X192889333Y-73257523D01*
X192841714Y-73162285D01*
X192794095Y-72971809D01*
X192794095Y-72828952D01*
X192841714Y-72638476D01*
X192889333Y-72543238D01*
X192984571Y-72448000D01*
X193127428Y-72400380D01*
X193222666Y-72400380D01*
X193365523Y-72448000D01*
X193413142Y-72495619D01*
X194365523Y-73400380D02*
X193794095Y-73400380D01*
X194079809Y-73400380D02*
X194079809Y-72400380D01*
X193984571Y-72543238D01*
X193889333Y-72638476D01*
X193794095Y-72686095D01*
X194746476Y-72495619D02*
X194794095Y-72448000D01*
X194889333Y-72400380D01*
X195127428Y-72400380D01*
X195222666Y-72448000D01*
X195270285Y-72495619D01*
X195317904Y-72590857D01*
X195317904Y-72686095D01*
X195270285Y-72828952D01*
X194698857Y-73400380D01*
X195317904Y-73400380D01*
X145153142Y-74255142D02*
X145105523Y-74302761D01*
X144962666Y-74350380D01*
X144867428Y-74350380D01*
X144724571Y-74302761D01*
X144629333Y-74207523D01*
X144581714Y-74112285D01*
X144534095Y-73921809D01*
X144534095Y-73778952D01*
X144581714Y-73588476D01*
X144629333Y-73493238D01*
X144724571Y-73398000D01*
X144867428Y-73350380D01*
X144962666Y-73350380D01*
X145105523Y-73398000D01*
X145153142Y-73445619D01*
X146105523Y-74350380D02*
X145534095Y-74350380D01*
X145819809Y-74350380D02*
X145819809Y-73350380D01*
X145724571Y-73493238D01*
X145629333Y-73588476D01*
X145534095Y-73636095D01*
X147057904Y-74350380D02*
X146486476Y-74350380D01*
X146772190Y-74350380D02*
X146772190Y-73350380D01*
X146676952Y-73493238D01*
X146581714Y-73588476D01*
X146486476Y-73636095D01*
X114980142Y-89537142D02*
X114932523Y-89584761D01*
X114789666Y-89632380D01*
X114694428Y-89632380D01*
X114551571Y-89584761D01*
X114456333Y-89489523D01*
X114408714Y-89394285D01*
X114361095Y-89203809D01*
X114361095Y-89060952D01*
X114408714Y-88870476D01*
X114456333Y-88775238D01*
X114551571Y-88680000D01*
X114694428Y-88632380D01*
X114789666Y-88632380D01*
X114932523Y-88680000D01*
X114980142Y-88727619D01*
X115932523Y-89632380D02*
X115361095Y-89632380D01*
X115646809Y-89632380D02*
X115646809Y-88632380D01*
X115551571Y-88775238D01*
X115456333Y-88870476D01*
X115361095Y-88918095D01*
X116551571Y-88632380D02*
X116646809Y-88632380D01*
X116742047Y-88680000D01*
X116789666Y-88727619D01*
X116837285Y-88822857D01*
X116884904Y-89013333D01*
X116884904Y-89251428D01*
X116837285Y-89441904D01*
X116789666Y-89537142D01*
X116742047Y-89584761D01*
X116646809Y-89632380D01*
X116551571Y-89632380D01*
X116456333Y-89584761D01*
X116408714Y-89537142D01*
X116361095Y-89441904D01*
X116313476Y-89251428D01*
X116313476Y-89013333D01*
X116361095Y-88822857D01*
X116408714Y-88727619D01*
X116456333Y-88680000D01*
X116551571Y-88632380D01*
X130456333Y-87787142D02*
X130408714Y-87834761D01*
X130265857Y-87882380D01*
X130170619Y-87882380D01*
X130027761Y-87834761D01*
X129932523Y-87739523D01*
X129884904Y-87644285D01*
X129837285Y-87453809D01*
X129837285Y-87310952D01*
X129884904Y-87120476D01*
X129932523Y-87025238D01*
X130027761Y-86930000D01*
X130170619Y-86882380D01*
X130265857Y-86882380D01*
X130408714Y-86930000D01*
X130456333Y-86977619D01*
X130932523Y-87882380D02*
X131123000Y-87882380D01*
X131218238Y-87834761D01*
X131265857Y-87787142D01*
X131361095Y-87644285D01*
X131408714Y-87453809D01*
X131408714Y-87072857D01*
X131361095Y-86977619D01*
X131313476Y-86930000D01*
X131218238Y-86882380D01*
X131027761Y-86882380D01*
X130932523Y-86930000D01*
X130884904Y-86977619D01*
X130837285Y-87072857D01*
X130837285Y-87310952D01*
X130884904Y-87406190D01*
X130932523Y-87453809D01*
X131027761Y-87501428D01*
X131218238Y-87501428D01*
X131313476Y-87453809D01*
X131361095Y-87406190D01*
X131408714Y-87310952D01*
X174187142Y-87178666D02*
X174234761Y-87226285D01*
X174282380Y-87369142D01*
X174282380Y-87464380D01*
X174234761Y-87607238D01*
X174139523Y-87702476D01*
X174044285Y-87750095D01*
X173853809Y-87797714D01*
X173710952Y-87797714D01*
X173520476Y-87750095D01*
X173425238Y-87702476D01*
X173330000Y-87607238D01*
X173282380Y-87464380D01*
X173282380Y-87369142D01*
X173330000Y-87226285D01*
X173377619Y-87178666D01*
X173710952Y-86607238D02*
X173663333Y-86702476D01*
X173615714Y-86750095D01*
X173520476Y-86797714D01*
X173472857Y-86797714D01*
X173377619Y-86750095D01*
X173330000Y-86702476D01*
X173282380Y-86607238D01*
X173282380Y-86416761D01*
X173330000Y-86321523D01*
X173377619Y-86273904D01*
X173472857Y-86226285D01*
X173520476Y-86226285D01*
X173615714Y-86273904D01*
X173663333Y-86321523D01*
X173710952Y-86416761D01*
X173710952Y-86607238D01*
X173758571Y-86702476D01*
X173806190Y-86750095D01*
X173901428Y-86797714D01*
X174091904Y-86797714D01*
X174187142Y-86750095D01*
X174234761Y-86702476D01*
X174282380Y-86607238D01*
X174282380Y-86416761D01*
X174234761Y-86321523D01*
X174187142Y-86273904D01*
X174091904Y-86226285D01*
X173901428Y-86226285D01*
X173806190Y-86273904D01*
X173758571Y-86321523D01*
X173710952Y-86416761D01*
X143519142Y-98862666D02*
X143566761Y-98910285D01*
X143614380Y-99053142D01*
X143614380Y-99148380D01*
X143566761Y-99291238D01*
X143471523Y-99386476D01*
X143376285Y-99434095D01*
X143185809Y-99481714D01*
X143042952Y-99481714D01*
X142852476Y-99434095D01*
X142757238Y-99386476D01*
X142662000Y-99291238D01*
X142614380Y-99148380D01*
X142614380Y-99053142D01*
X142662000Y-98910285D01*
X142709619Y-98862666D01*
X142614380Y-98529333D02*
X142614380Y-97862666D01*
X143614380Y-98291238D01*
X136485333Y-76795142D02*
X136437714Y-76842761D01*
X136294857Y-76890380D01*
X136199619Y-76890380D01*
X136056761Y-76842761D01*
X135961523Y-76747523D01*
X135913904Y-76652285D01*
X135866285Y-76461809D01*
X135866285Y-76318952D01*
X135913904Y-76128476D01*
X135961523Y-76033238D01*
X136056761Y-75938000D01*
X136199619Y-75890380D01*
X136294857Y-75890380D01*
X136437714Y-75938000D01*
X136485333Y-75985619D01*
X137342476Y-75890380D02*
X137152000Y-75890380D01*
X137056761Y-75938000D01*
X137009142Y-75985619D01*
X136913904Y-76128476D01*
X136866285Y-76318952D01*
X136866285Y-76699904D01*
X136913904Y-76795142D01*
X136961523Y-76842761D01*
X137056761Y-76890380D01*
X137247238Y-76890380D01*
X137342476Y-76842761D01*
X137390095Y-76795142D01*
X137437714Y-76699904D01*
X137437714Y-76461809D01*
X137390095Y-76366571D01*
X137342476Y-76318952D01*
X137247238Y-76271333D01*
X137056761Y-76271333D01*
X136961523Y-76318952D01*
X136913904Y-76366571D01*
X136866285Y-76461809D01*
X150377142Y-98862666D02*
X150424761Y-98910285D01*
X150472380Y-99053142D01*
X150472380Y-99148380D01*
X150424761Y-99291238D01*
X150329523Y-99386476D01*
X150234285Y-99434095D01*
X150043809Y-99481714D01*
X149900952Y-99481714D01*
X149710476Y-99434095D01*
X149615238Y-99386476D01*
X149520000Y-99291238D01*
X149472380Y-99148380D01*
X149472380Y-99053142D01*
X149520000Y-98910285D01*
X149567619Y-98862666D01*
X149472380Y-97957904D02*
X149472380Y-98434095D01*
X149948571Y-98481714D01*
X149900952Y-98434095D01*
X149853333Y-98338857D01*
X149853333Y-98100761D01*
X149900952Y-98005523D01*
X149948571Y-97957904D01*
X150043809Y-97910285D01*
X150281904Y-97910285D01*
X150377142Y-97957904D01*
X150424761Y-98005523D01*
X150472380Y-98100761D01*
X150472380Y-98338857D01*
X150424761Y-98434095D01*
X150377142Y-98481714D01*
X135723333Y-65151142D02*
X135675714Y-65198761D01*
X135532857Y-65246380D01*
X135437619Y-65246380D01*
X135294761Y-65198761D01*
X135199523Y-65103523D01*
X135151904Y-65008285D01*
X135104285Y-64817809D01*
X135104285Y-64674952D01*
X135151904Y-64484476D01*
X135199523Y-64389238D01*
X135294761Y-64294000D01*
X135437619Y-64246380D01*
X135532857Y-64246380D01*
X135675714Y-64294000D01*
X135723333Y-64341619D01*
X136580476Y-64579714D02*
X136580476Y-65246380D01*
X136342380Y-64198761D02*
X136104285Y-64913047D01*
X136723333Y-64913047D01*
X173679142Y-77272666D02*
X173726761Y-77320285D01*
X173774380Y-77463142D01*
X173774380Y-77558380D01*
X173726761Y-77701238D01*
X173631523Y-77796476D01*
X173536285Y-77844095D01*
X173345809Y-77891714D01*
X173202952Y-77891714D01*
X173012476Y-77844095D01*
X172917238Y-77796476D01*
X172822000Y-77701238D01*
X172774380Y-77558380D01*
X172774380Y-77463142D01*
X172822000Y-77320285D01*
X172869619Y-77272666D01*
X172774380Y-76939333D02*
X172774380Y-76320285D01*
X173155333Y-76653619D01*
X173155333Y-76510761D01*
X173202952Y-76415523D01*
X173250571Y-76367904D01*
X173345809Y-76320285D01*
X173583904Y-76320285D01*
X173679142Y-76367904D01*
X173726761Y-76415523D01*
X173774380Y-76510761D01*
X173774380Y-76796476D01*
X173726761Y-76891714D01*
X173679142Y-76939333D01*
X179521142Y-93782666D02*
X179568761Y-93830285D01*
X179616380Y-93973142D01*
X179616380Y-94068380D01*
X179568761Y-94211238D01*
X179473523Y-94306476D01*
X179378285Y-94354095D01*
X179187809Y-94401714D01*
X179044952Y-94401714D01*
X178854476Y-94354095D01*
X178759238Y-94306476D01*
X178664000Y-94211238D01*
X178616380Y-94068380D01*
X178616380Y-93973142D01*
X178664000Y-93830285D01*
X178711619Y-93782666D01*
X178711619Y-93401714D02*
X178664000Y-93354095D01*
X178616380Y-93258857D01*
X178616380Y-93020761D01*
X178664000Y-92925523D01*
X178711619Y-92877904D01*
X178806857Y-92830285D01*
X178902095Y-92830285D01*
X179044952Y-92877904D01*
X179616380Y-93449333D01*
X179616380Y-92830285D01*
X197461142Y-97244666D02*
X197508761Y-97292285D01*
X197556380Y-97435142D01*
X197556380Y-97530380D01*
X197508761Y-97673238D01*
X197413523Y-97768476D01*
X197318285Y-97816095D01*
X197127809Y-97863714D01*
X196984952Y-97863714D01*
X196794476Y-97816095D01*
X196699238Y-97768476D01*
X196604000Y-97673238D01*
X196556380Y-97530380D01*
X196556380Y-97435142D01*
X196604000Y-97292285D01*
X196651619Y-97244666D01*
X197556380Y-96292285D02*
X197556380Y-96863714D01*
X197556380Y-96578000D02*
X196556380Y-96578000D01*
X196699238Y-96673238D01*
X196794476Y-96768476D01*
X196842095Y-96863714D01*
X198666666Y-108252380D02*
X198333333Y-107776190D01*
X198095238Y-108252380D02*
X198095238Y-107252380D01*
X198476190Y-107252380D01*
X198571428Y-107300000D01*
X198619047Y-107347619D01*
X198666666Y-107442857D01*
X198666666Y-107585714D01*
X198619047Y-107680952D01*
X198571428Y-107728571D01*
X198476190Y-107776190D01*
X198095238Y-107776190D01*
X199095238Y-107728571D02*
X199428571Y-107728571D01*
X199571428Y-108252380D02*
X199095238Y-108252380D01*
X199095238Y-107252380D01*
X199571428Y-107252380D01*
X200333333Y-107728571D02*
X200000000Y-107728571D01*
X200000000Y-108252380D02*
X200000000Y-107252380D01*
X200476190Y-107252380D01*
X201000000Y-107252380D02*
X201000000Y-107490476D01*
X200761904Y-107395238D02*
X201000000Y-107490476D01*
X201238095Y-107395238D01*
X200857142Y-107680952D02*
X201000000Y-107490476D01*
X201142857Y-107680952D01*
X201761904Y-107252380D02*
X201761904Y-107490476D01*
X201523809Y-107395238D02*
X201761904Y-107490476D01*
X202000000Y-107395238D01*
X201619047Y-107680952D02*
X201761904Y-107490476D01*
X201904761Y-107680952D01*
X199333333Y-52252380D02*
X198761904Y-52252380D01*
X199047619Y-52252380D02*
X199047619Y-51252380D01*
X198952380Y-51395238D01*
X198857142Y-51490476D01*
X198761904Y-51538095D01*
X199809523Y-52252380D02*
X200000000Y-52252380D01*
X200095238Y-52204761D01*
X200142857Y-52157142D01*
X200238095Y-52014285D01*
X200285714Y-51823809D01*
X200285714Y-51442857D01*
X200238095Y-51347619D01*
X200190476Y-51300000D01*
X200095238Y-51252380D01*
X199904761Y-51252380D01*
X199809523Y-51300000D01*
X199761904Y-51347619D01*
X199714285Y-51442857D01*
X199714285Y-51680952D01*
X199761904Y-51776190D01*
X199809523Y-51823809D01*
X199904761Y-51871428D01*
X200095238Y-51871428D01*
X200190476Y-51823809D01*
X200238095Y-51776190D01*
X200285714Y-51680952D01*
X201190476Y-51252380D02*
X200714285Y-51252380D01*
X200666666Y-51728571D01*
X200714285Y-51680952D01*
X200809523Y-51633333D01*
X201047619Y-51633333D01*
X201142857Y-51680952D01*
X201190476Y-51728571D01*
X201238095Y-51823809D01*
X201238095Y-52061904D01*
X201190476Y-52157142D01*
X201142857Y-52204761D01*
X201047619Y-52252380D01*
X200809523Y-52252380D01*
X200714285Y-52204761D01*
X200666666Y-52157142D01*
X114666666Y-108252380D02*
X114333333Y-107776190D01*
X114095238Y-108252380D02*
X114095238Y-107252380D01*
X114476190Y-107252380D01*
X114571428Y-107300000D01*
X114619047Y-107347619D01*
X114666666Y-107442857D01*
X114666666Y-107585714D01*
X114619047Y-107680952D01*
X114571428Y-107728571D01*
X114476190Y-107776190D01*
X114095238Y-107776190D01*
X115095238Y-107728571D02*
X115428571Y-107728571D01*
X115571428Y-108252380D02*
X115095238Y-108252380D01*
X115095238Y-107252380D01*
X115571428Y-107252380D01*
X116333333Y-107728571D02*
X116000000Y-107728571D01*
X116000000Y-108252380D02*
X116000000Y-107252380D01*
X116476190Y-107252380D01*
X117000000Y-107252380D02*
X117000000Y-107490476D01*
X116761904Y-107395238D02*
X117000000Y-107490476D01*
X117238095Y-107395238D01*
X116857142Y-107680952D02*
X117000000Y-107490476D01*
X117142857Y-107680952D01*
X117761904Y-107252380D02*
X117761904Y-107490476D01*
X117523809Y-107395238D02*
X117761904Y-107490476D01*
X118000000Y-107395238D01*
X117619047Y-107680952D02*
X117761904Y-107490476D01*
X117904761Y-107680952D01*
X114666666Y-52252380D02*
X114333333Y-51776190D01*
X114095238Y-52252380D02*
X114095238Y-51252380D01*
X114476190Y-51252380D01*
X114571428Y-51300000D01*
X114619047Y-51347619D01*
X114666666Y-51442857D01*
X114666666Y-51585714D01*
X114619047Y-51680952D01*
X114571428Y-51728571D01*
X114476190Y-51776190D01*
X114095238Y-51776190D01*
X115095238Y-51728571D02*
X115428571Y-51728571D01*
X115571428Y-52252380D02*
X115095238Y-52252380D01*
X115095238Y-51252380D01*
X115571428Y-51252380D01*
X116333333Y-51728571D02*
X116000000Y-51728571D01*
X116000000Y-52252380D02*
X116000000Y-51252380D01*
X116476190Y-51252380D01*
X117000000Y-51252380D02*
X117000000Y-51490476D01*
X116761904Y-51395238D02*
X117000000Y-51490476D01*
X117238095Y-51395238D01*
X116857142Y-51680952D02*
X117000000Y-51490476D01*
X117142857Y-51680952D01*
X117761904Y-51252380D02*
X117761904Y-51490476D01*
X117523809Y-51395238D02*
X117761904Y-51490476D01*
X118000000Y-51395238D01*
X117619047Y-51680952D02*
X117761904Y-51490476D01*
X117904761Y-51680952D01*
X134455100Y-105463933D02*
X135169386Y-105463933D01*
X135312243Y-105511552D01*
X135407481Y-105606790D01*
X135455100Y-105749647D01*
X135455100Y-105844885D01*
X134788434Y-104559171D02*
X135455100Y-104559171D01*
X134407481Y-104797266D02*
X135121767Y-105035361D01*
X135121767Y-104416314D01*
X133862380Y-61293333D02*
X134576666Y-61293333D01*
X134719523Y-61340952D01*
X134814761Y-61436190D01*
X134862380Y-61579047D01*
X134862380Y-61674285D01*
X133957619Y-60864761D02*
X133910000Y-60817142D01*
X133862380Y-60721904D01*
X133862380Y-60483809D01*
X133910000Y-60388571D01*
X133957619Y-60340952D01*
X134052857Y-60293333D01*
X134148095Y-60293333D01*
X134290952Y-60340952D01*
X134862380Y-60912380D01*
X134862380Y-60293333D01*
M02*
